<?xml version="1.0" encoding="UTF-8"?>
<svg version="1.1" xmlns="http://www.w3.org/2000/svg" width="380" height="459">
<path d="M0 0 C125.4 0 250.8 0 380 0 C380 151.47 380 302.94 380 459 C254.6 459 129.2 459 0 459 C0 307.53 0 156.06 0 0 Z " fill="#1B676D" transform="translate(0,0)"/>
<path d="M0 0 C1.77213977 -0.00571332 3.54427586 -0.01268128 5.31640625 -0.02079773 C10.09752864 -0.03863855 14.87846659 -0.03757787 19.65961218 -0.03185534 C23.66525706 -0.02875011 27.6708672 -0.03487076 31.67650712 -0.04089409 C41.13365173 -0.05490809 50.59070595 -0.05340428 60.04785156 -0.04199219 C69.77272489 -0.03051564 79.49732228 -0.04458606 89.22215927 -0.07138866 C97.6013389 -0.09360956 105.98043231 -0.10016864 114.35963929 -0.09431225 C119.35107228 -0.09095654 124.34232848 -0.09326491 129.33373642 -0.11056328 C134.03055885 -0.12613247 138.72697537 -0.1219673 143.42378235 -0.10325813 C145.1368973 -0.0995996 146.85004301 -0.10259979 148.56312943 -0.11314392 C162.48732369 -0.19223445 175.27217571 1.40917499 187.15283203 9.40405273 C187.90048828 9.90678711 188.64814453 10.40952148 189.41845703 10.92749023 C201.9597504 20.0135293 208.79125159 32.51627903 212.15283203 47.40405273 C212.84543314 53.23437282 212.71172377 59.12025106 212.6862793 64.98168945 C212.69335262 66.71294891 212.70210353 68.44420219 212.71238708 70.17544556 C212.73473371 74.84092624 212.73197589 79.50606533 212.72306561 84.17157888 C212.71792533 88.08274695 212.72527289 91.99385253 212.73253769 95.90501416 C212.74949033 105.14026449 212.74601819 114.3753494 212.72924805 123.6105957 C212.71233422 133.10207275 212.72816172 142.5930896 212.76047093 152.08451641 C212.78725938 160.26756983 212.79441785 168.45048082 212.78595585 176.63357365 C212.78105319 181.50601173 212.78309667 186.37817324 212.80374336 191.25057602 C212.82224647 195.83587892 212.81596534 200.42052579 212.79154396 205.00579453 C212.78658193 206.6765613 212.78990406 208.34737935 212.80269241 210.01810455 C212.88107192 221.14907057 211.32011163 230.02823511 207.15283203 240.40405273 C206.85152154 241.19534513 206.55021105 241.98663754 206.23976994 242.80190849 C202.00708273 253.4418874 189.76475328 264.10137818 179.65283203 268.59155273 C178.57001953 269.08010742 177.48720703 269.56866211 176.37158203 270.07202148 C168.51175314 273.32469339 161.373767 274.52632058 152.86201477 274.5377655 C152.16212958 274.54003106 151.46224439 274.54229662 150.74115056 274.54463083 C148.41392372 274.55092197 146.08675585 274.55014462 143.75952148 274.54931641 C142.0833987 274.552311 140.4072766 274.55571423 138.7311554 274.55949402 C134.18958301 274.56830896 129.64802948 274.57067112 125.10644937 274.5713098 C122.26451374 274.57202189 119.42258287 274.57415923 116.58064842 274.57680702 C106.65296501 274.58605312 96.725295 274.59014295 86.79760742 274.58935547 C77.56536655 274.58875531 68.33318423 274.59929682 59.10095817 274.61509913 C51.15759264 274.62820747 43.21424616 274.63353796 35.27086991 274.63290006 C30.53433719 274.63264598 25.79785649 274.635447 21.06133461 274.64607811 C16.60189687 274.65581431 12.14256029 274.6558007 7.68311882 274.64856148 C6.05463131 274.64752237 4.42613731 274.64983804 2.79766083 274.65592194 C-9.31572507 274.69821318 -21.13425385 274.59171492 -32.03466797 268.71655273 C-32.71537354 268.35916016 -33.3960791 268.00176758 -34.09741211 267.63354492 C-49.97894112 259.0931736 -58.04864188 247.3445573 -63.32568359 230.45532227 C-64.62944964 225.32693168 -64.97655916 220.40091436 -64.99433899 215.11959839 C-64.99801568 214.40831697 -65.00169237 213.69703554 -65.00548047 212.96420014 C-65.01645042 210.59241827 -65.02034971 208.22068031 -65.02416992 205.84887695 C-65.03043965 204.14334476 -65.0370869 202.43781392 -65.04408264 200.73228455 C-65.06506561 195.14111268 -65.07547994 189.54994072 -65.08544922 183.95874023 C-65.08949899 182.0292268 -65.09361598 180.0997135 -65.0977993 178.17020035 C-65.11683865 169.10289806 -65.13107207 160.03560386 -65.13941127 150.96828544 C-65.14917796 140.52309631 -65.17548798 130.07811941 -65.21591216 119.63300502 C-65.24613218 111.54528819 -65.26088573 103.45763199 -65.26419228 95.36985981 C-65.26653609 90.54604668 -65.27540918 85.7224606 -65.30065346 80.89870834 C-65.32404236 76.35630795 -65.32812422 71.81428239 -65.31789207 67.27183723 C-65.31739922 65.61270076 -65.32364509 63.95354515 -65.33744812 62.29446602 C-65.47918107 44.23571022 -60.33186002 28.79545427 -47.84716797 15.40405273 C-45.32734605 13.13266397 -42.6917655 11.24621829 -39.84716797 9.40405273 C-39.08662109 8.8794043 -38.32607422 8.35475586 -37.54248047 7.81420898 C-25.84822884 0.17371551 -13.5155364 -0.03962685 0 0 Z " fill="#1B666C" transform="translate(116.84716796875,22.595947265625)"/>
<path d="M0 0 C1.77213977 -0.00571332 3.54427586 -0.01268128 5.31640625 -0.02079773 C10.09752864 -0.03863855 14.87846659 -0.03757787 19.65961218 -0.03185534 C23.66525706 -0.02875011 27.6708672 -0.03487076 31.67650712 -0.04089409 C41.13365173 -0.05490809 50.59070595 -0.05340428 60.04785156 -0.04199219 C69.77272489 -0.03051564 79.49732228 -0.04458606 89.22215927 -0.07138866 C97.6013389 -0.09360956 105.98043231 -0.10016864 114.35963929 -0.09431225 C119.35107228 -0.09095654 124.34232848 -0.09326491 129.33373642 -0.11056328 C134.03055885 -0.12613247 138.72697537 -0.1219673 143.42378235 -0.10325813 C145.1368973 -0.0995996 146.85004301 -0.10259979 148.56312943 -0.11314392 C162.48732369 -0.19223445 175.27217571 1.40917499 187.15283203 9.40405273 C187.90048828 9.90678711 188.64814453 10.40952148 189.41845703 10.92749023 C201.9597504 20.0135293 208.79125159 32.51627903 212.15283203 47.40405273 C212.84543314 53.23437282 212.71172377 59.12025106 212.6862793 64.98168945 C212.69335262 66.71294891 212.70210353 68.44420219 212.71238708 70.17544556 C212.73473371 74.84092624 212.73197589 79.50606533 212.72306561 84.17157888 C212.71792533 88.08274695 212.72527289 91.99385253 212.73253769 95.90501416 C212.74949033 105.14026449 212.74601819 114.3753494 212.72924805 123.6105957 C212.71233422 133.10207275 212.72816172 142.5930896 212.76047093 152.08451641 C212.78725938 160.26756983 212.79441785 168.45048082 212.78595585 176.63357365 C212.78105319 181.50601173 212.78309667 186.37817324 212.80374336 191.25057602 C212.82224647 195.83587892 212.81596534 200.42052579 212.79154396 205.00579453 C212.78658193 206.6765613 212.78990406 208.34737935 212.80269241 210.01810455 C212.88107192 221.14907057 211.32011163 230.02823511 207.15283203 240.40405273 C206.85152154 241.19534513 206.55021105 241.98663754 206.23976994 242.80190849 C202.00708273 253.4418874 189.76475328 264.10137818 179.65283203 268.59155273 C178.57001953 269.08010742 177.48720703 269.56866211 176.37158203 270.07202148 C168.51175314 273.32469339 161.373767 274.52632058 152.86201477 274.5377655 C152.16212958 274.54003106 151.46224439 274.54229662 150.74115056 274.54463083 C148.41392372 274.55092197 146.08675585 274.55014462 143.75952148 274.54931641 C142.0833987 274.552311 140.4072766 274.55571423 138.7311554 274.55949402 C134.18958301 274.56830896 129.64802948 274.57067112 125.10644937 274.5713098 C122.26451374 274.57202189 119.42258287 274.57415923 116.58064842 274.57680702 C106.65296501 274.58605312 96.725295 274.59014295 86.79760742 274.58935547 C77.56536655 274.58875531 68.33318423 274.59929682 59.10095817 274.61509913 C51.15759264 274.62820747 43.21424616 274.63353796 35.27086991 274.63290006 C30.53433719 274.63264598 25.79785649 274.635447 21.06133461 274.64607811 C16.60189687 274.65581431 12.14256029 274.6558007 7.68311882 274.64856148 C6.05463131 274.64752237 4.42613731 274.64983804 2.79766083 274.65592194 C-9.31572507 274.69821318 -21.13425385 274.59171492 -32.03466797 268.71655273 C-32.71537354 268.35916016 -33.3960791 268.00176758 -34.09741211 267.63354492 C-49.97894112 259.0931736 -58.04864188 247.3445573 -63.32568359 230.45532227 C-64.62944964 225.32693168 -64.97655916 220.40091436 -64.99433899 215.11959839 C-64.99801568 214.40831697 -65.00169237 213.69703554 -65.00548047 212.96420014 C-65.01645042 210.59241827 -65.02034971 208.22068031 -65.02416992 205.84887695 C-65.03043965 204.14334476 -65.0370869 202.43781392 -65.04408264 200.73228455 C-65.06506561 195.14111268 -65.07547994 189.54994072 -65.08544922 183.95874023 C-65.08949899 182.0292268 -65.09361598 180.0997135 -65.0977993 178.17020035 C-65.11683865 169.10289806 -65.13107207 160.03560386 -65.13941127 150.96828544 C-65.14917796 140.52309631 -65.17548798 130.07811941 -65.21591216 119.63300502 C-65.24613218 111.54528819 -65.26088573 103.45763199 -65.26419228 95.36985981 C-65.26653609 90.54604668 -65.27540918 85.7224606 -65.30065346 80.89870834 C-65.32404236 76.35630795 -65.32812422 71.81428239 -65.31789207 67.27183723 C-65.31739922 65.61270076 -65.32364509 63.95354515 -65.33744812 62.29446602 C-65.47918107 44.23571022 -60.33186002 28.79545427 -47.84716797 15.40405273 C-45.32734605 13.13266397 -42.6917655 11.24621829 -39.84716797 9.40405273 C-39.08662109 8.8794043 -38.32607422 8.35475586 -37.54248047 7.81420898 C-25.84822884 0.17371551 -13.5155364 -0.03962685 0 0 Z M-43.03076172 26.10717773 C-53.08703502 38.82349752 -54.14821419 50.6770719 -54.12182617 66.20800781 C-54.12617903 67.9041313 -54.13136408 69.60025282 -54.13731384 71.29637146 C-54.15065451 75.88329714 -54.15128794 80.47014017 -54.14875054 85.05708146 C-54.14767731 88.89624077 -54.15257326 92.7353836 -54.15735596 96.57453936 C-54.16843445 105.63792171 -54.16889813 114.7012626 -54.1628418 123.76464844 C-54.15680503 133.09125968 -54.16910929 142.41771994 -54.19041187 151.74430543 C-54.20806982 159.77264322 -54.21402256 167.80093314 -54.21077412 175.82928962 C-54.20896755 180.61499782 -54.21153454 185.40059835 -54.22548866 190.18628883 C-54.23813055 194.6901216 -54.23606319 199.19372035 -54.22307777 203.69754982 C-54.2207261 205.34216392 -54.22339561 206.98679481 -54.2317009 208.63138962 C-54.30978887 225.30822029 -51.75242108 238.33017447 -39.90966797 250.77905273 C-27.70631237 262.19058755 -13.58870115 264.00837714 2.53100586 263.9375 C4.24093871 263.94457368 5.9508653 263.95332472 7.66078186 263.96360779 C12.2684816 263.98595226 16.87583541 263.98319685 21.48356843 263.97428632 C25.34742127 263.96914489 29.21121089 263.97649462 33.07505721 263.98375839 C42.20007902 264.00071086 51.32493343 263.99723966 60.44995117 263.98046875 C69.82439485 263.96356076 79.1983724 263.97937442 88.57276517 264.01169163 C96.65732164 264.03849348 104.74173397 264.04563481 112.82633036 264.03717655 C117.63899789 264.03227705 122.4513854 264.03429967 127.26401711 264.05496407 C131.79433367 264.07348804 136.32398686 264.06716132 140.85426903 264.04276466 C142.50365249 264.03780883 144.153088 264.04110804 145.8024292 264.05391312 C160.07413679 264.15583057 173.97997138 262.40199285 185.03955078 252.51342773 C197.20377457 240.37168865 201.51935374 229.34573708 201.55941772 212.05189514 C201.55358694 210.45638924 201.54744257 208.86088447 201.54101562 207.26538086 C201.54508798 205.55748663 201.55043357 203.84959504 201.5569458 202.14170837 C201.57054624 197.53219752 201.56535099 192.92288958 201.55580854 188.31337547 C201.54817406 183.47254291 201.55526803 178.63172686 201.55996704 173.79089355 C201.5654136 165.66403101 201.5582619 157.53725046 201.54394531 149.41040039 C201.52762094 140.03600446 201.53291022 130.66180432 201.54942453 121.28741312 C201.56307079 113.21573167 201.56494374 105.14410891 201.55710852 97.07241964 C201.55244924 92.26163114 201.55175888 87.45093445 201.56171799 82.64015198 C201.57043122 78.11576304 201.56428676 73.59162473 201.54703522 69.06726265 C201.54309353 67.41416908 201.54416432 65.76105414 201.55082321 64.10796928 C201.60906326 48.17145874 199.0358229 35.78016498 187.96533203 23.65405273 C179.42223125 15.65092221 169.22169035 11.15681736 157.54484558 11.15008545 C156.81088084 11.14696547 156.0769161 11.14384549 155.32071 11.14063096 C152.87819269 11.13269761 150.43592706 11.13895633 147.9934082 11.14526367 C146.23522293 11.14255167 144.4770388 11.13898956 142.71885681 11.13464355 C137.9542606 11.12554023 133.18975119 11.12905587 128.42515349 11.13540173 C123.43035004 11.14047475 118.43555388 11.13576643 113.44075012 11.13262939 C105.05041169 11.12899254 96.66010848 11.13378045 88.26977539 11.14331055 C78.58533276 11.15418391 68.90097441 11.15067651 59.21653384 11.13965774 C50.8893341 11.13056417 42.56215966 11.12931002 34.23495656 11.13453507 C29.2671043 11.13764477 24.29929156 11.1380919 19.33144188 11.1314621 C14.65695974 11.12565952 9.98258555 11.1297386 5.30811501 11.14125061 C3.59816288 11.14388213 1.88820158 11.14315807 0.17825317 11.13872528 C-16.86179098 11.09864475 -30.774852 12.90456935 -43.03076172 26.10717773 Z " fill="#F0EBE0" transform="translate(116.84716796875,22.595947265625)"/>
<path d="M0 0 C3.96915391 0.65068097 4.6971875 1.06969875 7.51367188 3.64404297 C8.56288818 4.59944977 8.56288818 4.59944977 9.63330078 5.57415771 C15.78472846 11.36326037 21.79032629 17.29592058 27.78466797 23.24707031 C29.46452725 24.91038085 31.14973206 26.56831065 32.84033203 28.22070312 C58.92843039 53.72455001 58.92843039 53.72455001 59.19287109 70.32910156 C59.16105305 87.6323324 59.16105305 87.6323324 54.8125 95.625 C54.38839844 96.46804687 53.96429688 97.31109375 53.52734375 98.1796875 C50.14506104 104.3789689 45.71969332 110.6286553 39.8125 114.625 C37.03515625 114.36328125 37.03515625 114.36328125 34.8125 113.625 C34.54154911 110.63411905 34.50175244 109.08762979 36.203125 106.5546875 C36.81671875 105.87664062 37.4303125 105.19859375 38.0625 104.5 C45.90395289 94.81349937 46.7892805 84.65547379 45.8125 72.625 C44.67035823 64.40823254 40.69427865 58.38735168 34.8125 52.625 C31.63693322 50.23451788 28.38521084 48.35705021 24.8125 46.625 C24.12027344 46.28597656 23.42804688 45.94695312 22.71484375 45.59765625 C19.08242326 44.03058816 16.02726004 43.48921884 12.06640625 43.5546875 C10.86673218 43.56991455 10.86673218 43.56991455 9.64282227 43.58544922 C9.03881592 43.59850098 8.43480957 43.61155273 7.8125 43.625 C7.80885437 44.79296112 7.80520874 45.96092224 7.80145264 47.16427612 C7.76443025 58.1984349 7.70657834 69.23231646 7.62859726 80.26626396 C7.58917338 85.93826286 7.55695983 91.61010769 7.54150391 97.28222656 C7.52630398 102.7613343 7.49179881 108.24001832 7.44419098 113.71893692 C7.42941163 115.8039493 7.42146097 117.88902218 7.42061615 119.97408676 C7.41823438 122.90619253 7.39105734 125.83713872 7.35839844 128.76904297 C7.36594398 130.04759407 7.36594398 130.04759407 7.37364197 131.35197449 C7.20000949 141.49938849 3.23483996 149.14924136 -3.671875 156.421875 C-12.24739994 163.93211734 -22.09683788 165.58846936 -33.12353516 164.89013672 C-40.24171686 163.9757358 -46.36056678 160.2056975 -50.75 154.625 C-51.58795131 153.30751314 -52.40367044 151.97538707 -53.1875 150.625 C-54.115625 149.2946875 -54.115625 149.2946875 -55.0625 147.9375 C-57.75719195 140.00312925 -57.00222847 131.46874202 -53.515625 123.90625 C-48.84102895 115.87694384 -42.19769863 109.79016079 -33.375 106.8125 C-25.8174422 104.81766951 -19.40320751 105.18927962 -11.8671875 107.1484375 C-10.79968262 107.42349121 -9.73217773 107.69854492 -8.63232422 107.98193359 C-7.82553223 108.19414551 -7.01874023 108.40635742 -6.1875 108.625 C-6.19416183 107.31621384 -6.20082367 106.00742767 -6.20768738 104.65898132 C-6.26842524 92.34252818 -6.31343741 80.02610531 -6.34293652 67.70953655 C-6.35861197 61.37701375 -6.37988468 55.04461157 -6.41381836 48.7121582 C-6.44634455 42.60434084 -6.46433884 36.49663971 -6.47213173 30.38874245 C-6.47768735 28.0550637 -6.48853569 25.72139152 -6.50469017 23.38776207 C-6.52637457 20.12644939 -6.52947066 16.86562088 -6.52807617 13.60424805 C-6.538862 12.63320633 -6.54964783 11.66216461 -6.5607605 10.66169739 C-6.55663651 9.77408722 -6.55251251 8.88647705 -6.54826355 7.9719696 C-6.55102893 7.20042888 -6.55379431 6.42888815 -6.55664349 5.6339674 C-5.82892839 1.67356726 -3.76525664 0.73828562 0 0 Z " fill="#F3EDE1" transform="translate(172.1875,78.375)"/>
<path d="M0 0 C0.84167725 0.05341553 1.68335449 0.10683105 2.55053711 0.16186523 C10.93252625 0.83896625 18.39547926 2.92050769 26.1875 6 C26.92387695 6.28794434 27.66025391 6.57588867 28.41894531 6.87255859 C44.25418439 13.18856064 57.09782524 22.01619642 69.1875 34 C69.66461426 34.46776855 70.14172852 34.93553711 70.63330078 35.41748047 C86.06382518 50.73234165 96.01457157 70.52562041 99.1875 92 C99.31769531 92.76054687 99.44789063 93.52109375 99.58203125 94.3046875 C101.67172379 108.62604706 100.10583133 122.94457385 97.1875 137 C96.95933594 138.12535156 96.73117187 139.25070313 96.49609375 140.41015625 C95.12449016 146.48440073 93.0840148 151.92402083 90.37109375 157.52734375 C89.16305111 159.94549208 89.16305111 159.94549208 88.33984375 162.34765625 C79.16070563 183.47523179 58.4791745 201.78750153 38.1875 212 C34.80859375 212.71484375 34.80859375 212.71484375 32.1875 213 C32.1875 213.66 32.1875 214.32 32.1875 215 C3.41731243 224.96614341 3.41731243 224.96614341 -9.8125 223 C-12.83014455 220.67987656 -13.6937625 219.72726716 -14.3125 215.9375 C-13.8125 213 -13.8125 213 -12.12109375 211.39428711 C-9.48991354 209.80517224 -7.3969852 209.28926302 -4.375 208.75390625 C-2.78365234 208.45709961 -2.78365234 208.45709961 -1.16015625 208.15429688 C-0.05542969 207.95900391 1.04929688 207.76371094 2.1875 207.5625 C13.94617207 205.46626614 25.04411946 202.60735242 35.625 196.9375 C36.34308838 196.55319824 37.06117676 196.16889648 37.80102539 195.77294922 C56.76331036 185.23390197 72.16541613 167.54710922 79.1875 147 C79.42742676 146.31679687 79.66735352 145.63359375 79.91455078 144.9296875 C80.74517589 142.56077481 81.56254997 140.18770463 82.375 137.8125 C82.63748535 137.05171143 82.8999707 136.29092285 83.17041016 135.50708008 C88.90670643 118.33753229 87.86148738 98.04187088 82.1875 81 C81.93355469 80.0821875 81.67960937 79.164375 81.41796875 78.21875 C74.03522592 54.07027098 54.25635952 36.24651893 33 24.125 C32.35933594 23.75584473 31.71867187 23.38668945 31.05859375 23.00634766 C21.41368595 17.65982096 11.53061889 16.08736411 0.71875 14.5390625 C-0.30734375 14.38179687 -1.3334375 14.22453125 -2.390625 14.0625 C-3.31262695 13.92972656 -4.23462891 13.79695313 -5.18457031 13.66015625 C-8.21846089 12.89801949 -10.31284173 11.88053762 -12.8125 10 C-13.625 6.3125 -13.625 6.3125 -13.8125 3 C-9.22433334 -0.53077354 -5.51437615 -0.37153795 0 0 Z " fill="#D73F70" transform="translate(202.8125,50)"/>
<path d="M0 0 C2.21946064 0.51643267 4.39874177 1.10648696 6.58569336 1.74658203 C7.75745117 2.08326904 7.75745117 2.08326904 8.95288086 2.42675781 C28.8082436 8.37600674 44.037921 20.81097661 55.77319336 37.62158203 C56.2565918 38.27642578 56.73999023 38.93126953 57.23803711 39.60595703 C68.32263018 55.61310101 71.0258565 77.16972078 68.27319336 96.05126953 C67.57727589 98.96937803 66.7101505 101.77231074 65.77319336 104.62158203 C65.47928711 105.76369141 65.18538086 106.90580078 64.88256836 108.08251953 C59.16177763 128.44682683 43.16156374 146.17647686 24.94604492 156.53759766 C15.44698043 161.2764568 3.78919189 164.73579692 -6.85180664 164.80908203 C-7.79282227 164.82326172 -8.73383789 164.83744141 -9.70336914 164.85205078 C-12.22680664 164.62158203 -12.22680664 164.62158203 -15.22680664 162.62158203 C-15.9079853 155.46920614 -15.9079853 155.46920614 -13.97387695 153.0625 C-11.89398821 151.34708589 -10.52087149 151.03146066 -7.87524414 150.59423828 C-7.02317383 150.44148437 -6.17110352 150.28873047 -5.29321289 150.13134766 C-3.52238139 149.83706579 -1.75154811 149.54279466 0.01928711 149.24853516 C15.31312003 146.50848563 30.11218168 137.83002465 39.77319336 125.62158203 C51.56785398 107.90428066 56.83741756 88.44847477 53.08569336 67.19189453 C51.55059836 59.92763587 49.17354243 53.61714131 44.94506836 47.44189453 C43.77319336 45.62158203 43.77319336 45.62158203 43.77319336 43.62158203 C43.11319336 43.62158203 42.45319336 43.62158203 41.77319336 43.62158203 C40.7388378 41.97601637 39.74555823 40.30452123 38.77319336 38.62158203 C30.97024675 28.26192526 20.29667128 22.89440866 8.77319336 17.62158203 C7.9572168 17.24646484 7.14124023 16.87134766 6.30053711 16.48486328 C2.14582055 15.06570971 -2.19120555 14.51303841 -6.51977539 13.85400391 C-9.43395339 13.36104482 -11.76599026 12.95322325 -14.19165039 11.20751953 C-15.89507347 8.59774681 -15.65859071 6.64407049 -15.22680664 3.62158203 C-11.82768488 -1.99435826 -5.79599348 -0.98495668 0 0 Z " fill="#D73F70" transform="translate(205.226806640625,79.37841796875)"/>
<path d="M0 0 C0.95648438 -0.02835937 1.91296875 -0.05671875 2.8984375 -0.0859375 C6.4047615 0.50682215 7.27907502 1.7511379 9.625 4.375 C10.71621365 5.91394667 11.76038983 7.48704899 12.76171875 9.0859375 C13.33986328 10.00246094 13.91800781 10.91898437 14.51367188 11.86328125 C15.10728516 12.81589844 15.70089844 13.76851563 16.3125 14.75 C21.7006637 23.32510227 27.14779101 31.85489713 32.625 40.375 C32.955 27.505 33.285 14.635 33.625 1.375 C36.11254786 0.13122607 37.85155301 0.24193765 40.625 0.25 C41.511875 0.24742187 42.39875 0.24484375 43.3125 0.2421875 C45.625 0.375 45.625 0.375 47.625 1.375 C47.67128625 9.68500792 47.7068502 17.99496221 47.72862434 26.30506706 C47.73907343 30.16354797 47.753253 34.02194085 47.77587891 37.88037109 C47.7975674 41.60212192 47.80956014 45.32378794 47.81475449 49.04559708 C47.81845745 50.46741191 47.82568819 51.88922197 47.83646011 53.31100082 C47.85092119 55.29827114 47.85181646 57.28562631 47.85205078 59.27294922 C47.856492 60.40546112 47.86093323 61.53797302 47.86550903 62.70480347 C47.625 65.375 47.625 65.375 45.625 67.375 C41.82572393 68.2003817 38.42422185 68.19930961 34.625 67.375 C31.41538198 64.95023887 29.6475384 61.81148493 27.625 58.375 C26.95210938 57.27285156 26.27921875 56.17070312 25.5859375 55.03515625 C24.07412982 52.54444379 22.58903789 50.03955035 21.11328125 47.52734375 C16.85004113 40.33149537 12.19881715 33.37540096 7.625 26.375 C7.60518066 27.54595215 7.58536133 28.7169043 7.56494141 29.92333984 C7.48899919 34.25836074 7.4002648 38.59304095 7.30761719 42.92773438 C7.26928023 44.80559576 7.23443573 46.68353176 7.203125 48.56152344 C7.15757637 51.25743321 7.09956625 53.95282712 7.0390625 56.6484375 C7.02173569 57.91256973 7.02173569 57.91256973 7.00405884 59.20223999 C6.85274341 65.14725659 6.85274341 65.14725659 4.625 67.375 C2.3125 67.640625 2.3125 67.640625 -0.375 67.625 C-1.7053125 67.63273437 -1.7053125 67.63273437 -3.0625 67.640625 C-5.375 67.375 -5.375 67.375 -7.375 65.375 C-7.62896729 62.75622559 -7.62896729 62.75622559 -7.63378906 59.39648438 C-7.64009338 58.14178345 -7.64639771 56.88708252 -7.65289307 55.59436035 C-7.64931339 54.21915548 -7.64521145 52.84395188 -7.640625 51.46875 C-7.64197173 50.06392347 -7.64391232 48.65909739 -7.64642334 47.25427246 C-7.64937426 44.30863004 -7.64507809 41.36310882 -7.63574219 38.41748047 C-7.62434755 34.63761497 -7.63090721 30.85803348 -7.64288712 27.07817841 C-7.65010665 24.17687837 -7.64781738 21.27564591 -7.64263153 18.37434387 C-7.64129529 16.98045315 -7.64294188 15.58655634 -7.64759064 14.19267273 C-7.65265711 12.24628819 -7.6435687 10.29988219 -7.63378906 8.35351562 C-7.63219788 7.24480103 -7.63060669 6.13608643 -7.62896729 4.99377441 C-7.14218754 -0.02563723 -4.38727844 0.0588107 0 0 Z " fill="#F0EBE0" transform="translate(307.375,327.625)"/>
<path d="M0 0 C3.10734655 0.05998739 5.16373906 0.11275318 7.80859375 1.78515625 C9.76680046 3.92180866 11.30044742 6.12536644 12.875 8.5625 C13.23916016 9.12066406 13.60332031 9.67882812 13.97851562 10.25390625 C16.46357419 14.08520768 18.85631925 17.96721558 21.22509766 21.87109375 C25.06205042 28.13013004 28.97789863 34.34080353 32.875 40.5625 C32.89481934 39.42184082 32.91463867 38.28118164 32.93505859 37.10595703 C33.01100567 32.88274677 33.09973928 28.65988601 33.19238281 24.43701172 C33.23071777 22.60765471 33.26556263 20.77822115 33.296875 18.94873047 C33.34242805 16.32231241 33.40043731 13.69642341 33.4609375 11.0703125 C33.47826431 9.83899094 33.47826431 9.83899094 33.49594116 8.58279419 C33.64725659 2.79024341 33.64725659 2.79024341 35.875 0.5625 C38.44140625 0.33203125 38.44140625 0.33203125 41.4375 0.375 C42.92443359 0.38466797 42.92443359 0.38466797 44.44140625 0.39453125 C46.875 0.5625 46.875 0.5625 47.875 1.5625 C47.96909479 3.58744231 47.99243122 5.6156987 47.98852539 7.64282227 C47.98844986 8.94409561 47.98837433 10.24536896 47.98829651 11.58607483 C47.98318909 13.01701902 47.97797308 14.44796282 47.97265625 15.87890625 C47.97079203 17.3347926 47.96936815 18.79067957 47.96836853 20.24656677 C47.96454365 24.08529379 47.95471364 27.92398319 47.94366455 31.76269531 C47.93344978 35.67707816 47.92887077 39.59146706 47.92382812 43.50585938 C47.91309134 51.19142343 47.89601529 58.87695645 47.875 66.5625 C43.70923304 68.64538348 39.3403763 68.6712705 34.875 67.5625 C31.37366137 64.41806408 29.22301173 60.6084541 26.875 56.5625 C25.56298632 54.45803006 24.25047895 52.35386784 22.9375 50.25 C22.28652344 49.17363281 21.63554687 48.09726562 20.96484375 46.98828125 C18.70790205 43.2628633 16.36060918 39.59785077 14 35.9375 C13.61851807 35.34541748 13.23703613 34.75333496 12.84399414 34.14331055 C11.20480432 31.6043901 9.55139255 29.07708883 7.875 26.5625 C7.84994385 27.73868896 7.8248877 28.91487793 7.79907227 30.12670898 C7.70517194 34.47464622 7.60490952 38.82241716 7.50268555 43.17016602 C7.45927067 45.05489218 7.41760057 46.93965936 7.37768555 48.82446289 C7.32014107 51.52763249 7.25640196 54.23059436 7.19140625 56.93359375 C7.16633751 58.20546791 7.16633751 58.20546791 7.14076233 59.5030365 C6.98887171 65.44862829 6.98887171 65.44862829 5.875 66.5625 C3.85535801 66.63494053 1.83332876 66.64627188 -0.1875 66.625 C-1.29222656 66.61597656 -2.39695313 66.60695313 -3.53515625 66.59765625 C-4.38980469 66.58605469 -5.24445313 66.57445312 -6.125 66.5625 C-6.14812659 58.10482666 -6.1659167 49.64716644 -6.17681217 41.18946934 C-6.18204031 37.26261342 -6.18913669 33.33577906 -6.20043945 29.40893555 C-6.2112708 25.62235743 -6.21727736 21.8358001 -6.21987724 18.04920769 C-6.22173105 16.60145681 -6.22535081 15.15370712 -6.23073006 13.70596504 C-6.23794367 11.68492865 -6.23840808 9.66387152 -6.23852539 7.64282227 C-6.240746 6.49032486 -6.24296661 5.33782745 -6.24525452 4.15040588 C-6.03903264 -0.28753811 -4.02923846 0.25800301 0 0 Z " fill="#F2EDE1" transform="translate(159.125,327.4375)"/>
<path d="M0 0 C1.48306641 0.02126953 1.48306641 0.02126953 2.99609375 0.04296875 C3.98738281 0.04941406 4.97867188 0.05585938 6 0.0625 C8.43359375 0.23046875 8.43359375 0.23046875 9.43359375 1.23046875 C9.53482042 2.57466006 9.5692544 3.9239894 9.57543945 5.27197266 C9.58247391 6.13021637 9.58950836 6.98846008 9.59675598 7.87271118 C9.60092026 8.8080368 9.60508453 9.74336243 9.609375 10.70703125 C9.63258642 12.67709386 9.65670428 14.64714597 9.68164062 16.6171875 C9.71667438 19.73102708 9.74604622 22.84448399 9.75952148 25.95849609 C9.77505432 28.95848472 9.81531492 31.95734326 9.859375 34.95703125 C9.85746658 35.88021149 9.85555817 36.80339172 9.85359192 37.75454712 C9.96599805 43.73345484 10.93248976 47.33620605 14.43359375 52.23046875 C18.36863585 54.1979898 23.14414595 53.6946947 27.43359375 53.23046875 C30.43556839 51.42928397 31.88525741 50.32714143 33.43359375 47.23046875 C33.54123856 45.79127114 33.58977896 44.34740964 33.60717773 42.90429688 C33.62066757 42.00996948 33.63415741 41.11564209 33.64805603 40.19421387 C33.65849442 39.22649048 33.6689328 38.25876709 33.6796875 37.26171875 C33.71261506 35.22655802 33.74582688 33.19140188 33.77929688 31.15625 C33.82680948 27.93671721 33.87125502 24.71720444 33.91040039 21.49755859 C33.94998139 18.39791635 34.0015492 15.29865395 34.0546875 12.19921875 C34.06310165 11.23149536 34.07151581 10.26377197 34.08018494 9.26672363 C34.09682693 8.37239624 34.11346893 7.47806885 34.13061523 6.55664062 C34.1409227 5.76769409 34.15123016 4.97874756 34.16184998 4.16589355 C34.43359375 2.23046875 34.43359375 2.23046875 36.43359375 0.23046875 C39 0 39 0 41.99609375 0.04296875 C43.48302734 0.05263672 43.48302734 0.05263672 45 0.0625 C47.43359375 0.23046875 47.43359375 0.23046875 48.43359375 1.23046875 C48.54234974 2.72764787 48.58262788 4.22988182 48.59472656 5.73095703 C48.60433411 6.6893045 48.61394165 7.64765198 48.62384033 8.63504028 C48.62809021 9.6797348 48.63234009 10.72442932 48.63671875 11.80078125 C48.64241882 12.87037079 48.6481189 13.93996033 48.6539917 15.04196167 C48.66346165 17.3134461 48.66998355 19.58494439 48.67382812 21.85644531 C48.68349451 25.31990931 48.71448327 28.78277019 48.74609375 32.24609375 C48.75262745 34.45181939 48.75787648 36.65754928 48.76171875 38.86328125 C48.77406555 39.89583038 48.78641235 40.92837952 48.7991333 41.99221802 C48.77830041 48.77611967 48.16219188 53.88431261 43.7421875 59.3046875 C36.39389621 65.64047936 29.00116014 69.0299419 19.16796875 68.61328125 C11.49282727 67.53876144 4.45354918 64.20560625 -0.56640625 58.23046875 C-4.31767681 51.36112235 -5.14424756 44.9758954 -5.02734375 37.26171875 C-5.02642731 36.25959351 -5.02551086 35.25746826 -5.02456665 34.22497559 C-5.01856946 32.12747399 -5.00294201 30.02997938 -4.97802734 27.93261719 C-4.9411867 24.71127128 -4.93701085 21.49106726 -4.9375 18.26953125 C-4.9276798 16.22525041 -4.91602762 14.18097737 -4.90234375 12.13671875 C-4.9001181 11.17221802 -4.89789246 10.20771729 -4.89559937 9.21398926 C-4.88283966 8.32546265 -4.87007996 7.43693604 -4.85693359 6.52148438 C-4.84931 5.73890259 -4.8416864 4.9563208 -4.83383179 4.15002441 C-4.38552921 0.93215018 -3.11179856 0.27944614 0 0 Z " fill="#F2EDE1" transform="translate(92.56640625,327.76953125)"/>
<path d="M0 0 C0.8816835 -0.0033284 1.763367 -0.0066568 2.67176819 -0.01008606 C4.54053219 -0.01515908 6.40930529 -0.01749427 8.27807617 -0.01733398 C11.14451969 -0.01951933 14.01057785 -0.0376678 16.87695312 -0.05664062 C18.68880076 -0.05957464 20.50065023 -0.06155938 22.3125 -0.0625 C23.60473732 -0.07327827 23.60473732 -0.07327827 24.92308044 -0.08427429 C30.99383465 -0.06085285 30.99383465 -0.06085285 33.22265625 2.16796875 C33.48828125 4.26171875 33.48828125 4.26171875 33.47265625 6.66796875 C33.48039062 7.8590625 33.48039062 7.8590625 33.48828125 9.07421875 C33.22265625 11.16796875 33.22265625 11.16796875 31.22265625 13.16796875 C28.51708984 13.39501953 28.51708984 13.39501953 25.12109375 13.36328125 C23.909375 13.35683594 22.69765625 13.35039062 21.44921875 13.34375 C20.17820313 13.32699219 18.9071875 13.31023437 17.59765625 13.29296875 C16.31890625 13.28394531 15.04015625 13.27492188 13.72265625 13.265625 C10.55591046 13.24199257 7.3892604 13.20612061 4.22265625 13.16796875 C4.22265625 17.45796875 4.22265625 21.74796875 4.22265625 26.16796875 C6.67832031 26.13316406 6.67832031 26.13316406 9.18359375 26.09765625 C11.32161004 26.07890172 13.45963124 26.06070118 15.59765625 26.04296875 C16.67789063 26.02621094 17.758125 26.00945312 18.87109375 25.9921875 C19.90234375 25.98574219 20.93359375 25.97929687 21.99609375 25.97265625 C23.42574463 25.9569458 23.42574463 25.9569458 24.88427734 25.94091797 C27.22265625 26.16796875 27.22265625 26.16796875 29.22265625 28.16796875 C29.48828125 30.26171875 29.48828125 30.26171875 29.47265625 32.66796875 C29.48039062 33.8590625 29.48039062 33.8590625 29.48828125 35.07421875 C29.22265625 37.16796875 29.22265625 37.16796875 27.22265625 39.16796875 C24.88427734 39.39501953 24.88427734 39.39501953 21.99609375 39.36328125 C20.44921875 39.35361328 20.44921875 39.35361328 18.87109375 39.34375 C17.79085937 39.32699219 16.710625 39.31023437 15.59765625 39.29296875 C14.5096875 39.28394531 13.42171875 39.27492188 12.30078125 39.265625 C9.60797976 39.24200393 6.9152909 39.20613208 4.22265625 39.16796875 C4.22265625 44.11796875 4.22265625 49.06796875 4.22265625 54.16796875 C7.23712891 54.15056641 7.23712891 54.15056641 10.3125 54.1328125 C12.25187049 54.12586135 14.19124128 54.11894479 16.13061523 54.11303711 C17.48186011 54.10799818 18.83309951 54.10116698 20.18432617 54.0925293 C22.12286059 54.08044456 24.06143425 54.07527047 26 54.0703125 C27.75171509 54.06245728 27.75171509 54.06245728 29.53881836 54.05444336 C32.22265625 54.16796875 32.22265625 54.16796875 33.22265625 55.16796875 C33.34720485 56.81027239 33.39834149 58.45849151 33.41015625 60.10546875 C33.42433594 61.00136719 33.43851562 61.89726562 33.453125 62.8203125 C33.22265625 65.16796875 33.22265625 65.16796875 31.22265625 67.16796875 C28.3051649 67.36795199 25.48463696 67.44771762 22.56640625 67.43359375 C21.70833374 67.4355072 20.85026123 67.43742065 19.96618652 67.43939209 C18.15046903 67.44075419 16.3347418 67.43705603 14.51904297 67.42871094 C11.73382775 67.41801166 8.94925757 67.42860528 6.1640625 67.44140625 C4.40234232 67.44008466 2.64062254 67.43752228 0.87890625 67.43359375 C-0.37581482 67.43966644 -0.37581482 67.43966644 -1.65588379 67.44586182 C-7.54742541 67.39788709 -7.54742541 67.39788709 -9.77734375 65.16796875 C-10.02458191 62.50450134 -10.02458191 62.50450134 -10.02026367 59.08178711 C-10.02487862 57.16486305 -10.02487862 57.16486305 -10.02958679 55.20921326 C-10.02268957 53.80874451 -10.01542264 52.40827755 -10.0078125 51.0078125 C-10.00662081 49.5781712 -10.00616751 48.1485291 -10.00642395 46.71888733 C-10.00485884 43.72196557 -9.99656635 40.72516321 -9.9831543 37.72827148 C-9.96614903 33.87887073 -9.96234037 30.02960111 -9.96309948 26.1801672 C-9.96282812 23.22830443 -9.95735274 20.27647057 -9.95009804 17.32461739 C-9.94690701 15.90478293 -9.94494295 14.48494519 -9.94420433 13.06510735 C-9.94204624 11.08497827 -9.93251706 9.10486131 -9.92260742 7.12475586 C-9.91879562 5.99605576 -9.91498383 4.86735565 -9.91105652 3.70445251 C-9.61976058 -1.82132799 -4.35630617 0.00561403 0 0 Z " fill="#F1ECE0" transform="translate(229.77734375,327.83203125)"/>
<path d="M0 0 C0.9343689 -0.00630432 1.86873779 -0.01260864 2.8314209 -0.019104 C4.34862732 -0.01303131 4.34862732 -0.01303131 5.89648438 -0.00683594 C6.93212524 -0.00874939 7.96776611 -0.01066284 9.03479004 -0.01263428 C11.22713463 -0.01399691 13.41948726 -0.01029508 15.61181641 -0.00195312 C18.97642054 0.00874514 22.34049069 -0.00184597 25.70507812 -0.01464844 C27.83138139 -0.01332686 29.95768433 -0.01076449 32.08398438 -0.00683594 C33.09545532 -0.0108844 34.10692627 -0.01493286 35.14904785 -0.019104 C36.08341675 -0.01279968 37.01778564 -0.00649536 37.98046875 0 C39.21718323 0.00238678 39.21718323 0.00238678 40.47888184 0.00482178 C42.49023438 0.25878906 42.49023438 0.25878906 44.49023438 2.25878906 C44.75585938 4.35253906 44.75585938 4.35253906 44.74023438 6.75878906 C44.74796875 7.94988281 44.74796875 7.94988281 44.75585938 9.16503906 C44.49023438 11.25878906 44.49023438 11.25878906 42.49023438 13.25878906 C34.57023437 13.75378906 34.57023437 13.75378906 26.49023438 14.25878906 C26.16023438 31.41878906 25.83023438 48.57878906 25.49023438 66.25878906 C21.20023438 66.25878906 16.91023438 66.25878906 12.49023438 66.25878906 C12.16023438 49.09878906 11.83023438 31.93878906 11.49023438 14.25878906 C5.88023438 13.92878906 0.27023438 13.59878906 -5.50976562 13.25878906 C-7.17537962 11.59317507 -6.68092507 9.59916201 -6.69726562 7.32128906 C-6.71144531 6.42539062 -6.725625 5.52949219 -6.74023438 4.60644531 C-6.30064288 0.12857262 -3.90659977 0.00753949 0 0 Z " fill="#F5EFE3" transform="translate(35.509765625,327.7412109375)"/>
<path d="M0 0 C0.886875 -0.00257813 1.77375 -0.00515625 2.6875 -0.0078125 C5 0.125 5 0.125 7 1.125 C7.04628625 9.43500792 7.0818502 17.74496221 7.10362434 26.05506706 C7.11407343 29.91354797 7.128253 33.77194085 7.15087891 37.63037109 C7.1725674 41.35212192 7.18456014 45.07378794 7.18975449 48.79559708 C7.19345745 50.21741191 7.20068819 51.63922197 7.21146011 53.06100082 C7.22592119 55.04827114 7.22681646 57.03562631 7.22705078 59.02294922 C7.231492 60.15546112 7.23593323 61.28797302 7.24050903 62.45480347 C7 65.125 7 65.125 5 67.125 C2.6875 67.390625 2.6875 67.390625 0 67.375 C-1.3303125 67.38273437 -1.3303125 67.38273437 -2.6875 67.390625 C-5 67.125 -5 67.125 -7 65.125 C-7.24050903 62.45480347 -7.24050903 62.45480347 -7.22705078 59.02294922 C-7.22689972 57.74177216 -7.22674866 56.46059509 -7.22659302 55.14059448 C-7.21637895 53.73695726 -7.20594695 52.3333216 -7.1953125 50.9296875 C-7.19158291 49.49765215 -7.18873569 48.06561425 -7.18673706 46.63357544 C-7.17909627 42.86221283 -7.15944408 39.09100396 -7.1373291 35.31970215 C-7.11688019 31.47227051 -7.1077374 27.62481406 -7.09765625 23.77734375 C-7.0761985 16.22649236 -7.04205732 8.67576771 -7 1.125 C-4.51245214 -0.11877393 -2.77344699 -0.00806235 0 0 Z " fill="#EFEBDF" transform="translate(281,327.875)"/>
<path d="M0 0 C1.98 0 3.96 0 6 0 C7.65 3.96 9.3 7.92 11 12 C12.98 8.04 14.96 4.08 17 0 C18.65 0 20.3 0 22 0 C23 1 23 1 23.11352539 3.04125977 C23.10828857 3.91580811 23.10305176 4.79035645 23.09765625 5.69140625 C23.09443359 6.63564453 23.09121094 7.57988281 23.08789062 8.55273438 C23.07951172 9.54595703 23.07113281 10.53917969 23.0625 11.5625 C23.05798828 12.55958984 23.05347656 13.55667969 23.04882812 14.58398438 C23.03700007 17.05604849 23.02051849 19.52799518 23 22 C21.35 22 19.7 22 18 22 C17.67 18.37 17.34 14.74 17 11 C15.68 13.64 14.36 16.28 13 19 C11.68 18.67 10.36 18.34 9 18 C7.25 14.9375 7.25 14.9375 6 12 C5.67 15.3 5.34 18.6 5 22 C3.35 22 1.7 22 0 22 C0 14.74 0 7.48 0 0 Z " fill="#DBE0D8" transform="translate(56,417)"/>
<path d="M0 0 C11.35091641 -0.4935181 11.35091641 -0.4935181 14.36328125 1.796875 C16.72282688 4.97296984 16.482299 7.14160802 16 11 C14.5 13.4375 14.5 13.4375 13 15 C13.495 15.78375 13.99 16.5675 14.5 17.375 C16 20 16 20 16 22 C14.35 22 12.7 22 11 22 C9.58398438 19.31445312 9.58398438 19.31445312 8.16796875 16.62890625 C7.00980201 14.67732013 7.00980201 14.67732013 4 14 C4 16.64 4 19.28 4 22 C2.68 22 1.36 22 0 22 C0 14.74 0 7.48 0 0 Z " fill="#EBE9E0" transform="translate(247,417)"/>
<path d="M0 0 C5 1 5 1 7.01953125 3.21484375 C7.61121094 4.11332031 8.20289063 5.01179688 8.8125 5.9375 C9.41707031 6.83339844 10.02164062 7.72929687 10.64453125 8.65234375 C12 11 12 11 12 13 C12.66 13 13.32 13 14 13 C14 8.71 14 4.42 14 0 C15.32 0 16.64 0 18 0 C18 7.26 18 14.52 18 22 C12.21745427 20.84349085 11.84150446 20.08832013 8.6875 15.4375 C7.99011719 14.42558594 7.29273438 13.41367187 6.57421875 12.37109375 C6.05472656 11.58863281 5.53523438 10.80617188 5 10 C4.67 13.96 4.34 17.92 4 22 C2.68 22 1.36 22 0 22 C0 14.74 0 7.48 0 0 Z " fill="#E6E6DD" transform="translate(281,417)"/>
<path d="M0 0 C3.0625 2.375 3.0625 2.375 5 5 C5 5.66 5 6.32 5 7 C3.35 7 1.7 7 0 7 C0 6.34 0 5.68 0 5 C-4.66462067 4.64287317 -4.66462067 4.64287317 -9 6.0625 C-10.61647822 9.19442656 -9.78665296 11.67185286 -9 15 C-8.34 15.66 -7.68 16.32 -7 17 C-3.43407381 16.83582968 -3.43407381 16.83582968 0 16 C0.33 15.34 0.66 14.68 1 14 C-0.65 14 -2.3 14 -4 14 C-4 12.68 -4 11.36 -4 10 C-1.03 10 1.94 10 5 10 C5.41271158 14.20965814 5.42484735 16.35587659 3.0625 19.9375 C-0.51461001 22.34657409 -2.60746812 22.74801457 -6.84375 22.47265625 C-10.57418768 21.6549335 -11.94059433 20.15346493 -14 17 C-15.34261837 12.43509753 -15.3804423 9.04621632 -13.75 4.5625 C-10.19108723 -0.64876513 -5.86354526 -1.03715949 0 0 Z " fill="#E4E5DD" transform="translate(320,417)"/>
<path d="M0 0 C1.65 0 3.3 0 5 0 C5 2.97 5 5.94 5 9 C7.97 9 10.94 9 14 9 C14 6.03 14 3.06 14 0 C15.32 0 16.64 0 18 0 C18 7.26 18 14.52 18 22 C16.68 22 15.36 22 14 22 C14 19.03 14 16.06 14 13 C11.03 13 8.06 13 5 13 C5 15.97 5 18.94 5 22 C3.35 22 1.7 22 0 22 C0 14.74 0 7.48 0 0 Z " fill="#DDE1D9" transform="translate(197,417)"/>
<path d="M0 0 C1.65 0 3.3 0 5 0 C6.34554945 2.91118213 7.67424529 5.82975653 9 8.75 C9.3815625 9.575 9.763125 10.4 10.15625 11.25 C10.5171875 12.04921875 10.878125 12.8484375 11.25 13.671875 C11.58515625 14.4050293 11.9203125 15.13818359 12.265625 15.89355469 C13 18 13 18 13 22 C11.35 21.67 9.7 21.34 8 21 C7.67 20.01 7.34 19.02 7 18 C4.03 17.67 1.06 17.34 -2 17 C-2.33 18.65 -2.66 20.3 -3 22 C-4.32 22 -5.64 22 -7 22 C-6.1672519 14.29708009 -2.87491771 7.12928024 0 0 Z " fill="#E3E4DC" transform="translate(228,417)"/>
<path d="M0 0 C2.475 0.495 2.475 0.495 5 1 C5.33 5.95 5.66 10.9 6 16 C7.65 16.33 9.3 16.66 11 17 C13.05922402 14.94077598 12.41427579 10.78291876 12.5625 7.9375 C12.60568359 7.17888672 12.64886719 6.42027344 12.69335938 5.63867188 C12.79973633 3.75934562 12.90039934 1.87969756 13 0 C14.65 0.33 16.3 0.66 18 1 C18.85919657 16.00730004 18.85919657 16.00730004 16 19.9375 C12.7049687 22.20283402 10.95531933 22.67567347 7.0625 22.69921875 C3.64663753 21.54118962 2.16080869 19.86372236 0 17 C-0.58813721 14.03146241 -0.47655747 11.1985855 -0.3125 8.1875 C-0.28994141 7.39923828 -0.26738281 6.61097656 -0.24414062 5.79882812 C-0.18554161 3.86506071 -0.09586827 1.93227833 0 0 Z " fill="#E8E7DD" transform="translate(85,417)"/>
<path d="M0 0 C3.0625 2.375 3.0625 2.375 5 5 C5 5.66 5 6.32 5 7 C4.29875 6.855625 3.5975 6.71125 2.875 6.5625 C1.92625 6.376875 0.9775 6.19125 0 6 C-1.03125 5.7525 -2.0625 5.505 -3.125 5.25 C-5.92844564 4.74297757 -5.92844564 4.74297757 -7.875 6 C-9.58946215 9.04793272 -9.31103534 11.57861129 -9 15 C-8.34 15.66 -7.68 16.32 -7 17 C-2.9422098 16.6171896 1.01514422 15.84527244 5 15 C4.65557106 17.49710982 4.15296001 18.82154665 2.5 20.75 C-1.29371095 22.64685547 -4.84920662 22.82127997 -9 22 C-12 19.5625 -12 19.5625 -14 17 C-14.33 16.67 -14.66 16.34 -15 16 C-15.61400694 11.87294072 -15.91833409 7.79110199 -13.9765625 4.00390625 C-10.11990303 -0.43870977 -5.66023021 -1.42546239 0 0 Z " fill="#E3E4DD" transform="translate(155,417)"/>
<path d="M0 0 C2.5 1.875 2.5 1.875 4 4 C4 4.66 4 5.32 4 6 C0.50765756 6.09978121 -2.59437148 5.77842938 -6 5 C-6 5.99 -6 6.98 -6 8 C-5.36191406 8.20496094 -4.72382812 8.40992188 -4.06640625 8.62109375 C-3.24011719 8.89050781 -2.41382812 9.15992188 -1.5625 9.4375 C-0.73878906 9.70433594 0.08492187 9.97117187 0.93359375 10.24609375 C3 11 3 11 4 12 C4.47057576 18.35277277 4.47057576 18.35277277 2.76171875 20.703125 C-0.46071027 23.07529004 -4.17769839 22.5174596 -8 22 C-10.5625 20.6875 -10.5625 20.6875 -12 19 C-12 18.01 -12 17.02 -12 16 C-10.35 16 -8.7 16 -7 16 C-7 16.66 -7 17.32 -7 18 C-5.02 18 -3.04 18 -1 18 C-1.19580469 16.03122604 -1.19580469 16.03122604 -2 14 C-3.78622672 12.97587857 -3.78622672 12.97587857 -5.9375 12.4375 C-9.44293593 11.41322562 -9.83002062 11.25496907 -12 8 C-11.79874167 5.31655567 -11.29749125 3.50748507 -9.9375 1.1875 C-6.79408004 -0.73911223 -3.52230494 -0.65910334 0 0 Z " fill="#CFD9D1" transform="translate(120,417)"/>
<path d="M0 0 C2.5 1.875 2.5 1.875 4 4 C4 4.66 4 5.32 4 6 C0.50765756 6.09978121 -2.59437148 5.77842938 -6 5 C-6 5.99 -6 6.98 -6 8 C-4.906875 8.28875 -3.81375 8.5775 -2.6875 8.875 C1 10 1 10 4 12 C4.66494615 18.09533972 4.66494615 18.09533972 2.75390625 20.6953125 C-0.02963358 22.76591896 -2.47247063 22.46736247 -5.8359375 22.36328125 C-8 22 -8 22 -10.5625 20.125 C-12 18 -12 18 -12 16 C-10.33388095 15.957279 -8.66617115 15.95936168 -7 16 C-6.67 16.33 -6.34 16.66 -6 17 C-4.33382885 17.04063832 -2.66611905 17.042721 -1 17 C-1.66627512 13.88403088 -1.66627512 13.88403088 -4.06640625 12.83203125 C-5.30197266 12.32736328 -5.30197266 12.32736328 -6.5625 11.8125 C-7.38878906 11.46832031 -8.21507812 11.12414062 -9.06640625 10.76953125 C-9.70449219 10.51558594 -10.34257812 10.26164062 -11 10 C-11.35706695 3.69181722 -11.35706695 3.69181722 -10 1.0625 C-6.76861206 -0.65417484 -3.51846184 -0.65838421 0 0 Z " fill="#D9DFD7" transform="translate(187,417)"/>
<path d="M0 0 C5.41139241 -0.36075949 5.41139241 -0.36075949 7.9375 1.1875 C9 3 9 3 8.6875 5.6875 C8.460625 6.450625 8.23375 7.21375 8 8 C8.66 8.33 9.32 8.66 10 9 C9.67 9.66 9.34 10.32 9 11 C9.96885372 12.68496298 10.96986723 14.35178756 12 16 C12 16.66 12 17.32 12 18 C10.35 18 8.7 18 7 18 C6.30034557 16.73581754 5.61565237 15.46334598 4.9375 14.1875 C4.55464844 13.47980469 4.17179688 12.77210938 3.77734375 12.04296875 C3 10 3 10 4 7 C2.68 7 1.36 7 0 7 C0 4.69 0 2.38 0 0 Z " fill="#DDE2D9" transform="translate(251,421)"/>
<path d="M0 0 C1.65 0 3.3 0 5 0 C5.67119549 1.4562545 6.33681807 2.91507867 7 4.375 C7.556875 5.59316406 7.556875 5.59316406 8.125 6.8359375 C9 9 9 9 9 11 C7.875 12.625 7.875 12.625 6 14 C2.8125 14.1875 2.8125 14.1875 0 14 C0.33 11.36 0.66 8.72 1 6 C0.01 6.33 -0.98 6.66 -2 7 C-1.34 4.69 -0.68 2.38 0 0 Z " fill="#E0E2D9" transform="translate(228,417)"/>
<path d="M0 0 C3.0625 2.375 3.0625 2.375 5 5 C5 5.66 5 6.32 5 7 C4.29875 6.855625 3.5975 6.71125 2.875 6.5625 C1.92625 6.376875 0.9775 6.19125 0 6 C-1.010625 5.7525 -2.02125 5.505 -3.0625 5.25 C-6.65988246 4.94383979 -7.28470826 5.82776661 -10 8 C-11.32 7.67 -12.64 7.34 -14 7 C-14 9.97 -14 12.94 -14 16 C-14.33 16 -14.66 16 -15 16 C-15.88245238 7.73109433 -15.88245238 7.73109433 -13.98046875 4 C-10.11227066 -0.43297632 -5.66477929 -1.42660802 0 0 Z " fill="#C9D4CF" transform="translate(155,417)"/>
<path d="M0 0 C1.32 0 2.64 0 4 0 C4 7.26 4 14.52 4 22 C2.68 22 1.36 22 0 22 C0 14.74 0 7.48 0 0 Z " fill="#E4E4DC" transform="translate(270,417)"/>
<path d="M0 0 C1.32 0 2.64 0 4 0 C4 7.26 4 14.52 4 22 C2.68 22 1.36 22 0 22 C0 14.74 0 7.48 0 0 Z " fill="#EDEEE5" transform="translate(130,417)"/>
<path d="M0 0 C2.475 0.495 2.475 0.495 5 1 C5 5.95 5 10.9 5 16 C4.34 16.33 3.68 16.66 3 17 C3 16.01 3 15.02 3 14 C2.01 14.33 1.02 14.66 0 15 C0 10.05 0 5.1 0 0 Z " fill="#CDD7D0" transform="translate(98,417)"/>
<path d="M0 0 C0.33 0 0.66 0 1 0 C1.125 3.375 1.125 3.375 1 7 C-1.40450178 9.40450178 -2.08233942 9.29609139 -5.375 9.3125 C-8.37734704 9.24481424 -9.84915236 9.07726342 -12.5625 7.6875 C-14 6 -14 6 -14 3 C-12.35 3 -10.7 3 -9 3 C-9 3.66 -9 4.32 -9 5 C-6.02934491 4.65772428 -6.02934491 4.65772428 -3 4 C-2.67 3.34 -2.34 2.68 -2 2 C-1.34 2 -0.68 2 0 2 C0 1.34 0 0.68 0 0 Z " fill="#EFEBE0" transform="translate(122,430)"/>
<path d="M0 0 C0.66 0 1.32 0 2 0 C2.75 1.75 2.75 1.75 3 4 C1.5625 6.25 1.5625 6.25 -1 8 C-3.75904254 8.33634042 -6.20306377 8.18646242 -9 8 C-9 7.01 -9 6.02 -9 5 C-7.02 5 -5.04 5 -3 5 C-2.690625 4.360625 -2.38125 3.72125 -2.0625 3.0625 C-1 1 -1 1 0 0 Z " fill="#EBE9DF" transform="translate(99,431)"/>
<path d="M0 0 C0.66 0 1.32 0 2 0 C2.226875 0.94875 2.45375 1.8975 2.6875 2.875 C3.69083714 6.19323388 3.69083714 6.19323388 6.625 7.375 C7.40875 7.58125 8.1925 7.7875 9 8 C9 8.66 9 9.32 9 10 C2.375 10.25 2.375 10.25 -1 8 C-1.25 4.4375 -1.25 4.4375 -1 1 C-0.67 0.67 -0.34 0.34 0 0 Z " fill="#EAE9E0" transform="translate(177,419)"/>
<path d="M0 0 C1.6026782 -0.10824843 3.20745748 -0.18570645 4.8125 -0.25 C5.70582031 -0.29640625 6.59914062 -0.3428125 7.51953125 -0.390625 C10 0 10 0 11.82421875 1.890625 C13 4 13 4 13 6 C8.39146203 5.27991594 4.32762591 3.68704061 0 2 C0 1.34 0 0.68 0 0 Z " fill="#EAE9E0" transform="translate(147,418)"/>
<path d="M0 0 C0.33 0 0.66 0 1 0 C1.33 4.95 1.66 9.9 2 15 C4.475 15.99 4.475 15.99 7 17 C7 17.33 7 17.66 7 18 C5.02 18 3.04 18 1 18 C1 18.66 1 19.32 1 20 C-0.32 19.34 -1.64 18.68 -3 18 C-2.68289062 17.31550781 -2.36578125 16.63101562 -2.0390625 15.92578125 C-0.85883043 12.60249621 -0.58802755 9.70245465 -0.375 6.1875 C-0.30023438 5.02605469 -0.22546875 3.86460937 -0.1484375 2.66796875 C-0.09945312 1.78753906 -0.05046875 0.90710938 0 0 Z " fill="#C8D3CE" transform="translate(89,418)"/>
<path d="M0 0 C1.99954746 -0.04254356 4.00041636 -0.04080783 6 0 C7 1 7 1 7.0625 3.5625 C7.041875 4.366875 7.02125 5.17125 7 6 C4.69 6 2.38 6 0 6 C0 4.02 0 2.04 0 0 Z " fill="#2D6D72" transform="translate(251,421)"/>
<path d="M0 0 C7.98992213 -0.7833257 7.98992213 -0.7833257 12.0625 2.375 C14 5 14 5 14 7 C12.35 7 10.7 7 9 7 C9 6.34 9 5.68 9 5 C8.01 4.67 7.02 4.34 6 4 C6.33 3.34 6.66 2.68 7 2 C4.69 1.67 2.38 1.34 0 1 C0 0.67 0 0.34 0 0 Z " fill="#CED9D4" transform="translate(311,417)"/>
<path d="M0 0 C7.4659249 -0.36717663 7.4659249 -0.36717663 10 1.375 C11 3 11 3 11 5 C6.66831683 5.26252625 3.1196377 4.29243536 -1 3 C-0.67 2.01 -0.34 1.02 0 0 Z " fill="#E3E4DB" transform="translate(113,418)"/>
<path d="M0 0 C0.33 0.66 0.66 1.32 1 2 C-4.16205691 8.27309565 -9.87372593 13.6749489 -16 19 C-16.66 18.67 -17.32 18.34 -18 18 C-17.11957031 17.20335937 -16.23914063 16.40671875 -15.33203125 15.5859375 C-14.15866744 14.51582971 -12.98550085 13.44550563 -11.8125 12.375 C-10.9452832 11.59189453 -10.9452832 11.59189453 -10.06054688 10.79296875 C-6.36713674 7.41255947 -3.12194457 3.91565929 0 0 Z " fill="#395F69" transform="translate(279,230)"/>
<path d="M0 0 C2.625 0.9375 2.625 0.9375 5 2 C5 3.32 5 4.64 5 6 C0.91281305 6.24042276 -2.17679443 5.42258812 -6 4 C-4.03617993 2.49440461 -2.21736634 1.10868317 0 0 Z " fill="#296B71" transform="translate(181,429)"/>
<path d="M0 0 C3.37462715 0.54723683 5.08235 1.0549 8 3 C8.1875 6.625 8.1875 6.625 8 10 C7.34 8.68 6.68 7.36 6 6 C5.34 6 4.68 6 4 6 C3.67 6.66 3.34 7.32 3 8 C2.67 7.01 2.34 6.02 2 5 C-0.00016466 3.79117904 -0.00016466 3.79117904 -2 3 C-1.34 2.67 -0.68 2.34 0 2 C0 1.34 0 0.68 0 0 Z " fill="#C8D3CD" transform="translate(116,426)"/>
<path d="M0 0 C1.65 0 3.3 0 5 0 C5 0.66 5 1.32 5 2 C6.65 2 8.3 2 10 2 C10 2.33 10 2.66 10 3 C8.35 3.33 6.7 3.66 5 4 C7.64 4.33 10.28 4.66 13 5 C13 5.33 13 5.66 13 6 C4.91111111 6.46666667 4.91111111 6.46666667 1.4375 4.6875 C0 3 0 3 0 0 Z " fill="#CED9D3" transform="translate(108,433)"/>
<path d="M0 0 C1.98 0.66 3.96 1.32 6 2 C6 3.32 6 4.64 6 6 C4.02 6 2.04 6 0 6 C0 5.34 0 4.68 0 4 C-1.65 4 -3.3 4 -5 4 C-5 3.67 -5 3.34 -5 3 C-3.35 3 -1.7 3 0 3 C0 2.01 0 1.02 0 0 Z " fill="#28696E" transform="translate(113,429)"/>
<path d="M0 0 C3.36241563 0.45438049 6.04009971 1.35561095 9 3 C8.01 3 7.02 3 6 3 C6 3.66 6 4.32 6 5 C4.02 5 2.04 5 0 5 C-0.5625 3.0625 -0.5625 3.0625 -1 1 C-0.67 0.67 -0.34 0.34 0 0 Z " fill="#316E73" transform="translate(114,421)"/>
<path d="M0 0 C0.33 0 0.66 0 1 0 C1.25009147 2.87454534 1.4755982 5.7475966 1.6875 8.625 C1.76033203 9.43324219 1.83316406 10.24148437 1.90820312 11.07421875 C2.26609679 16.25315055 1.85855716 19.45864183 -1 24 C-1.95139197 20.89315935 -2.01111621 18.45494879 -1.66015625 15.234375 C-1.56669922 14.34492188 -1.47324219 13.45546875 -1.37695312 12.5390625 C-1.27318359 11.61867187 -1.16941406 10.69828125 -1.0625 9.75 C-0.96259766 8.81414062 -0.86269531 7.87828125 -0.75976562 6.9140625 C-0.51275436 4.60862401 -0.25928885 2.30408452 0 0 Z " fill="#AF4A73" transform="translate(260,157)"/>
<path d="M0 0 C0.99 1.32 1.98 2.64 3 4 C2.67 4.66 2.34 5.32 2 6 C1.01 6.33 0.02 6.66 -1 7 C-1.33 10.3 -1.66 13.6 -2 17 C-2.33 17 -2.66 17 -3 17 C-3 12.71 -3 8.42 -3 4 C-2.34 4 -1.68 4 -1 4 C-0.67 2.68 -0.34 1.36 0 0 Z " fill="#B9CBC5" transform="translate(63,422)"/>
<path d="M0 0 C3.34373475 0.55728913 6.03312999 1.35173889 9 3 C5.21812119 4.83691257 3.05431692 5.15837626 -1 4 C-0.67 2.68 -0.34 1.36 0 0 Z " fill="#347178" transform="translate(181,421)"/>
<path d="M0 0 C0.66 0.33 1.32 0.66 2 1 C-1.3 4.3 -4.6 7.6 -8 11 C-8.66 10.67 -9.32 10.34 -10 10 C-6.92118304 6.12948725 -3.99926986 2.97088618 0 0 Z " fill="#D2DBD6" transform="translate(75,33)"/>
<path d="M0 0 C4.875 4.75 4.875 4.75 6 7 C4.68 6.67 3.36 6.34 2 6 C1.67 7.98 1.34 9.96 1 12 C0.67 12 0.34 12 0 12 C0 8.04 0 4.08 0 0 Z " fill="#427477" transform="translate(285,426)"/>
<path d="M0 0 C0.66 0.33 1.32 0.66 2 1 C0.80100302 4.0831351 -0.47700477 7.06279492 -2 10 C-1.34 10 -0.68 10 0 10 C-0.33 10.66 -0.66 11.32 -1 12 C-1.66 11.67 -2.32 11.34 -3 11 C-3.36923077 3.49230769 -3.36923077 3.49230769 -1.5 1 C-1.005 0.67 -0.51 0.34 0 0 Z " fill="#B84974" transform="translate(193,231)"/>
<path d="M0 0 C0.66 0 1.32 0 2 0 C2.33 2.31 2.66 4.62 3 7 C1.35 7 -0.3 7 -2 7 C-1.34 4.69 -0.68 2.38 0 0 Z " fill="#386F74" transform="translate(230,424)"/>
<path d="M0 0 C0.66 0.33 1.32 0.66 2 1 C1.37240135 3.92879371 0.41377341 6.36095629 -1 9 C-1.33 9 -1.66 9 -2 9 C-2 6.36 -2 3.72 -2 1 C-1.34 0.67 -0.68 0.34 0 0 Z " fill="#F3EEE4" transform="translate(143,423)"/>
<path d="M0 0 C0 3 0 3 -2.125 5.625 C-5.25090158 8.20726652 -7.01781501 8.72217314 -11 9 C-9.60334979 6.20669958 -7.37665906 5.47460055 -4.72265625 4.01953125 C-2.84186334 2.90640891 -1.41531706 1.6650789 0 0 Z " fill="#3C7579" transform="translate(310,281)"/>
<path d="M0 0 C0.33 1.32 0.66 2.64 1 4 C-1.375 4.1875 -1.375 4.1875 -4 4 C-4.66 3.01 -5.32 2.02 -6 1 C-3 0 -3 0 0 0 Z " fill="#D2DBD6" transform="translate(190,419)"/>
<path d="M0 0 C-0.969375 0.28875 -1.93875 0.5775 -2.9375 0.875 C-6.10664203 1.64214682 -6.10664203 1.64214682 -7 4 C-7.66 4 -8.32 4 -9 4 C-9 3.34 -9 2.68 -9 2 C-10.32 1.67 -11.64 1.34 -13 1 C-11.20994059 0.63779734 -9.41787943 0.28547531 -7.625 -0.0625 C-6.12839844 -0.35833984 -6.12839844 -0.35833984 -4.6015625 -0.66015625 C-2 -1 -2 -1 0 0 Z " fill="#AE4972" transform="translate(212,229)"/>
<path d="M0 0 C1.45792884 -0.05399736 2.91642712 -0.09279177 4.375 -0.125 C5.18710937 -0.14820313 5.99921875 -0.17140625 6.8359375 -0.1953125 C9 0 9 0 11 2 C10.34 2 9.68 2 9 2 C8.67 2.99 8.34 3.98 8 5 C7.34 4.34 6.68 3.68 6 3 C6.33 2.67 6.66 2.34 7 2 C4.69 1.67 2.38 1.34 0 1 C0 0.67 0 0.34 0 0 Z " fill="#C6D3CE" transform="translate(311,417)"/>
<path d="M0 0 C1.32 0 2.64 0 4 0 C4 0.66 4 1.32 4 2 C5.32 2.33 6.64 2.66 8 3 C5.36 3 2.72 3 0 3 C0 2.01 0 1.02 0 0 Z " fill="#EFEBE1" transform="translate(112,426)"/>
</svg>
