<?xml version="1.0" encoding="UTF-8"?>
<svg version="1.1" xmlns="http://www.w3.org/2000/svg" width="210" height="209">
<path d="M0 0 C2.37885075 -0.00015523 4.75770175 -0.00164822 7.1365509 -0.00440979 C12.10148413 -0.00578827 17.06612654 0.00667477 22.03100586 0.02954102 C28.3757927 0.05797013 34.72009868 0.05516803 41.06492138 0.0424509 C45.96958991 0.03547831 50.8741484 0.04330036 55.77880287 0.05570793 C58.11783742 0.06020376 60.45688386 0.06057569 62.79591942 0.05664253 C66.0688619 0.05371361 69.3411537 0.07031641 72.61401367 0.09204102 C74.0442688 0.08528854 74.0442688 0.08528854 75.50341797 0.07839966 C85.60112655 0.18907289 94.78423927 2.72012161 102.45703125 9.49609375 C110.45182088 18.6241254 112.91531333 27.62413232 112.86108398 39.54858398 C112.86794724 40.61648163 112.87481049 41.68437927 112.88188171 42.78463745 C112.900084 46.29145859 112.89632154 49.79782956 112.890625 53.3046875 C112.89518982 55.75651697 112.90049628 58.20834516 112.9065094 60.66017151 C112.91542754 65.79018361 112.91303187 70.92003992 112.90307617 76.05004883 C112.89158634 82.60799591 112.91180558 89.16540453 112.94099331 95.72328091 C112.95938194 100.78407682 112.95905751 105.84474431 112.95335579 110.90556526 C112.95320291 113.32276223 112.95921922 115.73996808 112.97164726 118.1571331 C112.98660583 121.54316403 112.9758435 124.92820791 112.95874023 128.31420898 C112.97324219 129.7959687 112.97324219 129.7959687 112.98803711 131.30766296 C112.8884477 140.77339933 109.62562143 150.17876101 103.45703125 157.49609375 C94.71161619 165.14833193 84.63132926 166.95192743 73.32275391 166.90014648 C72.25792282 166.90700974 71.19309174 166.91387299 70.09599304 166.92094421 C66.60422117 166.93912455 63.11290242 166.93538687 59.62109375 166.9296875 C57.17548478 166.93425368 54.72987709 166.93956055 52.28427124 166.9455719 C47.16862767 166.95448599 42.05314035 166.95209938 36.9375 166.94213867 C30.40556085 166.93065506 23.8741628 166.95086066 17.34229469 166.98005581 C12.29428726 166.99846686 7.24640831 166.99811547 2.1983757 166.99241829 C-0.208795 166.99226566 -2.61597473 166.99826161 -5.02311325 167.01070976 C-34.88155653 167.1433733 -34.88155653 167.1433733 -44.86328125 157.41015625 C-52.60723605 148.58564962 -55.00332284 139.16891086 -54.93115234 127.62719727 C-54.93903778 126.05461151 -54.93903778 126.05461151 -54.94708252 124.45025635 C-54.96021194 121.00834957 -54.95156858 117.56691093 -54.94140625 114.125 C-54.94342916 111.7180116 -54.9463424 109.31102379 -54.95010376 106.90403748 C-54.9545177 101.8681757 -54.94812641 96.83247397 -54.93408203 91.79663086 C-54.91700019 85.35982535 -54.92683125 78.92339544 -54.94479942 72.48660374 C-54.95567014 67.51846009 -54.95217565 62.55040461 -54.94441605 57.58225822 C-54.94242266 55.20972588 -54.94484287 52.83718538 -54.95185471 50.46466255 C-54.9595222 47.14102275 -54.94779008 43.81798038 -54.93115234 40.49438477 C-54.93722504 39.52524643 -54.94329773 38.55610809 -54.94955444 37.55760193 C-54.8481959 26.55983822 -51.97280679 18.59430634 -44.54296875 10.49609375 C-44.02992187 9.91730469 -43.516875 9.33851562 -42.98828125 8.7421875 C-31.96912118 -2.19474003 -14.18417823 -0.07564793 0 0 Z " fill="#201F6C" transform="translate(82.54296875,19.50390625)"/>
<path d="M0 0 C1.03849091 -0.00511093 2.07698181 -0.01022186 3.14694214 -0.01548767 C6.56172535 -0.02932713 9.97630545 -0.0284311 13.39111328 -0.02612305 C15.77711054 -0.03001311 18.1631071 -0.03434842 20.54910278 -0.03910828 C25.54382576 -0.04655839 30.53847803 -0.04628797 35.53320312 -0.04101562 C41.9173332 -0.03522314 48.30117295 -0.05215285 54.68525505 -0.0753603 C59.61135536 -0.09012924 64.53738626 -0.09096501 69.46350479 -0.08785057 C71.81650492 -0.08836221 74.1695091 -0.09357016 76.52248764 -0.10366249 C79.81986833 -0.11607047 83.11669001 -0.1092087 86.4140625 -0.09765625 C87.37542114 -0.10529999 88.33677979 -0.11294373 89.32727051 -0.12081909 C99.11092202 -0.04548202 109.12808921 2.23944762 116.33642578 9.2746582 C118.40160852 13.30409369 118.62285348 16.95456519 117.33642578 21.2746582 C118.65642578 21.6046582 119.97642578 21.9346582 121.33642578 22.2746582 C121.33642578 22.9346582 121.33642578 23.5946582 121.33642578 24.2746582 C122.32642578 24.6046582 123.31642578 24.9346582 124.33642578 25.2746582 C124.36152093 30.26936495 124.37946854 35.26403339 124.39135742 40.25878906 C124.39632418 41.95085287 124.40309986 43.64291254 124.41186523 45.33496094 C124.56059061 74.82632854 124.56059061 74.82632854 122.33642578 79.2746582 C121.67642578 79.2746582 121.01642578 79.2746582 120.33642578 79.2746582 C120.66642578 80.9246582 120.99642578 82.5746582 121.33642578 84.2746582 C120.01642578 84.2746582 118.69642578 84.2746582 117.33642578 84.2746582 C117.00642578 83.2846582 116.67642578 82.2946582 116.33642578 81.2746582 C115.34642578 83.2546582 115.34642578 83.2546582 114.33642578 85.2746582 C113.67642578 85.2746582 113.01642578 85.2746582 112.33642578 85.2746582 C112.28744141 84.42000977 112.23845703 83.56536133 112.18798828 82.68481445 C112.11322266 81.58008789 112.03845703 80.47536133 111.96142578 79.3371582 C111.89181641 78.23500977 111.82220703 77.13286133 111.75048828 75.99731445 C111.61384766 75.09883789 111.47720703 74.20036133 111.33642578 73.2746582 C110.67642578 72.9446582 110.01642578 72.6146582 109.33642578 72.2746582 C109.33642578 78.5446582 109.33642578 84.8146582 109.33642578 91.2746582 C108.01642578 91.6046582 106.69642578 91.9346582 105.33642578 92.2746582 C105.00642578 86.0046582 104.67642578 79.7346582 104.33642578 73.2746582 C104.00642578 82.8446582 103.67642578 92.4146582 103.33642578 102.2746582 C102.34642578 102.6046582 101.35642578 102.9346582 100.33642578 103.2746582 C98.1786282 101.11686062 99.07616284 96.20745783 99.02001953 93.20825195 C99.00136841 92.40327271 98.98271729 91.59829346 98.96350098 90.7689209 C98.89499171 87.75011599 98.83497837 84.73112312 98.77392578 81.7121582 C98.55736328 71.5955957 98.55736328 71.5955957 98.33642578 61.2746582 C98.00642578 79.4246582 97.67642578 97.5746582 97.33642578 116.2746582 C96.01642578 116.2746582 94.69642578 116.2746582 93.33642578 116.2746582 C93.00642578 97.1346582 92.67642578 77.9946582 92.33642578 58.2746582 C91.01642578 58.9346582 89.69642578 59.5946582 88.33642578 60.2746582 C88.8253833 61.00217285 88.8253833 61.00217285 89.32421875 61.74438477 C90.77684312 65.37559532 90.5821164 68.90994861 90.53173828 72.7590332 C90.52890839 73.57462708 90.52607849 74.39022095 90.52316284 75.23052979 C90.51199136 77.82872348 90.48689253 80.42656915 90.46142578 83.0246582 C90.45139205 84.78897613 90.44226689 86.55329948 90.43408203 88.31762695 C90.41206197 92.63677093 90.37755311 96.95565561 90.33642578 101.2746582 C88.35642578 100.7796582 88.35642578 100.7796582 86.33642578 100.2746582 C86.00642578 88.3946582 85.67642578 76.5146582 85.33642578 64.2746582 C83.78851683 77.66571921 83.78851683 77.66571921 85.33642578 84.2746582 C83.68642578 84.2746582 82.03642578 84.2746582 80.33642578 84.2746582 C80.34428101 83.22846313 80.34428101 83.22846313 80.35229492 82.16113281 C80.37372901 78.84481804 80.38628859 75.52851778 80.39892578 72.2121582 C80.41149414 70.56957031 80.41149414 70.56957031 80.42431641 68.89379883 C80.45686733 57.33822006 79.89549908 45.81434069 79.33642578 34.2746582 C79.32762642 35.58891281 79.32762642 35.58891281 79.31864929 36.92971802 C79.26067598 45.19850094 79.18857262 53.46701509 79.10071087 61.73553658 C79.05603857 65.98618793 79.01677565 70.23674414 78.98999023 74.48754883 C78.96392573 78.59205472 78.9235014 82.69619386 78.87323952 86.80047226 C78.85659201 88.36405744 78.84506456 89.92770604 78.83881187 91.49136734 C78.8291474 93.68660923 78.80106222 95.88091732 78.76879883 98.07592773 C78.75769577 99.32391144 78.74659271 100.57189514 78.7351532 101.85769653 C78.14366885 106.92652116 76.55406536 110.17581273 72.77392578 113.5871582 C67.58082824 117.18237958 62.516843 116.84826555 56.33642578 116.2746582 C52.35432498 114.45826135 50.83378444 113.03727482 48.46142578 109.3996582 C47.22544798 105.96638654 46.80967605 103.88665633 47.33642578 100.2746582 C49.99477469 95.35178986 53.30211796 91.79181211 58.33642578 89.2746582 C59.9371803 89.15283087 61.54358715 89.09919223 63.14892578 89.0871582 C64.00099609 89.07297852 64.85306641 89.05879883 65.73095703 89.04418945 C68.33642578 89.2746582 68.33642578 89.2746582 73.33642578 91.2746582 C73.33642578 79.3946582 73.33642578 67.5146582 73.33642578 55.2746582 C54.26277138 60.32017808 54.26277138 60.32017808 35.3269043 65.8515625 C32.53527624 66.70024912 30.27638792 67.2746582 27.33642578 67.2746582 C27.34641853 68.20973961 27.34641853 68.20973961 27.35661316 69.16371155 C27.42313363 75.66898425 27.46829577 82.17415985 27.5012207 88.6796875 C27.51627987 91.10550869 27.53673141 93.53130279 27.56274414 95.95703125 C27.59925281 99.44969382 27.61618131 102.94199545 27.62939453 106.43481445 C27.64487839 107.5142482 27.66036224 108.59368195 27.67631531 109.70582581 C27.67798119 117.20861904 26.90702487 122.14825391 22.02392578 128.0871582 C17.8108633 131.51639511 14.2645693 132.51151174 8.89892578 132.2746582 C3.87248492 131.57725016 0.55748765 129.12842865 -2.66357422 125.2746582 C-4.13916631 120.84788194 -4.63521893 116.53192889 -2.76904297 112.1965332 C-1.80180368 110.51497232 -0.73963525 108.88874975 0.33642578 107.2746582 C-0.47850342 106.2961792 -1.29343262 105.3177002 -2.13305664 104.30957031 C-5.13417913 100.08894198 -5.3256968 96.77727242 -5.15185547 91.71606445 C-5.14478073 90.92691147 -5.13770599 90.13775848 -5.13041687 89.32469177 C-5.10264127 86.82784323 -5.03994235 84.33331765 -4.97607422 81.8371582 C-4.95096924 80.13471686 -4.92815994 78.43224001 -4.90771484 76.72973633 C-4.85287093 72.57716168 -4.76672263 68.42630242 -4.66357422 64.2746582 C-3.34357422 64.2746582 -2.02357422 64.2746582 -0.66357422 64.2746582 C-0.16857422 76.1546582 -0.16857422 76.1546582 0.33642578 88.2746582 C0.66642578 85.9646582 0.99642578 83.6546582 1.33642578 81.2746582 C2.65642578 81.2746582 3.97642578 81.2746582 5.33642578 81.2746582 C5.33642578 82.9246582 5.33642578 84.5746582 5.33642578 86.2746582 C5.66642578 86.2746582 5.99642578 86.2746582 6.33642578 86.2746582 C6.66642578 83.6346582 6.99642578 80.9946582 7.33642578 78.2746582 C9.81142578 77.7796582 9.81142578 77.7796582 12.33642578 77.2746582 C12.33642578 81.5646582 12.33642578 85.8546582 12.33642578 90.2746582 C12.66642578 81.6946582 12.99642578 73.1146582 13.33642578 64.2746582 C14.65642578 64.2746582 15.97642578 64.2746582 17.33642578 64.2746582 C17.5346895 69.02498061 17.67956679 73.77288252 17.77587891 78.52636719 C17.81603158 80.14170279 17.87057056 81.75674899 17.93994141 83.37109375 C18.50165486 96.78200244 18.50165486 96.78200244 15.64306641 100.44384766 C11.84416876 102.88555848 7.84668606 103.93638868 3.33642578 104.2746582 C4.32642578 104.7696582 4.32642578 104.7696582 5.33642578 105.2746582 C5.99642578 104.9446582 6.65642578 104.6146582 7.33642578 104.2746582 C8.9371803 104.15283087 10.54358715 104.09919223 12.14892578 104.0871582 C13.00099609 104.07297852 13.85306641 104.05879883 14.73095703 104.04418945 C17.33642578 104.2746582 17.33642578 104.2746582 22.33642578 106.2746582 C22.33642578 87.4646582 22.33642578 68.6546582 22.33642578 49.2746582 C47.41463555 41.29522782 47.41463555 41.29522782 58.14892578 38.3996582 C60.28124794 37.82191673 62.41280918 37.2413566 64.54345703 36.6574707 C65.44555908 36.41399902 66.34766113 36.17052734 67.27709961 35.91967773 C69.3070325 35.45852714 69.3070325 35.45852714 70.33642578 34.2746582 C69.01642578 34.2746582 67.69642578 34.2746582 66.33642578 34.2746582 C66.33642578 33.2846582 66.33642578 32.2946582 66.33642578 31.2746582 C65.75634766 31.46801758 65.17626953 31.66137695 64.57861328 31.8605957 C61.95231582 32.3455914 60.87847964 31.95772596 58.46142578 30.8996582 C46.73283099 25.81884993 33.8715217 27.7820419 22.33642578 32.2746582 C19.58217689 33.5024559 16.98262978 34.82184032 14.33642578 36.2746582 C14.83142578 36.8727832 15.32642578 37.4709082 15.83642578 38.0871582 C17.33642578 40.2746582 17.33642578 40.2746582 17.33642578 43.2746582 C16.77656982 43.36030029 16.21671387 43.44594238 15.63989258 43.53417969 C13.1008137 43.92413881 10.56237211 44.31810336 8.02392578 44.7121582 C7.14285156 44.84686523 6.26177734 44.98157227 5.35400391 45.12036133 C4.50644531 45.25249023 3.65888672 45.38461914 2.78564453 45.52075195 C2.00535889 45.64119873 1.22507324 45.76164551 0.42114258 45.88574219 C-1.84637219 46.25954432 -1.84637219 46.25954432 -4.66357422 47.2746582 C-6.08595814 50.11942605 -5.82781979 52.56338709 -5.86889648 55.74389648 C-5.87879608 56.40743134 -5.88869568 57.07096619 -5.89889526 57.75460815 C-5.93052338 59.95135917 -5.95527276 62.14813183 -5.97998047 64.3449707 C-6.00054887 65.86669482 -6.02154532 67.3884132 -6.04295349 68.91012573 C-6.09818593 72.9181047 -6.14759 76.92613534 -6.19580078 80.9342041 C-6.24600727 85.02299607 -6.30169777 89.11171288 -6.35693359 93.20043945 C-6.4645295 101.22511552 -6.56597126 109.2498544 -6.66357422 117.2746582 C-7.98357422 116.9446582 -9.30357422 116.6146582 -10.66357422 116.2746582 C-10.99357422 102.7446582 -11.32357422 89.2146582 -11.66357422 75.2746582 C-11.99357422 84.1846582 -12.32357422 93.0946582 -12.66357422 102.2746582 C-15.13857422 102.7696582 -15.13857422 102.7696582 -17.66357422 103.2746582 C-17.66357422 92.7146582 -17.66357422 82.1546582 -17.66357422 71.2746582 C-18.32357422 71.2746582 -18.98357422 71.2746582 -19.66357422 71.2746582 C-19.66357422 78.2046582 -19.66357422 85.1346582 -19.66357422 92.2746582 C-20.98357422 92.2746582 -22.30357422 92.2746582 -23.66357422 92.2746582 C-23.66357422 85.6746582 -23.66357422 79.0746582 -23.66357422 72.2746582 C-25.88718102 75.97651581 -25.88718102 75.97651581 -25.66357422 79.2746582 C-25.66357422 80.94132487 -25.66357422 82.60799154 -25.66357422 84.2746582 C-26.98357422 84.2746582 -28.30357422 84.2746582 -29.66357422 84.2746582 C-32.39576615 86.19324987 -32.39576615 86.19324987 -34.66357422 88.2746582 C-34.66357422 85.9646582 -34.66357422 83.6546582 -34.66357422 81.2746582 C-33.67357422 81.2746582 -32.68357422 81.2746582 -31.66357422 81.2746582 C-32.28232422 80.6971582 -32.90107422 80.1196582 -33.53857422 79.5246582 C-37.48442975 75.34669353 -37.88868833 72.42967049 -37.72607422 66.7121582 C-37.58404254 61.90698477 -37.58404254 61.90698477 -38.66357422 57.2746582 C-38.74736049 54.9908065 -38.77087337 52.7045572 -38.76123047 50.41918945 C-38.75981552 49.75755295 -38.75840057 49.09591644 -38.75694275 48.41423035 C-38.75135418 46.30515993 -38.73880387 44.19619643 -38.72607422 42.0871582 C-38.72105774 40.65551911 -38.71649509 39.22387836 -38.71240234 37.79223633 C-38.70138852 34.28634232 -38.68413177 30.7805107 -38.66357422 27.2746582 C-38.33357422 27.2746582 -38.00357422 27.2746582 -37.66357422 27.2746582 C-37.47794922 26.1402832 -37.29232422 25.0059082 -37.10107422 23.8371582 C-35.77220737 18.41499345 -32.53633636 14.22049132 -28.66357422 10.2746582 C-28.00357422 10.2746582 -27.34357422 10.2746582 -26.66357422 10.2746582 C-26.33357422 9.2846582 -26.00357422 8.2946582 -25.66357422 7.2746582 C-23.68357422 6.9446582 -21.70357422 6.6146582 -19.66357422 6.2746582 C-19.33357422 4.9546582 -19.00357422 3.6346582 -18.66357422 2.2746582 C-12.31894116 0.4040506 -6.59429993 -0.01692222 0 0 Z " fill="#274F85" transform="translate(68.66357421875,19.725341796875)"/>
<path d="M0 0 C0.33 0 0.66 0 1 0 C1.60040724 12.62292339 2.10061841 25.23619557 2.125 37.875 C2.12951172 38.84832275 2.13402344 39.82164551 2.13867188 40.82446289 C2.13673828 41.72543701 2.13480469 42.62641113 2.1328125 43.5546875 C2.13168457 44.34343262 2.13055664 45.13217773 2.12939453 45.94482422 C2 48 2 48 1 51 C2.65 51 4.3 51 6 51 C5.66226563 50.17242187 5.32453125 49.34484375 4.9765625 48.4921875 C3.87028451 44.53613741 3.98488749 41.15096114 4.375 37.125 C4.46007812 36.09246094 4.46007812 36.09246094 4.546875 35.0390625 C4.68692828 33.35842311 4.84192245 31.67903995 5 30 C5.66 30.33 6.32 30.66 7 31 C7.495 48.82 7.495 48.82 8 67 C9.485 67.495 9.485 67.495 11 68 C10.90659302 62.76693114 10.80052891 57.534332 10.68261719 52.30175781 C10.64428435 50.52090527 10.60943911 48.73997416 10.578125 46.95898438 C10.53256729 44.40205766 10.47455893 41.8456739 10.4140625 39.2890625 C10.40251129 38.49005524 10.39096008 37.69104797 10.37905884 36.86782837 C10.42741056 32.46542788 10.42741056 32.46542788 8 29 C8.33 28.34 8.66 27.68 9 27 C9.66 27 10.32 27 11 27 C11.66 25.68 12.32 24.36 13 23 C14.30833663 25.61667325 14.15345736 27.58917508 14.18945312 30.51953125 C14.20617065 31.67412842 14.22288818 32.82872559 14.2401123 34.01831055 C14.25368774 35.27039307 14.26726318 36.52247559 14.28125 37.8125 C14.30937202 39.76750341 14.33749929 41.72250675 14.36594391 43.67750549 C14.42457358 47.81581843 14.47452204 51.95424528 14.52606201 56.09265137 C14.56880894 59.49825664 14.61341471 62.90381251 14.66296387 66.30932617 C14.69975106 68.86672009 14.73215845 71.42418128 14.7598877 73.98168945 C14.77660522 75.13628662 14.79332275 76.29088379 14.81054688 77.48046875 C14.82307495 78.50035889 14.83560303 79.52024902 14.84851074 80.57104492 C14.84180275 83.00916451 14.84180275 83.00916451 16 85 C15.195625 84.773125 14.39125 84.54625 13.5625 84.3125 C10.07505682 84.00658393 8.83460934 84.25595369 5.6875 85.4375 C1.07837392 87.1483451 -3.11399388 87.53715078 -8 87 C-8.99 86.505 -8.99 86.505 -10 86 C-10 86.66 -10 87.32 -10 88 C-9.01 88.495 -9.01 88.495 -8 89 C-8.99 89 -9.98 89 -11 89 C-11.00257813 89.61488281 -11.00515625 90.22976562 -11.0078125 90.86328125 C-11.12719718 93.35842106 -11.3523681 95.58531946 -12 98 C-16.23674124 101.30672487 -20.81114478 101.47231981 -26 102 C-26.33 102.33 -26.66 102.66 -27 103 C-29.69956731 103.12826673 -32.36230563 103.18522902 -35.0625 103.1875 C-35.80177734 103.19974609 -36.54105469 103.21199219 -37.30273438 103.22460938 C-42.5209834 103.23830557 -46.98355907 102.44058973 -52 101 C-52.33 99.68 -52.66 98.36 -53 97 C-55.475 97.99 -55.475 97.99 -58 99 C-58.75 97.25 -58.75 97.25 -59 95 C-57.68945377 93.64426252 -56.35251497 92.31387169 -55 91 C-52.36331185 85.30591259 -52.65143015 79.4072122 -52.5859375 73.2578125 C-52.56657135 72.13430389 -52.5472052 71.01079529 -52.5272522 69.85324097 C-52.46764125 66.27723702 -52.42114452 62.70120057 -52.375 59.125 C-52.33680326 56.69529874 -52.29775054 54.26561077 -52.2578125 51.8359375 C-52.16195485 45.89074333 -52.07685342 39.94546858 -52 34 C-43.081947 31.17593447 -34.12228003 28.63955038 -25.0625 26.3125 C-23.88365234 26.00505859 -22.70480469 25.69761719 -21.49023438 25.38085938 C-16.31347213 24.04350474 -11.28551576 22.88091929 -6 22 C-6 33.88 -6 45.76 -6 58 C-7.65 57.67 -9.3 57.34 -11 57 C-15.96465408 56.52005721 -19.82429882 56.43392166 -24.375 58.625 C-29.30119829 63.04458755 -29.30119829 63.04458755 -31.1953125 69.2109375 C-30.951022 73.53631638 -30.34968154 75.56962272 -27.5625 79 C-22.43340382 83.00319702 -17.32944354 82.58743855 -11 82 C-5.87916182 79.66417908 -4.12574309 77.10741738 -2 72 C-1.53991336 68.53719871 -1.53991336 68.53719871 -1.58349609 64.81713867 C-1.57491074 64.1253653 -1.56632538 63.43359192 -1.55747986 62.72085571 C-1.53255071 60.45312116 -1.52805408 58.18582742 -1.5234375 55.91796875 C-1.50911972 54.33708876 -1.4933613 52.75622123 -1.47622681 51.17536926 C-1.43448071 47.02807068 -1.40940824 42.88084936 -1.38873291 38.73339844 C-1.35283026 32.0775254 -1.29206612 25.42184232 -1.23024368 18.76616859 C-1.21110989 16.43893614 -1.19941473 14.11175479 -1.18881226 11.7844696 C-1.17860682 10.3682748 -1.16824947 8.95208107 -1.15771484 7.53588867 C-1.15121918 6.29489914 -1.14472351 5.05390961 -1.13803101 3.77531433 C-1 1 -1 1 0 0 Z " fill="#1E216B" transform="translate(148,53)"/>
<path d="M0 0 C0.06959428 9.28397193 0.12285903 18.56785367 0.15543652 27.8520298 C0.17107424 32.16332863 0.19227776 36.47444862 0.22631836 40.78564453 C0.25897959 44.94832485 0.27686726 49.11083345 0.28463173 53.27363205 C0.29016312 54.85961992 0.30096466 56.44559869 0.31719017 58.03151321 C0.33905491 60.25770427 0.34196323 62.48319103 0.34057617 64.70947266 C0.35056892 66.60809555 0.35056892 66.60809555 0.36076355 68.54507446 C-0.17253225 73.65229024 -1.76132047 76.88216725 -5.5625 80.3125 C-10.75559755 83.90772138 -15.81958278 83.57360735 -22 83 C-25.9821008 81.18360314 -27.50264134 79.76261662 -29.875 76.125 C-31.1109778 72.69172834 -31.52674973 70.61199813 -31 67 C-28.3416511 62.07713166 -25.03430782 58.51715391 -20 56 C-18.39924548 55.87817266 -16.79283863 55.82453402 -15.1875 55.8125 C-13.90939453 55.79123047 -13.90939453 55.79123047 -12.60546875 55.76953125 C-10 56 -10 56 -5 58 C-5 46.12 -5 34.24 -5 22 C-24.0736544 27.04551988 -24.0736544 27.04551988 -43.00952148 32.5769043 C-45.80114954 33.42559091 -48.06003786 34 -51 34 C-50.99333817 34.6233876 -50.98667633 35.24677521 -50.97981262 35.88905334 C-50.91329215 42.39432605 -50.86813001 48.89950164 -50.83520508 55.4050293 C-50.82014591 57.83085049 -50.79969438 60.25664458 -50.77368164 62.68237305 C-50.73717297 66.17503562 -50.72024447 69.66733725 -50.70703125 73.16015625 C-50.69154739 74.23959 -50.67606354 75.31902374 -50.66011047 76.4311676 C-50.65844459 83.93396083 -51.42940092 88.87359571 -56.3125 94.8125 C-60.52556248 98.2417369 -64.07185648 99.23685353 -69.4375 99 C-74.46394086 98.30259196 -77.77893813 95.85377045 -81 92 C-82.47559209 87.57322373 -82.97164471 83.25727068 -81.10546875 78.921875 C-80.13822946 77.24031412 -79.07606103 75.61409154 -78 74 C-78.8149292 73.021521 -79.6298584 72.04304199 -80.46948242 71.03491211 C-83.47060491 66.81428378 -83.66212258 63.50261421 -83.48828125 58.44140625 C-83.48120651 57.65225327 -83.47413177 56.86310028 -83.46684265 56.05003357 C-83.43906705 53.55318503 -83.37636813 51.05865944 -83.3125 48.5625 C-83.28739502 46.86005865 -83.26458572 45.15758181 -83.24414062 43.45507812 C-83.18929671 39.30250347 -83.10314841 35.15164422 -83 31 C-81.68 31 -80.36 31 -79 31 C-78.67 38.92 -78.34 46.84 -78 55 C-77.67 52.69 -77.34 50.38 -77 48 C-75.68 48 -74.36 48 -73 48 C-73 49.65 -73 51.3 -73 53 C-72.67 53 -72.34 53 -72 53 C-71.67 50.36 -71.34 47.72 -71 45 C-68.525 44.505 -68.525 44.505 -66 44 C-66 48.29 -66 52.58 -66 57 C-65.67 48.42 -65.34 39.84 -65 31 C-63.68 31 -62.36 31 -61 31 C-60.80173628 35.75032241 -60.65685899 40.49822432 -60.56054688 45.25170898 C-60.5203942 46.86704458 -60.46585523 48.48209078 -60.39648438 50.09643555 C-59.83477092 63.50734424 -59.83477092 63.50734424 -62.69335938 67.16918945 C-66.49225702 69.61090028 -70.48973972 70.66173048 -75 71 C-74.34 71.33 -73.68 71.66 -73 72 C-72.01 71.505 -72.01 71.505 -71 71 C-69.39924548 70.87817266 -67.79283863 70.82453402 -66.1875 70.8125 C-65.33542969 70.79832031 -64.48335937 70.78414063 -63.60546875 70.76953125 C-61 71 -61 71 -56 73 C-56 54.19 -56 35.38 -56 16 C-30.45297505 7.87140115 -30.45297505 7.87140115 -18.77832031 4.62670898 C-16.67628842 4.04199597 -14.57638771 3.45000617 -12.4765625 2.85742188 C-2.27850032 0 -2.27850032 0 0 0 Z " fill="#6AC3DE" transform="translate(147,53)"/>
<path d="M0 0 C2.81641641 0.83219656 2.81641641 0.83219656 6.0390625 1.2265625 C6.93496094 1.40058594 7.83085937 1.57460938 8.75390625 1.75390625 C9.24890625 2.74390625 9.24890625 2.74390625 9.75390625 3.75390625 C12.2812386 4.40945744 12.2812386 4.40945744 14.75390625 4.75390625 C11.45011189 6.95643582 8.7421909 7.72715847 4.91796875 8.77734375 C4.24277191 8.96479156 3.56757507 9.15223938 2.87191772 9.34536743 C0.70894963 9.94497351 -1.45592296 10.53730844 -3.62109375 11.12890625 C-6.44214162 11.90490388 -9.26226416 12.68420615 -12.08203125 13.46484375 C-12.77028992 13.65463806 -13.45854858 13.84443237 -14.16766357 14.03997803 C-19.74820457 15.58903616 -25.2733904 17.28186846 -30.79150391 19.04150391 C-33.24609375 19.75390625 -33.24609375 19.75390625 -35.24609375 19.75390625 C-35.24609375 38.56390625 -35.24609375 57.37390625 -35.24609375 76.75390625 C-36.89609375 76.42390625 -38.54609375 76.09390625 -40.24609375 75.75390625 C-41.93179643 75.66559517 -43.62058749 75.6236883 -45.30859375 75.62890625 C-46.14519531 75.62632813 -46.98179688 75.62375 -47.84375 75.62109375 C-50.11329703 75.74656464 -52.06952032 76.12053846 -54.24609375 76.75390625 C-54.24609375 75.76390625 -54.24609375 74.77390625 -54.24609375 73.75390625 C-52.32552083 73.33072917 -50.40494792 72.90755208 -48.484375 72.484375 C-45.5789316 71.53617619 -43.65005406 70.69113503 -41.24609375 68.75390625 C-40.71841942 65.98386022 -40.52407085 63.79950424 -40.5390625 61.0234375 C-40.52394119 60.27301682 -40.50881989 59.52259613 -40.49324036 58.74943542 C-40.45028377 56.35478864 -40.44151863 53.9614003 -40.43359375 51.56640625 C-40.41045532 49.94202365 -40.38509133 48.31767111 -40.35742188 46.69335938 C-40.29449204 42.71343007 -40.2622189 38.73428931 -40.24609375 34.75390625 C-41.56609375 34.75390625 -42.88609375 34.75390625 -44.24609375 34.75390625 C-44.24609375 44.65390625 -44.24609375 54.55390625 -44.24609375 64.75390625 C-46.44406778 60.35795819 -46.34682577 58.76122649 -45.87109375 54.00390625 C-45.76023437 52.8334375 -45.649375 51.66296875 -45.53515625 50.45703125 C-45.43976563 49.565 -45.344375 48.67296875 -45.24609375 47.75390625 C-47.22609375 48.24890625 -47.22609375 48.24890625 -49.24609375 48.75390625 C-49.57609375 51.39390625 -49.90609375 54.03390625 -50.24609375 56.75390625 C-51.23609375 56.75390625 -52.22609375 56.75390625 -53.24609375 56.75390625 C-53.24609375 55.10390625 -53.24609375 53.45390625 -53.24609375 51.75390625 C-53.90609375 51.75390625 -54.56609375 51.75390625 -55.24609375 51.75390625 C-55.90609375 55.05390625 -56.56609375 58.35390625 -57.24609375 61.75390625 C-57.57609375 61.75390625 -57.90609375 61.75390625 -58.24609375 61.75390625 C-58.57609375 52.84390625 -58.90609375 43.93390625 -59.24609375 34.75390625 C-59.90609375 34.75390625 -60.56609375 34.75390625 -61.24609375 34.75390625 C-61.57609375 37.72390625 -61.90609375 40.69390625 -62.24609375 43.75390625 C-62.90609375 43.75390625 -63.56609375 43.75390625 -64.24609375 43.75390625 C-64.3040694 39.81646792 -64.33968164 35.87913906 -64.37109375 31.94140625 C-64.38785156 30.82185547 -64.40460938 29.70230469 -64.421875 28.54882812 C-64.42832031 27.47568359 -64.43476562 26.40253906 -64.44140625 25.296875 C-64.45187988 24.3071167 -64.46235352 23.3173584 -64.47314453 22.29760742 C-64.24609375 19.75390625 -64.24609375 19.75390625 -62.24609375 16.75390625 C-59.81057002 16.03826868 -57.54336997 15.50574349 -55.05859375 15.06640625 C-53.76566406 14.81503906 -52.47273438 14.56367187 -51.140625 14.3046875 C-47.44518832 13.78206306 -43.9716551 13.65243182 -40.24609375 13.75390625 C-40.74109375 12.99078125 -41.23609375 12.22765625 -41.74609375 11.44140625 C-43.24609375 8.75390625 -43.24609375 8.75390625 -43.24609375 5.75390625 C-29.01557518 -2.05590112 -15.83380324 -4.55854975 0 0 Z " fill="#1F457B" transform="translate(126.24609375,49.24609375)"/>
<path d="M0 0 C0 11.88 0 23.76 0 36 C-1.65 35.67 -3.3 35.34 -5 35 C-9.96465408 34.52005721 -13.82429882 34.43392166 -18.375 36.625 C-21.36569973 39.33087118 -23.27025735 41.33294559 -25 45 C-25.02055883 47.36426598 -24.76764075 49.5244477 -24.359375 51.8515625 C-24 54 -24 54 -24 58 C-27.2542015 55.16569547 -28.5206753 53.31392226 -29 49 C-32.38931545 50.06521343 -34.0706732 51.0706732 -36.625 53.625 C-37.40875 54.40875 -38.1925 55.1925 -39 56 C-39.99 56 -40.98 56 -42 56 C-43.00926479 51.84373632 -43.10239579 47.95634906 -43.0625 43.6875 C-43.05347656 42.43324219 -43.04445313 41.17898437 -43.03515625 39.88671875 C-43.02355469 38.93410156 -43.01195313 37.98148438 -43 37 C-43.66 37 -44.32 37 -45 37 C-45 40.63 -45 44.26 -45 48 C-45.33 48 -45.66 48 -46 48 C-46 36.12 -46 24.24 -46 12 C-31.39242014 7.50536004 -31.39242014 7.50536004 -25.89453125 6.11328125 C-24.72728516 5.81486328 -23.56003906 5.51644531 -22.35742188 5.20898438 C-20.60268555 4.76522461 -20.60268555 4.76522461 -18.8125 4.3125 C-16.42265964 3.70646393 -14.03330848 3.09849433 -11.64453125 2.48828125 C-10.60659424 2.22571533 -9.56865723 1.96314941 -8.49926758 1.69262695 C-2.39161086 0 -2.39161086 0 0 0 Z " fill="#162C68" transform="translate(142,75)"/>
<path d="M0 0 C0.33 0 0.66 0 1 0 C0.67 6.27 0.34 12.54 0 19 C0.66 19 1.32 19 2 19 C2.33 29.56 2.66 40.12 3 51 C3.33 51 3.66 51 4 51 C3.5733849 57.75228728 2.58003057 61.88617 -1.8125 67.1875 C-5.72649268 70.43052251 -9.44588062 71.22920701 -14.4375 71 C-19.46394086 70.30259196 -22.77893813 67.85377045 -26 64 C-27.47559209 59.57322373 -27.97164471 55.25727068 -26.10546875 50.921875 C-25.13822946 49.24031412 -24.07606103 47.61409154 -23 46 C-23.8149292 45.021521 -24.6298584 44.04304199 -25.46948242 43.03491211 C-28.47060491 38.81428378 -28.66212258 35.50261421 -28.48828125 30.44140625 C-28.48120651 29.65225327 -28.47413177 28.86310028 -28.46684265 28.05003357 C-28.43906705 25.55318503 -28.37636813 23.05865944 -28.3125 20.5625 C-28.28739502 18.86005865 -28.26458572 17.15758181 -28.24414062 15.45507812 C-28.18929671 11.30250347 -28.10314841 7.15164422 -28 3 C-26.68 3 -25.36 3 -24 3 C-23.67 10.92 -23.34 18.84 -23 27 C-22.67 24.69 -22.34 22.38 -22 20 C-20.68 20 -19.36 20 -18 20 C-18 21.65 -18 23.3 -18 25 C-17.67 25 -17.34 25 -17 25 C-16.67 22.36 -16.34 19.72 -16 17 C-14.35 16.67 -12.7 16.34 -11 16 C-11 20.29 -11 24.58 -11 29 C-10.67 20.42 -10.34 11.84 -10 3 C-8.68 3 -7.36 3 -6 3 C-5.80173628 7.75032241 -5.65685899 12.49822432 -5.56054688 17.25170898 C-5.5203942 18.86704458 -5.46585523 20.48209078 -5.39648438 22.09643555 C-4.83477092 35.50734424 -4.83477092 35.50734424 -7.69335938 39.16918945 C-11.49225702 41.61090028 -15.48973972 42.66173048 -20 43 C-19.34 43.33 -18.68 43.66 -18 44 C-17.01 43.505 -17.01 43.505 -16 43 C-14.39924548 42.87817266 -12.79283863 42.82453402 -11.1875 42.8125 C-9.90939453 42.79123047 -9.90939453 42.79123047 -8.60546875 42.76953125 C-5.74372274 43.0226692 -3.63297331 43.88965703 -1 45 C-1.00222061 44.45098526 -1.00444122 43.90197052 -1.00672913 43.33631897 C-1.02878358 37.64292041 -1.04390726 31.9495339 -1.05493164 26.25610352 C-1.05997298 24.12881986 -1.06680591 22.00153969 -1.07543945 19.87426758 C-1.08751379 16.82372174 -1.09323014 13.77322155 -1.09765625 10.72265625 C-1.10281754 9.76537125 -1.10797882 8.80808624 -1.11329651 7.8217926 C-1.11340981 6.50053627 -1.11340981 6.50053627 -1.11352539 5.15258789 C-1.115746 4.37315323 -1.11796661 3.59371857 -1.12025452 2.79066467 C-1 1 -1 1 0 0 Z " fill="#589AD0" transform="translate(92,81)"/>
<path d="M0 0 C-1.35258896 7.88416983 -3.54399352 15.39353334 -6 23 C-6.7425 22.175 -7.485 21.35 -8.25 20.5 C-10.87387385 17.55155147 -10.87387385 17.55155147 -15 18 C-17.08348822 18.95064948 -17.08348822 18.95064948 -19.25 20.25 C-35.31340671 28.54155258 -51.17448362 28.55364928 -68.16113281 23.39892578 C-72.45144596 22.01947211 -76.24251385 20.55877891 -80 18 C-79 16 -79 16 -76.4375 14.8125 C-71.01141196 13.5299701 -66.54913396 14.57321441 -61.28515625 16.0234375 C-56.93445859 17.11967628 -52.78750477 17.38425393 -48.3125 17.375 C-47.53229492 17.37411377 -46.75208984 17.37322754 -45.94824219 17.37231445 C-37.60036861 17.20374833 -30.21389276 15.13239259 -22.765625 11.36328125 C-20 10 -20 10 -18 10 C-18.66 9.05125 -19.32 8.1025 -20 7.125 C-22 4 -22 4 -22 2 C-14.58851545 0.71702277 -7.52719602 -0.25515919 0 0 Z " fill="#D19462" transform="translate(161,141)"/>
<path d="M0 0 C0 0.66 0 1.32 0 2 C-9.34816299 5.73543398 -9.34816299 5.73543398 -14.25 3.75 C-14.83265625 3.45609375 -15.4153125 3.1621875 -16.015625 2.859375 C-26.75295652 -1.79065046 -39.60539961 0.95157669 -50 5 C-52.75424889 6.2277977 -55.353796 7.54718212 -58 9 C-57.505 9.598125 -57.01 10.19625 -56.5 10.8125 C-55 13 -55 13 -55 16 C-69.59681093 18.29612756 -69.59681093 18.29612756 -77 18 C-75.7205886 10.39086902 -73.57243067 3.26774103 -71 -4 C-68.11562221 -2.70700306 -66.12780579 -1.34058637 -64 1 C-63.26136719 0.60167969 -62.52273437 0.20335937 -61.76171875 -0.20703125 C-41.33067348 -10.87686557 -20.42487073 -11.21365452 0 0 Z " fill="#70C3DE" transform="translate(141,47)"/>
<path d="M0 0 C0.33 0 0.66 0 1 0 C1.60040724 12.62292339 2.10061841 25.23619557 2.125 37.875 C2.12951172 38.84832275 2.13402344 39.82164551 2.13867188 40.82446289 C2.13673828 41.72543701 2.13480469 42.62641113 2.1328125 43.5546875 C2.13168457 44.34343262 2.13055664 45.13217773 2.12939453 45.94482422 C2 48 2 48 1 51 C2.65 51 4.3 51 6 51 C5.66226563 50.17242187 5.32453125 49.34484375 4.9765625 48.4921875 C3.87028451 44.53613741 3.98488749 41.15096114 4.375 37.125 C4.43171875 36.43664062 4.4884375 35.74828125 4.546875 35.0390625 C4.68692828 33.35842311 4.84192245 31.67903995 5 30 C5.66 30.33 6.32 30.66 7 31 C7.33 42.88 7.66 54.76 8 67 C8.99 67.33 9.98 67.66 11 68 C10.90659302 62.76693114 10.80052891 57.534332 10.68261719 52.30175781 C10.64428435 50.52090527 10.60943911 48.73997416 10.578125 46.95898438 C10.53256729 44.40205766 10.47455893 41.8456739 10.4140625 39.2890625 C10.40251129 38.49005524 10.39096008 37.69104797 10.37905884 36.86782837 C10.42741056 32.46542788 10.42741056 32.46542788 8 29 C8.33 28.34 8.66 27.68 9 27 C9.66 27 10.32 27 11 27 C11.66 25.68 12.32 24.36 13 23 C14.30833663 25.61667325 14.15345736 27.58917508 14.18945312 30.51953125 C14.20617065 31.67412842 14.22288818 32.82872559 14.2401123 34.01831055 C14.25368774 35.27039307 14.26726318 36.52247559 14.28125 37.8125 C14.30937202 39.76750341 14.33749929 41.72250675 14.36594391 43.67750549 C14.42457358 47.81581843 14.47452204 51.95424528 14.52606201 56.09265137 C14.56880894 59.49825664 14.61341471 62.90381251 14.66296387 66.30932617 C14.69975106 68.86672009 14.73215845 71.42418128 14.7598877 73.98168945 C14.77660522 75.13628662 14.79332275 76.29088379 14.81054688 77.48046875 C14.82307495 78.50035889 14.83560303 79.52024902 14.84851074 80.57104492 C14.84180275 83.00916451 14.84180275 83.00916451 16 85 C15.195625 84.773125 14.39125 84.54625 13.5625 84.3125 C10.03434069 84.00301234 8.65106615 84.31237773 5.4375 85.5 C2.69886799 86.49586619 1.01353487 87 -1.9375 87 C-4 86 -4 86 -5.5625 84 C-6.06160688 80.57755282 -5.69186427 80.20028966 -4.06323242 77.3359375 C-0.88161978 70.4393357 -1.41503565 63.05852109 -1.42578125 55.625 C-1.41331999 54.04840555 -1.39898133 52.47182493 -1.38285828 50.89526367 C-1.34503889 46.77261433 -1.32967698 42.65020473 -1.32006836 38.52740479 C-1.30022626 31.90126295 -1.24359704 25.27530162 -1.19130516 18.64935303 C-1.17593333 16.33539234 -1.16876658 14.02152231 -1.16316223 11.70751953 C-1.15615134 10.3011063 -1.14905084 8.8946935 -1.1418457 7.48828125 C-1.13662651 5.64036987 -1.13662651 5.64036987 -1.13130188 3.75512695 C-1 1 -1 1 0 0 Z " fill="#1C266B" transform="translate(148,53)"/>
<path d="M0 0 C0 0.99 0 1.98 0 3 C-0.99 3.495 -0.99 3.495 -2 4 C-1.67 4.66 -1.34 5.32 -1 6 C-1.66 6 -2.32 6 -3 6 C-3.33 7.32 -3.66 8.64 -4 10 C-2.68 10.33 -1.36 10.66 0 11 C0 16.28 0 21.56 0 27 C-1.32 27 -2.64 27 -4 27 C-4.33 23.37 -4.66 19.74 -5 16 C-7.04723881 21.11809703 -7.01622308 22.81726228 -6 28 C-7.32 28 -8.64 28 -10 28 C-10.33 27.01 -10.66 26.02 -11 25 C-11.33 26.65 -11.66 28.3 -12 30 C-13.32 29.67 -14.64 29.34 -16 29 C-16.33 27.35 -16.66 25.7 -17 24 C-17.33 27.3 -17.66 30.6 -18 34 C-19.32 34 -20.64 34 -22 34 C-21.98839844 32.78441406 -21.97679688 31.56882812 -21.96484375 30.31640625 C-21.95546722 28.73177236 -21.94636687 27.14713682 -21.9375 25.5625 C-21.92912109 24.76005859 -21.92074219 23.95761719 -21.91210938 23.13085938 C-21.9034857 21.08704779 -21.9477185 19.04316098 -22 17 C-22.33 16.67 -22.66 16.34 -23 16 C-23.33 24.58 -23.66 33.16 -24 42 C-25.32 42 -26.64 42 -28 42 C-28 32.43 -28 22.86 -28 13 C-26.68 12.34 -25.36 11.68 -24 11 C-24.33 9.68 -24.66 8.36 -25 7 C-16.72831339 4.37173829 -8.44419541 2.00834918 0 0 Z " fill="#1F3A74" transform="translate(136,76)"/>
<path d="M0 0 C0.91007812 0.00902344 1.82015625 0.01804687 2.7578125 0.02734375 C3.80582031 0.04474609 3.80582031 0.04474609 4.875 0.0625 C3.885 0.3925 2.895 0.7225 1.875 1.0625 C1.875 1.7225 1.875 2.3825 1.875 3.0625 C2.50148437 3.19527344 3.12796875 3.32804687 3.7734375 3.46484375 C4.59070313 3.64144531 5.40796875 3.81804687 6.25 4 C7.46816406 4.26103516 7.46816406 4.26103516 8.7109375 4.52734375 C10.875 5.0625 10.875 5.0625 12.875 6.0625 C13.92161666 10.90743407 14.96787419 16.52180103 12.9609375 21.1875 C9.96045022 24.86907948 6.72982801 26.84033397 2.0703125 27.3984375 C-8.53646143 27.53338373 -8.53646143 27.53338373 -13.125 23.0625 C-15.76701025 19.01141762 -16.82736884 15.8787435 -16.125 11.0625 C-12.41476325 4.1916912 -7.8730617 -0.10093669 0 0 Z " fill="#5EA3D2" transform="translate(132.125,108.9375)"/>
<path d="M0 0 C0.99 0.33 1.98 0.66 3 1 C3.33 8.92 3.66 16.84 4 25 C4.33 22.69 4.66 20.38 5 18 C6.32 18 7.64 18 9 18 C9 19.65 9 21.3 9 23 C9.33 23 9.66 23 10 23 C10.33 20.36 10.66 17.72 11 15 C12.65 14.67 14.3 14.34 16 14 C16 18.29 16 22.58 16 27 C16.33 18.42 16.66 9.84 17 1 C18.32 1 19.64 1 21 1 C21.19826372 5.75032241 21.34314101 10.49822432 21.43945312 15.25170898 C21.4796058 16.86704458 21.53414477 18.48209078 21.60351562 20.09643555 C22.16522908 33.50734424 22.16522908 33.50734424 19.30664062 37.16918945 C15.50774298 39.61090028 11.51026028 40.66173048 7 41 C6.67 42.32 6.34 43.64 6 45 C4.6434836 43.69026002 3.31442362 42.35197858 2 41 C1.19997559 40.19502075 1.19997559 40.19502075 0.38378906 39.3737793 C-1.61866864 35.93872351 -1.39057344 32.63208953 -1.328125 28.76953125 C-1.32625183 27.9785051 -1.32437866 27.18747894 -1.32244873 26.3724823 C-1.31574097 24.70571661 -1.30185178 23.03896632 -1.28125 21.37231445 C-1.24998429 18.81121317 -1.24026694 16.25072668 -1.234375 13.68945312 C-1.22520924 12.07030494 -1.21483483 10.45116304 -1.203125 8.83203125 C-1.19887512 8.0622847 -1.19462524 7.29253815 -1.19024658 6.49946594 C-1.11718446 1.11718446 -1.11718446 1.11718446 0 0 Z " fill="#1F3070" transform="translate(65,83)"/>
<path d="M0 0 C-0.65049316 0.52255371 -1.30098633 1.04510742 -1.97119141 1.58349609 C-4.6370736 4.75881522 -4.48950562 6.55753536 -4.4609375 10.6640625 C-4.45707031 11.95054688 -4.45320313 13.23703125 -4.44921875 14.5625 C-4.43681152 15.22894531 -4.4244043 15.89539063 -4.41162109 16.58203125 C-4.37499096 18.62550458 -4.3706027 20.66716935 -4.37109375 22.7109375 C-4.84066285 29.45780304 -4.84066285 29.45780304 -2 35 C-3.65 35 -5.3 35 -7 35 C-6.91298828 35.92232422 -6.91298828 35.92232422 -6.82421875 36.86328125 C-6.68671512 39.32656059 -6.63195953 41.55794325 -7 44 C-9.5 46.0625 -9.5 46.0625 -12 47 C-14.1103435 42.72115394 -14.24128739 38.86135858 -14.125 34.1875 C-14.11597656 33.49462891 -14.10695313 32.80175781 -14.09765625 32.08789062 C-14.07426157 30.39177605 -14.03839641 28.69584129 -14 27 C-14.66 27 -15.32 27 -16 27 C-16 30.63 -16 34.26 -16 38 C-16.33 38 -16.66 38 -17 38 C-17 26.12 -17 14.24 -17 2 C-4 -2 -4 -2 0 0 Z " fill="#13346C" transform="translate(113,85)"/>
<path d="M0 0 C0 0.99 0 1.98 0 3 C-1.55851755 3.82011312 -3.12201716 4.63076213 -4.6875 5.4375 C-5.99267578 6.11619141 -5.99267578 6.11619141 -7.32421875 6.80859375 C-11.44646833 8.64404794 -15.31783115 9.12445107 -19.80180359 9.13371277 C-20.73975769 9.13797775 -21.67771179 9.14224274 -22.64408875 9.14663696 C-24.16930901 9.14595718 -24.16930901 9.14595718 -25.7253418 9.14526367 C-27.34558762 9.15030159 -27.34558762 9.15030159 -28.99856567 9.15544128 C-32.56546175 9.16493339 -36.13231084 9.16689316 -39.69921875 9.16796875 C-42.17592895 9.17118122 -44.65263896 9.17454529 -47.12934875 9.17805481 C-52.31678711 9.18404078 -57.50420882 9.18589512 -62.69165039 9.18530273 C-68.02762473 9.18522112 -73.36350834 9.19184326 -78.69946289 9.20581055 C-85.13723507 9.22242385 -91.57494229 9.2293604 -98.01273537 9.22869301 C-100.47003356 9.22987666 -102.92733236 9.23431985 -105.38461876 9.24202538 C-108.81077008 9.25176766 -112.23668711 9.2489707 -115.6628418 9.24291992 C-117.1971711 9.25134918 -117.1971711 9.25134918 -118.76249695 9.25994873 C-120.15673889 9.253657 -120.15673889 9.253657 -121.57914734 9.24723816 C-122.79446908 9.24805531 -122.79446908 9.24805531 -124.03434277 9.24888897 C-126 9 -126 9 -128 7 C-127.67 6.34 -127.34 5.68 -127 5 C-125.8553125 5.2475 -125.8553125 5.2475 -124.6875 5.5 C-119.77854151 6.16562149 -114.94564886 6.07920078 -110 6 C-110 5.67 -110 5.34 -110 5 C-107.85423363 4.97314062 -105.70837355 4.95366912 -103.5625 4.9375 C-102.36753906 4.92589844 -101.17257813 4.91429687 -99.94140625 4.90234375 C-97 5 -97 5 -96 6 C-93.4764816 6.10105514 -90.98096324 6.1397017 -88.45703125 6.1328125 C-87.31520638 6.13424759 -87.31520638 6.13424759 -86.15031433 6.13571167 C-84.53372109 6.13639382 -82.91712513 6.13453714 -81.30053711 6.13037109 C-78.84026815 6.12505994 -76.38018484 6.13029573 -73.91992188 6.13671875 C-72.34895793 6.13605725 -70.77799411 6.13477462 -69.20703125 6.1328125 C-68.47555374 6.13483673 -67.74407623 6.13686096 -66.99043274 6.13894653 C-63.92318159 6.12507589 -61.00384056 6.00064046 -57.9753418 5.49560547 C-54.36194128 4.89371796 -50.83661562 4.89386144 -47.1875 4.9375 C-46.4555542 4.94128662 -45.7236084 4.94507324 -44.96948242 4.94897461 C-41.86272137 4.96520569 -38.75609617 4.9934034 -35.64941406 5.02050781 C-33.37044898 5.03866309 -31.0915055 5.05070988 -28.8125 5.0625 C-28.11858154 5.07079834 -27.42466309 5.07909668 -26.7097168 5.08764648 C-22.68873706 5.10774403 -18.94837469 4.73473917 -15 4 C-13.04259807 3.93611612 -11.08329853 3.91361831 -9.125 3.9375 C-8.15820312 3.94652344 -7.19140625 3.95554688 -6.1953125 3.96484375 C-5.47085938 3.97644531 -4.74640625 3.98804688 -4 4 C-4 3.01 -4 2.02 -4 1 C-2.68 0.67 -1.36 0.34 0 0 Z " fill="#23195D" transform="translate(182,177)"/>
<path d="M0 0 C0.99 0.33 1.98 0.66 3 1 C2.67 1.66 2.34 2.32 2 3 C1.113125 3.226875 0.22625 3.45375 -0.6875 3.6875 C-6.11181552 5.83675709 -8.83678311 10.25517467 -12 15 C-12.99 16.485 -12.99 16.485 -14 18 C-14.45601261 20.50896686 -14.45601261 20.50896686 -14.625 23.1875 C-14.69976562 24.08855469 -14.77453125 24.98960938 -14.8515625 25.91796875 C-14.90054688 26.60503906 -14.94953125 27.29210937 -15 28 C-15.33 28 -15.66 28 -16 28 C-16.02926019 32.16665169 -16.04688594 36.33327659 -16.0625 40.5 C-16.07087891 41.67304687 -16.07925781 42.84609375 -16.08789062 44.0546875 C-16.10501896 50.15237493 -15.86170263 55.96808158 -15 62 C-14.93972169 63.83246055 -14.91203785 65.66672511 -14.9375 67.5 C-14.94652344 68.3559375 -14.95554687 69.211875 -14.96484375 70.09375 C-14.97644531 70.7228125 -14.98804688 71.351875 -15 72 C-14.34 72.33 -13.68 72.66 -13 73 C-13 73.66 -13 74.32 -13 75 C-12.01 75.33 -11.02 75.66 -10 76 C-10 76.66 -10 77.32 -10 78 C-10.99 78 -11.98 78 -13 78 C-13 78.99 -13 79.98 -13 81 C-13.99 81.99 -13.99 81.99 -15 83 C-16.51691157 90.84840742 -16.09396891 99.10803194 -16 107.0625 C-15.97458495 109.28250436 -15.95351991 111.50256422 -15.9375 113.72265625 C-15.92589844 114.68953369 -15.91429687 115.65641113 -15.90234375 116.65258789 C-16 119 -16 119 -17 121 C-17.23029956 123.37123246 -17.41119942 125.74741943 -17.5625 128.125 C-17.64628906 129.40632812 -17.73007812 130.68765625 -17.81640625 132.0078125 C-17.90728516 133.48894531 -17.90728516 133.48894531 -18 135 C-18.33 135 -18.66 135 -19 135 C-19.07026366 120.96090955 -19.12287301 106.9218466 -19.15543652 92.88261604 C-19.1710682 86.36308808 -19.1922611 79.84367856 -19.22631836 73.32421875 C-19.25900049 67.02833777 -19.27687179 60.73257046 -19.28463173 54.43661118 C-19.29015932 52.03894131 -19.30095328 49.64127741 -19.31719017 47.24365616 C-19.33908172 43.87600687 -19.34196198 40.50882268 -19.34057617 37.14111328 C-19.351362 36.15783554 -19.36214783 35.1745578 -19.3732605 34.16148376 C-19.32458344 23.17384116 -16.51338421 15.051152 -9 7 C-6.20689623 4.3249147 -3.47517034 1.73758517 0 0 Z " fill="#2F4364" transform="translate(47,23)"/>
<path d="M0 0 C-1.35258896 7.88416983 -3.54399352 15.39353334 -6 23 C-8 21 -10 19 -12 17 C-15.32683992 16.61978972 -16.78056923 16.86732093 -19.6875 18.625 C-24.46366225 20.60755792 -28.14099863 19.33478496 -33 18 C-29.95676256 15.97117504 -27.27735257 14.99913724 -23.83984375 13.87890625 C-21.64627313 13.02372971 -21.64627313 13.02372971 -20 10 C-19.34 10 -18.68 10 -18 10 C-18.66 9.05125 -19.32 8.1025 -20 7.125 C-22 4 -22 4 -22 2 C-14.58851545 0.71702277 -7.52719602 -0.25515919 0 0 Z " fill="#F3BD4F" transform="translate(161,141)"/>
<path d="M0 0 C0 23.76 0 47.52 0 72 C-0.99 72.495 -0.99 72.495 -2 73 C-2 69.37 -2 65.74 -2 62 C-3.44375 61.690625 -4.8875 61.38125 -6.375 61.0625 C-8.78923686 60.54516353 -10.78970467 60.10514766 -13 59 C-13 58.34 -13 57.68 -13 57 C-7.25 56.875 -7.25 56.875 -5 58 C-5 46.12 -5 34.24 -5 22 C-4.34 22 -3.68 22 -3 22 C-2.94615479 19.70858714 -2.90727913 17.41681812 -2.875 15.125 C-2.85179687 13.84882812 -2.82859375 12.57265625 -2.8046875 11.2578125 C-2.64358476 7.91406662 -2.64358476 7.91406662 -5 6 C-7.58354218 5.83312552 -7.58354218 5.83312552 -10 6 C-9.67 4.68 -9.34 3.36 -9 2 C-2.25 0 -2.25 0 0 0 Z " fill="#73B3D9" transform="translate(147,53)"/>
<path d="M0 0 C0.33 0 0.66 0 1 0 C1.33 13.86 1.66 27.72 2 42 C2.99 42 3.98 42 5 42 C5 32.1 5 22.2 5 12 C5.66 12.33 6.32 12.66 7 13 C7 19.27 7 25.54 7 32 C7.99 31.67 8.98 31.34 10 31 C10.33 24.73 10.66 18.46 11 12 C11.99 12.33 12.98 12.66 14 13 C14 16.96 14 20.92 14 25 C16.51083114 23.74458443 16.87125446 22.49936512 18 20 C18.33 21.32 18.66 22.64 19 24 C20.32 24 21.64 24 23 24 C22.814375 23.21625 22.62875 22.4325 22.4375 21.625 C22 19 22 19 23 17 C23.66 17 24.32 17 25 17 C25 20.3 25 23.6 25 27 C24.34 27.33 23.68 27.66 23 28 C22.34 27.34 21.68 26.68 21 26 C16.66396328 28.60162203 14.54952931 30.71215526 12 35 C9.8125 35.8125 9.8125 35.8125 8 36 C8 38.64 8 41.28 8 44 C5.03 44.66 2.06 45.32 -1 46 C-1.024644 39.60962203 -1.04283317 33.21927148 -1.05493164 26.82885742 C-1.05997308 24.65307127 -1.06680607 22.47728853 -1.07543945 20.30151367 C-1.08751338 17.18146933 -1.09323005 14.06146962 -1.09765625 10.94140625 C-1.10281754 9.96224747 -1.10797882 8.98308868 -1.11329651 7.97425842 C-1.11337204 7.07340012 -1.11344757 6.17254181 -1.11352539 5.24438477 C-1.115746 4.44718521 -1.11796661 3.64998566 -1.12025452 2.82862854 C-1 1 -1 1 0 0 Z " fill="#16326D" transform="translate(167,80)"/>
<path d="M0 0 C1.32 0 2.64 0 4 0 C4 11.88 4 23.76 4 36 C3.34 35.67 2.68 35.34 2 35 C2 34.34 2 33.68 2 33 C1.071875 33 0.14375 33 -0.8125 33 C-4.7336975 33 -8.1667219 32.82881689 -12 32 C-11.505 30.515 -11.505 30.515 -11 29 C-10.01 29 -9.02 29 -8 29 C-8.37125 27.948125 -8.7425 26.89625 -9.125 25.8125 C-10.04294817 21.81286869 -10.03853571 20.4655107 -8 17 C-7.34 16.67 -6.68 16.34 -6 16 C-5.67 19.96 -5.34 23.92 -5 28 C-4.34 28 -3.68 28 -3 28 C-3 22.72 -3 17.44 -3 12 C-3.99 11.67 -4.98 11.34 -6 11 C-5.814375 10.38125 -5.62875 9.7625 -5.4375 9.125 C-4.76313824 6.95839822 -4.76313824 6.95839822 -6 5 C-5.38125 4.731875 -4.7625 4.46375 -4.125 4.1875 C-1.7004767 3.04443152 -1.7004767 3.04443152 0 0 Z " fill="#1C3A71" transform="translate(138,75)"/>
<path d="M0 0 C5.3099124 4.32659529 8.60274388 11.36418774 10 18 C10.08448354 19.33514966 10.12206238 20.67383904 10.12025452 22.01165771 C10.12162918 22.7996727 10.12300385 23.58768768 10.12442017 24.39958191 C10.12082489 25.25481949 10.11722961 26.11005707 10.11352539 26.99121094 C10.11367142 27.89887711 10.11381744 28.80654327 10.1139679 29.74171448 C10.11327171 32.73929237 10.10549302 35.73680798 10.09765625 38.734375 C10.09579103 40.8137407 10.09436762 42.89310685 10.09336853 44.97247314 C10.08955157 50.44363622 10.07972826 55.91477272 10.06866455 61.38592529 C10.05843281 66.96951946 10.05386713 72.55311791 10.04882812 78.13671875 C10.03810528 89.0911575 10.02103868 100.04557654 10 111 C9.67 111 9.34 111 9 111 C7.17087506 78.98058419 6.7428096 47.06773524 7 15 C5.68 14.34 4.36 13.68 3 13 C3 12.34 3 11.68 3 11 C2.34 11 1.68 11 1 11 C0.67 7.37 0.34 3.74 0 0 Z " fill="#2C4169" transform="translate(185,30)"/>
<path d="M0 0 C-2.76262368 2.76262368 -4.97062088 2.61811333 -8.8125 3.125 C-10.03582031 3.29257813 -11.25914062 3.46015625 -12.51953125 3.6328125 C-15.38882808 3.93552171 -18.12063778 4.07678299 -21 4 C-20.34 4.94875 -19.68 5.8975 -19 6.875 C-17 10 -17 10 -17 12 C-18.99563262 12.96739508 -20.99675882 13.92346044 -23 14.875 C-24.11375 15.40867188 -25.2275 15.94234375 -26.375 16.4921875 C-33.20699144 19.33394256 -39.43330326 20.36414723 -46.8125 20.3125 C-47.60003662 20.31048584 -48.38757324 20.30847168 -49.19897461 20.30639648 C-54.62992984 20.21332624 -59.40505461 19.43460282 -64.5859375 17.734375 C-68.3546895 16.58789381 -72.08319378 16.32104969 -76 16 C-76 15.67 -76 15.34 -76 15 C-70.95429614 14.20557003 -66.43778401 13.70679326 -61.4375 14.9375 C-56.57501071 16.09078272 -51.90854823 16.19628003 -46.9375 16.1875 C-45.79269165 16.18834595 -45.79269165 16.18834595 -44.62475586 16.18920898 C-41.01436219 16.48204344 -41.01436219 16.48204344 -38 15 C-35.49193151 14.46512518 -32.97192079 14.03594544 -30.4453125 13.59765625 C-27.76534231 13.0900515 -27.76534231 13.0900515 -25 11 C-24.24431125 9.14747047 -24.24431125 9.14747047 -23.875 7.0625 C-23.35406077 4.61774134 -22.79445857 2.38337571 -22 0 C-21.29875 0.01160156 -20.5975 0.02320313 -19.875 0.03515625 C-15.36358418 0.07806374 -10.97116793 0.08815503 -6.5 -0.5625 C-3 -1 -3 -1 0 0 Z " fill="#312342" transform="translate(160,139)"/>
<path d="M0 0 C0.66 0.33 1.32 0.66 2 1 C2.35015049 2.66321482 2.68197057 4.33034549 3 6 C3.99 7.485 3.99 7.485 5 9 C5.33 8.34 5.66 7.68 6 7 C6.66 7 7.32 7 8 7 C8 7.99 8 8.98 8 10 C7.34 10 6.68 10 6 10 C6 10.66 6 11.32 6 12 C6.99 12 7.98 12 9 12 C9 17.94 9 23.88 9 30 C7.68 30.33 6.36 30.66 5 31 C4.67 24.73 4.34 18.46 4 12 C3.67 21.57 3.34 31.14 3 41 C1.515 41.495 1.515 41.495 0 42 C-1.89623202 40.10376798 -1.12897626 37.33629641 -1.13894653 34.8137207 C-1.1369223 33.94706787 -1.13489807 33.08041504 -1.1328125 32.1875 C-1.13376923 31.30344482 -1.13472595 30.41938965 -1.13571167 29.50854492 C-1.13639351 27.63557871 -1.13453893 25.76261014 -1.13037109 23.88964844 C-1.12502289 21.01231612 -1.13031593 18.13513992 -1.13671875 15.2578125 C-1.13605797 13.44270799 -1.13477681 11.62760357 -1.1328125 9.8125 C-1.13483673 8.94584717 -1.13686096 8.07919434 -1.13894653 7.1862793 C-1.11495009 1.11495009 -1.11495009 1.11495009 0 0 Z " fill="#375A91" transform="translate(169,81)"/>
<path d="M0 0 C1.98 0.66 3.96 1.32 6 2 C6 14.87 6 27.74 6 41 C4.68 41.66 3.36 42.32 2 43 C-0.19675471 38.5568277 -0.35772003 34.31444567 -0.44921875 29.453125 C-0.48182549 28.23541412 -0.48182549 28.23541412 -0.51509094 26.99310303 C-0.55885142 25.28538629 -0.59808603 23.57754825 -0.63305664 21.86962891 C-0.6876097 19.24472168 -0.75773473 16.62056494 -0.83007812 13.99609375 C-0.87070609 12.33595963 -0.9104509 10.6758036 -0.94921875 9.015625 C-0.96997971 8.22714172 -0.99074066 7.43865845 -1.01213074 6.62628174 C-1.04743252 4.75118241 -1.029225 2.87520388 -1 1 C-0.67 0.67 -0.34 0.34 0 0 Z " fill="#172F6F" transform="translate(99,89)"/>
<path d="M0 0 C2.33175302 7.92084043 -0.39738288 14.91206028 -4 22 C-6.31 21.67 -8.62 21.34 -11 21 C-11 20.34 -11 19.68 -11 19 C-13.97 19.33 -16.94 19.66 -20 20 C-20.495 21.485 -20.495 21.485 -21 23 C-24.97133424 24.98566712 -28.66508082 26.18720265 -33 27 C-33.77859375 27.17660156 -34.5571875 27.35320312 -35.359375 27.53515625 C-50.48081264 30.87076749 -50.48081264 30.87076749 -57 27 C-57.33 26.01 -57.66 25.02 -58 24 C-56.43765625 24.06960937 -56.43765625 24.06960937 -54.84375 24.140625 C-41.31121967 24.55600668 -28.92807077 22.86734178 -17.015625 15.953125 C-15 15 -15 15 -11 15 C-8.25 17 -8.25 17 -6 19 C-5.85377197 18.45996338 -5.70754395 17.91992676 -5.55688477 17.36352539 C-4.89556445 14.92889078 -4.22910312 12.49569321 -3.5625 10.0625 C-3.33240234 9.21236328 -3.10230469 8.36222656 -2.86523438 7.48632812 C-2.64287109 6.67744141 -2.42050781 5.86855469 -2.19140625 5.03515625 C-1.98717041 4.2862915 -1.78293457 3.53742676 -1.57250977 2.76586914 C-1 1 -1 1 0 0 Z " fill="#281544" transform="translate(161,143)"/>
<path d="M0 0 C3 0 3 0 5 1 C5 15.85 5 30.7 5 46 C3.68 45.67 2.36 45.34 1 45 C-0.6647181 44.90929421 -2.33282033 44.86991714 -4 44.875 C-4.845625 44.87242188 -5.69125 44.86984375 -6.5625 44.8671875 C-8.84698944 44.99166289 -10.80991574 45.36122543 -13 46 C-13 45.01 -13 44.02 -13 43 C-11.07942708 42.57682292 -9.15885417 42.15364583 -7.23828125 41.73046875 C-4.33408269 40.7826762 -2.40018078 39.93905024 0 38 C0.46981724 35.23830027 0.60994113 33.09472109 0.5234375 30.33984375 C0.5163829 29.22132774 0.5163829 29.22132774 0.50918579 28.08021545 C0.48783597 25.69837066 0.43122162 23.31874995 0.375 20.9375 C0.35849392 19.33009906 0.34414558 17.72267441 0.33203125 16.11523438 C0.65939701 8.83531545 0.65939701 8.83531545 -1 2 C-0.67 1.34 -0.34 0.68 0 0 Z " fill="#18316E" transform="translate(85,80)"/>
<path d="M0 0 C15.36021944 -0.04680658 30.72043558 -0.08203117 46.08071041 -0.10362434 C53.21341784 -0.11391876 60.34608085 -0.12794385 67.47875977 -0.15087891 C73.69860079 -0.17086914 79.91840962 -0.18372976 86.13828188 -0.18817699 C89.42893859 -0.19077487 92.71948225 -0.19790598 96.01011467 -0.21146011 C99.69161265 -0.22601849 103.37292114 -0.22797609 107.05444336 -0.22705078 C108.67501396 -0.23783661 108.67501396 -0.23783661 110.32832336 -0.24884033 C119.20549606 -0.22476288 126.8852914 0.3447188 134 6 C134 6.33 134 6.66 134 7 C129.42865137 7.31168286 127.50188224 6.89810944 124 4 C123.01 4 122.02 4 121 4 C120.67 4.66 120.34 5.32 120 6 C119.34 6 118.68 6 118 6 C118.33 5.01 118.66 4.02 119 3 C117.43667706 1.43667706 115.91167663 1.86117386 113.73736572 1.84609985 C112.81765991 1.83749939 111.8979541 1.82889893 110.95037842 1.82003784 C109.93324768 1.81577789 108.91611694 1.81151794 107.86816406 1.80712891 C106.80315674 1.79895142 105.73814941 1.79077393 104.64086914 1.78234863 C101.09912692 1.75743636 97.55742493 1.74096336 94.015625 1.7265625 C92.80920097 1.72123882 91.60277695 1.71591515 90.35979462 1.71043015 C83.97391901 1.68367271 77.58806312 1.66430645 71.20214844 1.64990234 C64.59637049 1.63325185 57.99109119 1.58847735 51.38550186 1.5375309 C46.31548471 1.50391737 41.2455867 1.49233126 36.17546844 1.48667526 C33.7401524 1.47994607 31.30484464 1.46468113 28.86963654 1.44078445 C25.46247967 1.4092591 22.05667775 1.40907788 18.64941406 1.41650391 C17.13586334 1.3918959 17.13586334 1.3918959 15.59173584 1.36679077 C9.79062576 1.37917442 9.79062576 1.37917442 5.02191162 4.53646851 C4.02106537 5.7559166 4.02106537 5.7559166 3 7 C-0.10551666 7 -1.35261084 6.4606285 -4 5 C-3.01 4.67 -2.02 4.34 -1 4 C-0.26676204 1.98491642 -0.26676204 1.98491642 0 0 Z " fill="#2E5582" transform="translate(50,22)"/>
<path d="M0 0 C0.66 0 1.32 0 2 0 C2 22.77 2 45.54 2 69 C1.01 68.67 0.02 68.34 -1 68 C-1.02312611 59.28155997 -1.04091646 50.56313044 -1.05181217 41.84466648 C-1.05704041 37.79674258 -1.06413699 33.74883959 -1.07543945 29.70092773 C-1.08627043 25.79764029 -1.09227728 21.89437301 -1.09487724 17.9910717 C-1.09673111 16.49866353 -1.100351 15.00625652 -1.10573006 13.51385689 C-1.11294331 11.43051861 -1.11399083 9.34726469 -1.11352539 7.26391602 C-1.115746 6.07588882 -1.11796661 4.88786163 -1.12025452 3.66383362 C-1 1 -1 1 0 0 Z " fill="#7FAADD" transform="translate(163,68)"/>
<path d="M0 0 C0.66 0 1.32 0 2 0 C2 22.77 2 45.54 2 69 C1.01 68.67 0.02 68.34 -1 68 C-1.02312611 59.28155997 -1.04091646 50.56313044 -1.05181217 41.84466648 C-1.05704041 37.79674258 -1.06413699 33.74883959 -1.07543945 29.70092773 C-1.08627043 25.79764029 -1.09227728 21.89437301 -1.09487724 17.9910717 C-1.09673111 16.49866353 -1.100351 15.00625652 -1.10573006 13.51385689 C-1.11294331 11.43051861 -1.11399083 9.34726469 -1.11352539 7.26391602 C-1.115746 6.07588882 -1.11796661 4.88786163 -1.12025452 3.66383362 C-1 1 -1 1 0 0 Z " fill="#8AB8E8" transform="translate(59,68)"/>
<path d="M0 0 C1.33219796 -0.08326237 2.66604164 -0.14018053 4 -0.1875 C5.11375 -0.23970703 5.11375 -0.23970703 6.25 -0.29296875 C9 0 9 0 12.5 1.5 C18.18639986 3.75866047 23.97284186 3.32212724 30 3.1875 C31.73443359 3.16719727 31.73443359 3.16719727 33.50390625 3.14648438 C36.33643004 3.11137044 39.16796307 3.06219 42 3 C41.401875 3.268125 40.80375 3.53625 40.1875 3.8125 C37.96157799 4.87273775 37.96157799 4.87273775 36.49243164 6.60449219 C33.79393605 9.12773786 29.93797847 8.34385805 26.4375 8.25 C25.63135254 8.23904297 24.82520508 8.22808594 23.99462891 8.21679688 C18.2864123 8.11119544 12.66478437 7.73093992 7 7 C7 6.34 7 5.68 7 5 C5.68 4.67 4.36 4.34 3 4 C3 3.01 3 2.02 3 1 C2.01 0.67 1.02 0.34 0 0 Z " fill="#EB9B45" transform="translate(89,158)"/>
<path d="M0 0 C0.66 0 1.32 0 2 0 C2.00410889 0.78125244 2.00821777 1.56250488 2.01245117 2.36743164 C2.04549942 5.93320503 2.11615933 9.49729552 2.1875 13.0625 C2.19330078 14.29162109 2.19910156 15.52074219 2.20507812 16.78710938 C2.3843107 24.17547447 2.89232692 28.5176013 8 34 C7.360625 34.969375 6.72125 35.93875 6.0625 36.9375 C3.61648472 41.1553638 3.21790511 45.19519242 3 50 C1.01074219 48.65332031 1.01074219 48.65332031 -1 46 C-1.51914405 42.50914893 -1.32363456 39.06451937 -1.171875 35.546875 C-1.14401917 34.53151672 -1.11616333 33.51615845 -1.08746338 32.47003174 C-0.99414228 29.22910282 -0.87243428 25.98994703 -0.75 22.75 C-0.68172139 20.5521407 -0.61529268 18.3542231 -0.55078125 16.15625 C-0.3886421 10.76997291 -0.20319206 5.3848762 0 0 Z " fill="#0E2A65" transform="translate(62,93)"/>
<path d="M0 0 C0.33 0 0.66 0 1 0 C2.19314477 25.0845995 2.08965443 49.9118659 1 75 C-1 73 -1 73 -1.24723816 70.03282166 C-1.24581314 68.76120682 -1.24438812 67.48959198 -1.24291992 66.17944336 C-1.24576744 65.1280291 -1.24576744 65.1280291 -1.24867249 64.05537415 C-1.25238386 61.7334177 -1.24167206 59.4117725 -1.23046875 57.08984375 C-1.22927715 55.48084042 -1.22882374 53.87183639 -1.2290802 52.26283264 C-1.22751477 48.88928885 -1.21921989 45.5158511 -1.20581055 42.14233398 C-1.18880698 37.80866361 -1.18499655 33.4751097 -1.18575573 29.14140987 C-1.1854844 25.81896341 -1.18000938 22.49654263 -1.17275429 19.17410469 C-1.16956268 17.57564043 -1.16759907 15.97717325 -1.16686058 14.37870598 C-1.16470296 12.14947376 -1.15597182 9.92036747 -1.14526367 7.69116211 C-1.14145187 6.42034286 -1.13764008 5.14952362 -1.13371277 3.8401947 C-1 1 -1 1 0 0 Z " fill="#0F285E" transform="translate(148,53)"/>
<path d="M0 0 C0 0.99 0 1.98 0 3 C-1.55851755 3.82011312 -3.12201716 4.63076213 -4.6875 5.4375 C-5.99267578 6.11619141 -5.99267578 6.11619141 -7.32421875 6.80859375 C-11.44646833 8.64404794 -15.31783115 9.12445107 -19.80180359 9.13371277 C-20.73975769 9.13797775 -21.67771179 9.14224274 -22.64408875 9.14663696 C-24.16930901 9.14595718 -24.16930901 9.14595718 -25.7253418 9.14526367 C-27.34558762 9.15030159 -27.34558762 9.15030159 -28.99856567 9.15544128 C-32.56546175 9.16493339 -36.13231084 9.16689316 -39.69921875 9.16796875 C-42.17592895 9.17118122 -44.65263896 9.17454529 -47.12934875 9.17805481 C-52.31678711 9.18404078 -57.50420882 9.18589512 -62.69165039 9.18530273 C-68.02762473 9.18522112 -73.36350834 9.19184326 -78.69946289 9.20581055 C-85.13723507 9.22242385 -91.57494229 9.2293604 -98.01273537 9.22869301 C-100.47003356 9.22987666 -102.92733236 9.23431985 -105.38461876 9.24202538 C-108.81077008 9.25176766 -112.23668711 9.2489707 -115.6628418 9.24291992 C-117.1971711 9.25134918 -117.1971711 9.25134918 -118.76249695 9.25994873 C-120.15673889 9.253657 -120.15673889 9.253657 -121.57914734 9.24723816 C-122.79446908 9.24805531 -122.79446908 9.24805531 -124.03434277 9.24888897 C-126 9 -126 9 -128 7 C-127.16899182 7.00414807 -127.16899182 7.00414807 -126.3211956 7.00837994 C-112.7804015 7.07491396 -99.23963641 7.12422088 -85.6987133 7.15543652 C-79.15015412 7.17104337 -72.60171358 7.19219028 -66.05322266 7.22631836 C-59.72490408 7.25908984 -53.39669909 7.27689041 -47.06830215 7.28463173 C-44.66277404 7.29014343 -42.25725162 7.30090579 -39.85177231 7.31719017 C-21.72305282 7.46916225 -21.72305282 7.46916225 -4 4 C-4 3.01 -4 2.02 -4 1 C-2.68 0.67 -1.36 0.34 0 0 Z " fill="#1D1841" transform="translate(182,177)"/>
<path d="M0 0 C0.99 0.33 1.98 0.66 3 1 C3 12.88 3 24.76 3 37 C1.68 37 0.36 37 -1 37 C-1.0246501 31.89136104 -1.04283607 26.78275641 -1.05493164 21.67407227 C-1.05997204 19.93480832 -1.0668043 18.19554864 -1.07543945 16.45629883 C-1.08751792 13.96174063 -1.09323108 11.46723827 -1.09765625 8.97265625 C-1.10281754 8.19036148 -1.10797882 7.40806671 -1.11329651 6.60206604 C-1.11349226 4.73432886 -1.06199694 2.86670796 -1 1 C-0.67 0.67 -0.34 0.34 0 0 Z " fill="#77A9D9" transform="translate(65,83)"/>
<path d="M0 0 C0.33 0 0.66 0 1 0 C0.67 6.27 0.34 12.54 0 19 C0.66 19 1.32 19 2 19 C2 29.23 2 39.46 2 50 C0.35 50 -1.3 50 -3 50 C-3.66 49.34 -4.32 48.68 -5 48 C-5.53625 47.484375 -6.0725 46.96875 -6.625 46.4375 C-8 45 -8 45 -8 44 C-5.69 44.33 -3.38 44.66 -1 45 C-1.00222061 44.45098526 -1.00444122 43.90197052 -1.00672913 43.33631897 C-1.02878358 37.64292041 -1.04390726 31.9495339 -1.05493164 26.25610352 C-1.05997298 24.12881986 -1.06680591 22.00153969 -1.07543945 19.87426758 C-1.08751379 16.82372174 -1.09323014 13.77322155 -1.09765625 10.72265625 C-1.10281754 9.76537125 -1.10797882 8.80808624 -1.11329651 7.8217926 C-1.11337204 6.94095505 -1.11344757 6.06011749 -1.11352539 5.15258789 C-1.115746 4.37315323 -1.11796661 3.59371857 -1.12025452 2.79066467 C-1 1 -1 1 0 0 Z " fill="#66A4D5" transform="translate(92,81)"/>
<path d="M0 0 C1.32 0 2.64 0 4 0 C4 11.22 4 22.44 4 34 C2.68 34 1.36 34 0 34 C0 22.78 0 11.56 0 0 Z " fill="#6496C6" transform="translate(82,84)"/>
<path d="M0 0 C0.33 0.66 0.66 1.32 1 2 C1.66 2 2.32 2 3 2 C3 6.29 3 10.58 3 15 C4.423125 14.2575 4.423125 14.2575 5.875 13.5 C9 12 9 12 11 12 C11.33 11.01 11.66 10.02 12 9 C12.66 8.34 13.32 7.68 14 7 C14 14.92 14 22.84 14 31 C11.80202597 26.60405194 11.89926798 25.00732024 12.375 20.25 C12.54128906 18.49429688 12.54128906 18.49429688 12.7109375 16.703125 C12.80632812 15.81109375 12.90171875 14.9190625 13 14 C11.68 14.33 10.36 14.66 9 15 C8.67 17.64 8.34 20.28 8 23 C7.01 23 6.02 23 5 23 C5 21.35 5 19.7 5 18 C4.34 18 3.68 18 3 18 C2.34 21.3 1.68 24.6 1 28 C0.67 28 0.34 28 0 28 C0 18.76 0 9.52 0 0 Z " fill="#16386C" transform="translate(68,83)"/>
<path d="M0 0 C-1.35258896 7.88416983 -3.54399352 15.39353334 -6 23 C-10.875 18.25 -10.875 18.25 -12 16 C-10.35 16.33 -8.7 16.66 -7 17 C-6.86722656 16.31292969 -6.73445312 15.62585938 -6.59765625 14.91796875 C-6.42105469 14.01691406 -6.24445313 13.11585938 -6.0625 12.1875 C-5.88847656 11.29417969 -5.71445313 10.40085938 -5.53515625 9.48046875 C-5 7 -5 7 -4 4 C-8.62 4 -13.24 4 -18 4 C-18.33 5.32 -18.66 6.64 -19 8 C-22 4.25 -22 4.25 -22 2 C-14.58851545 0.71702277 -7.52719602 -0.25515919 0 0 Z " fill="#E4C688" transform="translate(161,141)"/>
<path d="M0 0 C2 2 2 2 2.22705078 5.80712891 C2.22673346 7.4469742 2.21539681 9.08684017 2.1953125 10.7265625 C2.1924826 11.58937836 2.18965271 12.45219421 2.18673706 13.34115601 C2.17552333 16.1025772 2.15041684 18.8636765 2.125 21.625 C2.11497173 23.49478699 2.10584562 25.36457905 2.09765625 27.234375 C2.07558012 31.82304109 2.04104234 36.41146593 2 41 C1.34 41 0.68 41 0 41 C-0.33 42.32 -0.66 43.64 -1 45 C-1.01981934 43.88963379 -1.03963867 42.77926758 -1.06005859 41.63525391 C-1.13601081 37.52385398 -1.2247436 33.41281282 -1.31738281 29.30175781 C-1.35571565 27.52090527 -1.39056089 25.73997416 -1.421875 23.95898438 C-1.46743271 21.40205766 -1.52544107 18.8456739 -1.5859375 16.2890625 C-1.60326431 15.09055161 -1.60326431 15.09055161 -1.62094116 13.86782837 C-1.57258944 9.46542788 -1.57258944 9.46542788 -4 6 C-3.67 5.34 -3.34 4.68 -3 4 C-2.34 4 -1.68 4 -1 4 C-0.67 2.68 -0.34 1.36 0 0 Z " fill="#092B5F" transform="translate(160,76)"/>
<path d="M0 0 C0.33 0 0.66 0 1 0 C1.02505615 0.68513672 1.0501123 1.37027344 1.07592773 2.07617188 C1.19285607 5.2175935 1.31513874 8.35878548 1.4375 11.5 C1.47681641 12.57765625 1.51613281 13.6553125 1.55664062 14.765625 C1.73824664 19.34768458 1.92511111 23.88957592 2.53125 28.4375 C2.93653464 31.51766327 3.10554843 34.4005132 3.0625 37.5 C3.05347656 38.3559375 3.04445312 39.211875 3.03515625 40.09375 C3.02355469 40.7228125 3.01195312 41.351875 3 42 C3.66 42.33 4.32 42.66 5 43 C5 43.66 5 44.32 5 45 C5.99 45.33 6.98 45.66 8 46 C8 46.66 8 47.32 8 48 C7.01 48 6.02 48 5 48 C5 48.99 5 49.98 5 51 C4.34 51.66 3.68 52.32 3 53 C2.54188325 54.97235333 2.54188325 54.97235333 2.375 57.125 C2.25125 58.40375 2.1275 59.6825 2 61 C1.67 61 1.34 61 1 61 C-0.38119076 48.42602553 -0.1116651 35.81736365 -0.0625 23.1875 C-0.05747512 20.93424579 -0.05291396 18.68099049 -0.04882812 16.42773438 C-0.03790047 10.95179894 -0.02124068 5.47590464 0 0 Z " fill="#294077" transform="translate(29,53)"/>
<path d="M0 0 C0.66 0.33 1.32 0.66 2 1 C2 14.53 2 28.06 2 42 C1.01 42 0.02 42 -1 42 C-1.02464638 36.17928378 -1.0428343 30.35859766 -1.05493164 24.5378418 C-1.05997267 22.55606559 -1.06680538 20.57429311 -1.07543945 18.5925293 C-1.08751515 15.75047891 -1.09323045 12.90847753 -1.09765625 10.06640625 C-1.10281754 9.17474258 -1.10797882 8.28307892 -1.11329651 7.36439514 C-1.11349177 5.24259399 -1.0621003 3.1208922 -1 1 C-0.67 0.67 -0.34 0.34 0 0 Z " fill="#84B1E6" transform="translate(53,81)"/>
<path d="M0 0 C0.66 0.33 1.32 0.66 2 1 C2 14.2 2 27.4 2 41 C1.01 41 0.02 41 -1 41 C-1.02464705 35.32169922 -1.04283462 29.64342931 -1.05493164 23.96508789 C-1.05997256 22.03181415 -1.06680519 20.09854424 -1.07543945 18.1652832 C-1.08751565 15.39273128 -1.09323057 12.62022959 -1.09765625 9.84765625 C-1.10281754 8.97786636 -1.10797882 8.10807648 -1.11329651 7.21192932 C-1.11349185 5.14094186 -1.06208168 3.07005676 -1 1 C-0.67 0.67 -0.34 0.34 0 0 Z " fill="#82B4E8" transform="translate(169,81)"/>
<path d="M0 0 C1.32 0 2.64 0 4 0 C4 9.57 4 19.14 4 29 C2.68 29 1.36 29 0 29 C0 19.43 0 9.86 0 0 Z " fill="#90BFEA" transform="translate(108,89)"/>
<path d="M0 0 C0.99 0 1.98 0 3 0 C3 12.87 3 25.74 3 39 C2.01 38.67 1.02 38.34 0 38 C0 25.46 0 12.92 0 0 Z " fill="#739DD8" transform="translate(102,91)"/>
<path d="M0 0 C0 0.66 0 1.32 0 2 C-2.90600261 3.25664978 -4.79604584 4 -8 4 C-7.99555878 4.55710159 -7.99111755 5.11420319 -7.98654175 5.68818665 C-7.94234265 11.47919147 -7.91214786 17.27014849 -7.89013672 23.0612793 C-7.88007049 25.22340847 -7.86641646 27.385524 -7.84912109 29.54760742 C-7.82490022 32.65286625 -7.81352319 35.7579453 -7.8046875 38.86328125 C-7.79436493 39.83211746 -7.78404236 40.80095367 -7.77340698 41.79914856 C-7.77325592 42.6998558 -7.77310486 43.60056305 -7.77294922 44.52856445 C-7.768508 45.32132278 -7.76406677 46.11408112 -7.75949097 46.93086243 C-8 49 -8 49 -10 52 C-10 35.5 -10 19 -10 2 C-3 0 -3 0 0 0 Z " fill="#7EB2E7" transform="translate(104,83)"/>
<path d="M0 0 C2.33175302 7.92084043 -0.39738288 14.91206028 -4 22 C-6.31 21.67 -8.62 21.34 -11 21 C-11 20.34 -11 19.68 -11 19 C-14.57335138 19.42880217 -17.78536858 19.92424773 -21.1875 21.125 C-24.16345922 22.05085398 -25.12903705 21.87296946 -28 21 C-27.18015625 20.66226563 -26.3603125 20.32453125 -25.515625 19.9765625 C-24.43796875 19.53054687 -23.3603125 19.08453125 -22.25 18.625 C-21.18265625 18.18414062 -20.1153125 17.74328125 -19.015625 17.2890625 C-16.62444074 16.26692415 -14.30616817 15.19786405 -12 14 C-10.02 15.65 -8.04 17.3 -6 19 C-5.85377197 18.45996338 -5.70754395 17.91992676 -5.55688477 17.36352539 C-4.89556445 14.92889078 -4.22910312 12.49569321 -3.5625 10.0625 C-3.33240234 9.21236328 -3.10230469 8.36222656 -2.86523438 7.48632812 C-2.53168945 6.27299805 -2.53168945 6.27299805 -2.19140625 5.03515625 C-1.88505249 3.91185913 -1.88505249 3.91185913 -1.57250977 2.76586914 C-1 1 -1 1 0 0 Z " fill="#322346" transform="translate(161,143)"/>
<path d="M0 0 C0.33 0 0.66 0 1 0 C1.81766841 9.7974197 2.10808811 19.54425926 2.125 29.375 C2.12951172 30.48673584 2.13402344 31.59847168 2.13867188 32.74389648 C2.13673828 33.78489502 2.13480469 34.82589355 2.1328125 35.8984375 C2.13112061 37.30101807 2.13112061 37.30101807 2.12939453 38.73193359 C2 41 2 41 1 43 C0.76970044 45.37123246 0.58880058 47.74741943 0.4375 50.125 C0.35371094 51.40632813 0.26992188 52.68765625 0.18359375 54.0078125 C0.12300781 54.99523437 0.06242187 55.98265625 0 57 C-0.33 57 -0.66 57 -1 57 C-1.02499595 51.13249002 -1.04299796 45.26501205 -1.05493164 39.39746094 C-1.05991446 37.40754658 -1.06670314 35.41763579 -1.07543945 33.42773438 C-1.12329773 22.23452696 -1.06125453 11.15334247 0 0 Z " fill="#2A2F63" transform="translate(29,101)"/>
<path d="M0 0 C0.99 0 1.98 0 3 0 C3 12.21 3 24.42 3 37 C2.01 37 1.02 37 0 37 C0 24.79 0 12.58 0 0 Z " fill="#A6D1F8" transform="translate(156,84)"/>
<path d="M0 0 C0.33 0 0.66 0 1 0 C1.02690104 2.79173055 1.04679053 5.58320348 1.0625 8.375 C1.07087891 9.1690625 1.07925781 9.963125 1.08789062 10.78125 C1.11328125 16.7734375 1.11328125 16.7734375 0 19 C-0.15411106 21.0307477 -0.24982453 23.06606421 -0.31640625 25.1015625 C-0.35830078 26.31328125 -0.40019531 27.525 -0.44335938 28.7734375 C-0.48267578 30.04445313 -0.52199219 31.31546875 -0.5625 32.625 C-0.60568359 33.90375 -0.64886719 35.1825 -0.69335938 36.5 C-0.79969886 39.66655348 -0.90172833 42.83318753 -1 46 C-1.33 46 -1.66 46 -2 46 C-2.33 32.8 -2.66 19.6 -3 6 C-5.475 7.485 -5.475 7.485 -8 9 C-9.24546405 6.50907189 -8.7767578 5.58919267 -8 3 C-3.25 1.875 -3.25 1.875 -1 3 C-0.67 2.01 -0.34 1.02 0 0 Z " fill="#1B4076" transform="translate(57,76)"/>
<path d="M0 0 C0.33 0.99 0.66 1.98 1 3 C2.32 3 3.64 3 5 3 C5 3.66 5 4.32 5 5 C6.32 5.33 7.64 5.66 9 6 C8.67 6.66 8.34 7.32 8 8 C6.96875 7.938125 5.9375 7.87625 4.875 7.8125 C1.01912532 7.70269056 1.01912532 7.70269056 -1.8125 9.625 C-6.49729396 11.64589151 -10.21185037 10.31532174 -15 9 C-12.49123194 7.32748796 -10.84047066 6.53143956 -8.0625 5.625 C-4.5603512 4.36732225 -2.41151127 2.91390945 0 0 Z " fill="#EEAD4C" transform="translate(143,150)"/>
<path d="M0 0 C4.90256367 1.40708021 9.79767932 1.30624568 14.86328125 1.2890625 C15.80558594 1.30517578 16.74789062 1.32128906 17.71875 1.33789062 C23.35742836 1.34179013 27.88653322 0.67020252 33.11767578 -1.47583008 C34.98828125 -2.0234375 34.98828125 -2.0234375 37.98828125 -1.0234375 C36.23921594 -0.37507708 34.48898906 0.27015034 32.73828125 0.9140625 C31.76375 1.27371094 30.78921875 1.63335937 29.78515625 2.00390625 C19.33372406 5.63855236 6.84772448 5.13883334 -3.59765625 1.7109375 C-7.36640825 0.56445631 -11.09491253 0.29761219 -15.01171875 -0.0234375 C-15.01171875 -0.3534375 -15.01171875 -0.6834375 -15.01171875 -1.0234375 C-9.4616374 -2.21274065 -5.36013411 -1.82147229 0 0 Z " fill="#391E30" transform="translate(99.01171875,155.0234375)"/>
<path d="M0 0 C1.32 0 2.64 0 4 0 C4 6.27 4 12.54 4 19 C2.68 19 1.36 19 0 19 C0 12.73 0 6.46 0 0 Z " fill="#8BB0E1" transform="translate(45,93)"/>
<path d="M0 0 C1.32 0.66 2.64 1.32 4 2 C4 2.99 4 3.98 4 5 C3.01 5 2.02 5 1 5 C1 5.66 1 6.32 1 7 C-6.77842038 10.67587798 -13.81259604 11.38628618 -22.3125 11.375 C-23.25496582 11.37628906 -24.19743164 11.37757813 -25.16845703 11.37890625 C-30.47540989 11.29620537 -34.97860084 10.73151695 -40 9 C-36.85483937 7.98905551 -35.14786958 8.20239914 -32 9 C-30.64404403 9.08778022 -29.28457371 9.13057475 -27.92578125 9.1328125 C-27.17619141 9.13410156 -26.42660156 9.13539063 -25.65429688 9.13671875 C-24.88150391 9.13285156 -24.10871094 9.12898437 -23.3125 9.125 C-22.1359082 9.13080078 -22.1359082 9.13080078 -20.93554688 9.13671875 C-17.1624953 9.49520741 -17.1624953 9.49520741 -14 8 C-11.49193151 7.46512518 -8.97192079 7.03594544 -6.4453125 6.59765625 C-3.76534231 6.0900515 -3.76534231 6.0900515 -1 4 C-0.27617533 1.94074861 -0.27617533 1.94074861 0 0 Z " fill="#241C52" transform="translate(136,146)"/>
<path d="M0 0 C0.66 0 1.32 0 2 0 C2.1938211 2.97888126 2.38035102 5.95790246 2.5625 8.9375 C2.61857422 9.78763672 2.67464844 10.63777344 2.73242188 11.51367188 C2.78076172 12.32255859 2.82910156 13.13144531 2.87890625 13.96484375 C2.94960327 15.08814087 2.94960327 15.08814087 3.02172852 16.23413086 C3 18 3 18 2 19 C1.92851801 20.35243917 1.91600546 21.70834367 1.9375 23.0625 C1.958125 24.361875 1.97875 25.66125 2 27 C1.34 27.33 0.68 27.66 0 28 C-3.51510449 20.96979103 -0.88590964 7.60933099 0 0 Z " fill="#122165" transform="translate(97,112)"/>
<path d="M0 0 C4.72453508 1.09027733 8.1229998 1.92424971 11 6 C10.75 8.25 10.75 8.25 10 10 C11.98 10 13.96 10 16 10 C16 10.66 16 11.32 16 12 C9.63610247 11.7348376 5.55048933 9.46680217 1 5 C-0.23046875 2.80078125 -0.23046875 2.80078125 -1 1 C-0.67 0.67 -0.34 0.34 0 0 Z " fill="#1A134E" transform="translate(37,172)"/>
<path d="M0 0 C0.33 0 0.66 0 1 0 C1.19947428 3.95782306 1.38235481 7.91625379 1.5625 11.875 C1.61857422 12.98359375 1.67464844 14.0921875 1.73242188 15.234375 C2.02790754 21.93205011 1.90159021 28.35324008 1 35 C0.34 34.67 -0.32 34.34 -1 34 C-1.02465288 29.31860746 -1.04283739 24.63725241 -1.05493164 19.95581055 C-1.05997157 18.36205386 -1.0668035 16.76830181 -1.07543945 15.17456055 C-1.08751999 12.88849747 -1.09323155 10.60249533 -1.09765625 8.31640625 C-1.10281754 7.59973282 -1.10797882 6.88305939 -1.11329651 6.14466858 C-1.11349263 4.42936328 -1.06192007 2.71418734 -1 1 C-0.67 0.67 -0.34 0.34 0 0 Z " fill="#113E6C" transform="translate(148,53)"/>
<path d="M0 0 C0.99 0.33 1.98 0.66 3 1 C3 6.28 3 11.56 3 17 C1.68 17 0.36 17 -1 17 C-1.02684679 14.35409986 -1.04676357 11.70846904 -1.0625 9.0625 C-1.07087891 8.30775391 -1.07925781 7.55300781 -1.08789062 6.77539062 C-1.09652441 4.85005687 -1.05224333 2.92464419 -1 1 C-0.67 0.67 -0.34 0.34 0 0 Z " fill="#93BDE5" transform="translate(133,86)"/>
<path d="M0 0 C0.33 0 0.66 0 1 0 C1.28698578 3.49797765 1.52274988 6.99767461 1.75 10.5 C1.83121094 11.48226562 1.91242188 12.46453125 1.99609375 13.4765625 C2.39344908 20.09915141 1.63979752 24.43400875 -2 30 C-2.37962891 30.598125 -2.75925781 31.19625 -3.15039062 31.8125 C-4.07214496 33.22705727 -5.03178167 34.61683096 -6 36 C-7.35592177 31.93223469 -5.78099534 29.63973255 -4 26 C-3.48308594 25.14792969 -2.96617187 24.29585937 -2.43359375 23.41796875 C-0.49660116 18.7997984 -0.43634704 14.58595861 -0.3125 9.625 C-0.27833984 8.69816406 -0.24417969 7.77132812 -0.20898438 6.81640625 C-0.12700448 4.54439188 -0.05769506 2.27273896 0 0 Z " fill="#1C164E" transform="translate(192,141)"/>
<path d="M0 0 C2.54152079 2.54152079 2.26060808 4.19760983 2.2734375 7.66796875 C2.26570312 8.39628906 2.25796875 9.12460938 2.25 9.875 C2.25773438 10.59558594 2.26546875 11.31617187 2.2734375 12.05859375 C2.25945445 15.85499069 2.12233599 18.78280815 0 22 C-0.33 22 -0.66 22 -1 22 C-1.04898438 21.01257813 -1.09796875 20.02515625 -1.1484375 19.0078125 C-1.22320312 17.72648437 -1.29796875 16.44515625 -1.375 15.125 C-1.44460937 13.84882812 -1.51421875 12.57265625 -1.5859375 11.2578125 C-1.67241106 7.91938301 -1.67241106 7.91938301 -4 6 C-3.67 5.34 -3.34 4.68 -3 4 C-2.34 4 -1.68 4 -1 4 C-0.67 2.68 -0.34 1.36 0 0 Z " fill="#113868" transform="translate(160,76)"/>
<path d="M0 0 C-0.92961422 1.15224028 -1.8690125 2.29659176 -2.8125 3.4375 C-3.59560547 4.39462891 -3.59560547 4.39462891 -4.39453125 5.37109375 C-6 7 -6 7 -9 8 C-11.29633824 11.44450737 -11.54016485 13.93812283 -12 18 C-14 16 -14 16 -14.375 13.25 C-13.77881371 8.08305216 -11.21073763 5.17969307 -7.5625 1.625 C-4.72635911 -0.17352837 -3.28980238 -0.37597742 0 0 Z " fill="#72A4D5" transform="translate(130,110)"/>
<path d="M0 0 C0.66 0.33 1.32 0.66 2 1 C2 7.27 2 13.54 2 20 C-7 18 -7 18 -9 17 C-9 16.34 -9 15.68 -9 15 C-3.25 14.875 -3.25 14.875 -1 16 C-0.67 10.72 -0.34 5.44 0 0 Z " fill="#6CADD6" transform="translate(143,95)"/>
<path d="M0 0 C3.7952131 1.49097658 5.61042731 3.75700849 8 7 C2.375 10 2.375 10 -1 10 C-1.33 10.99 -1.66 11.98 -2 13 C-2.19294408 8.17639811 -1.75747614 4.50353262 0 0 Z " fill="#75C2E2" transform="translate(70,43)"/>
<path d="M0 0 C0.99 0.33 1.98 0.66 3 1 C3 5.62 3 10.24 3 15 C1.68 15 0.36 15 -1 15 C-1.02685412 12.68756208 -1.04632841 10.3750373 -1.0625 8.0625 C-1.07410156 6.77472656 -1.08570312 5.48695312 -1.09765625 4.16015625 C-1 1 -1 1 0 0 Z " fill="#678DC7" transform="translate(115,95)"/>
<path d="M0 0 C0.33 0 0.66 0 1 0 C1 11.22 1 22.44 1 34 C0.01 34 -0.98 34 -2 34 C-2.02708567 32.39592672 -2.04643483 30.7917215 -2.0625 29.1875 C-2.07410156 28.29417969 -2.08570313 27.40085937 -2.09765625 26.48046875 C-2 24 -2 24 -1 21 C-0.85284801 19.37432921 -0.75278133 17.74413143 -0.68359375 16.11328125 C-0.64169922 15.17548828 -0.59980469 14.23769531 -0.55664062 13.27148438 C-0.51732422 12.29501953 -0.47800781 11.31855469 -0.4375 10.3125 C-0.39431641 9.32443359 -0.35113281 8.33636719 -0.30664062 7.31835938 C-0.20058346 4.87904454 -0.09852286 2.43962887 0 0 Z " fill="#709ED4" transform="translate(170,88)"/>
<path d="M0 0 C2.86697492 1.28519565 4.97607712 2.57129254 7 5 C7 5.66 7 6.32 7 7 C7.66 7.33 8.32 7.66 9 8 C6.03 7.505 6.03 7.505 3 7 C3 6.34 3 5.68 3 5 C-0.57335138 5.42880217 -3.78536858 5.92424773 -7.1875 7.125 C-10.16345922 8.05085398 -11.12903705 7.87296946 -14 7 C-13.15695313 6.66226563 -12.31390625 6.32453125 -11.4453125 5.9765625 C-10.34960938 5.53054687 -9.25390625 5.08453125 -8.125 4.625 C-7.03445312 4.18414062 -5.94390625 3.74328125 -4.8203125 3.2890625 C-1.93670638 2.16948662 -1.93670638 2.16948662 0 0 Z " fill="#381D35" transform="translate(147,157)"/>
<path d="M0 0 C1.32 1.65 2.64 3.3 4 5 C3.34 5 2.68 5 2 5 C2 12.92 2 20.84 2 29 C1.34 29 0.68 29 0 29 C0 19.43 0 9.86 0 0 Z " fill="#092B62" transform="translate(112,89)"/>
<path d="M0 0 C0.99 0 1.98 0 3 0 C3 5.94 3 11.88 3 18 C2.01 18.33 1.02 18.66 0 19 C0 12.73 0 6.46 0 0 Z " fill="#9DC8F7" transform="translate(175,93)"/>
<path d="M0 0 C0.29341888 5.67276511 0.00559652 8.99067246 -3 14 C-4.04005702 10.61981469 -4.08004482 7.5219721 -4 4 C-4.99 3.67 -5.98 3.34 -7 3 C-7.33 2.67 -7.66 2.34 -8 2 C-9.32594105 1.63837971 -10.65938457 1.30271961 -12 1 C-7.67265609 -1.22923777 -4.71599818 -0.92470553 0 0 Z " fill="#252560" transform="translate(165,137)"/>
<path d="M0 0 C-0.33 0.66 -0.66 1.32 -1 2 C-1.66 2 -2.32 2 -3 2 C-3.33 2.66 -3.66 3.32 -4 4 C-5.32 4 -6.64 4 -8 4 C-8.28875 4.639375 -8.5775 5.27875 -8.875 5.9375 C-10 8 -10 8 -12 9 C-14.125 8.0625 -14.125 8.0625 -16 7 C-10.55226178 1.24960965 -7.9911838 -0.30735322 0 0 Z " fill="#6DA3D8" transform="translate(83,124)"/>
<path d="M0 0 C2.64 0 5.28 0 8 0 C6.64978174 4.41889613 4.73884332 6.34345343 1 9 C0.01 8.01 -0.98 7.02 -2 6 C-1.34 4.02 -0.68 2.04 0 0 Z " fill="#589CCE" transform="translate(138,126)"/>
<path d="M0 0 C0.66 0 1.32 0 2 0 C2 3.3 2 6.6 2 10 C1.01 10.495 1.01 10.495 0 11 C-0.66 10.34 -1.32 9.68 -2 9 C-3.98 10.32 -5.96 11.64 -8 13 C-8.33 11.68 -8.66 10.36 -9 9 C-8.34 9 -7.68 9 -7 9 C-6.67 7.02 -6.34 5.04 -6 3 C-5.34 3.33 -4.68 3.66 -4 4 C-4 4.99 -4 5.98 -4 7 C-2.68 7 -1.36 7 0 7 C-0.2784375 5.824375 -0.2784375 5.824375 -0.5625 4.625 C-1 2 -1 2 0 0 Z " fill="#1C3875" transform="translate(190,97)"/>
<path d="M0 0 C1.7941758 2.56310828 2 3.83119306 2 7 C0.68 7 -0.64 7 -2 7 C-2.33 6.01 -2.66 5.02 -3 4 C-3.66 5.32 -4.32 6.64 -5 8 C-5.66 8 -6.32 8 -7 8 C-7 5.36 -7 2.72 -7 0 C-4.25509788 -1.37245106 -2.87939419 -0.93580311 0 0 Z " fill="#4D6EAA" transform="translate(188,97)"/>
<path d="M0 0 C0.33 0 0.66 0 1 0 C1 6.27 1 12.54 1 19 C0.01 19 -0.98 19 -2 19 C-2 13.39 -2 7.78 -2 2 C-1.34 2 -0.68 2 0 2 C0 1.34 0 0.68 0 0 Z " fill="#95B8EA" transform="translate(158,102)"/>
<path d="M0 0 C0.66 0.33 1.32 0.66 2 1 C2 6.61 2 12.22 2 18 C1.01 18 0.02 18 -1 18 C-1.02684312 15.18743719 -1.04676188 12.37512759 -1.0625 9.5625 C-1.07087891 8.76005859 -1.07925781 7.95761719 -1.08789062 7.13085938 C-1.0965143 5.08704779 -1.0522815 3.04316098 -1 1 C-0.67 0.67 -0.34 0.34 0 0 Z " fill="#7CA4DE" transform="translate(53,105)"/>
<path d="M0 0 C1.64826111 2.96687001 2.44271087 5.65626525 3 9 C1.68 9 0.36 9 -1 9 C-1.33 8.01 -1.66 7.02 -2 6 C-2.33 7.65 -2.66 9.3 -3 11 C-3.99 11 -4.98 11 -6 11 C-6 8.69 -6 6.38 -6 4 C-4.68 3.67 -3.36 3.34 -2 3 C-2 2.34 -2 1.68 -2 1 C-1.34 0.67 -0.68 0.34 0 0 Z " fill="#465E9C" transform="translate(127,95)"/>
<path d="M0 0 C10.395 3.465 10.395 3.465 21 7 C21 7.33 21 7.66 21 8 C13.86025269 8.54687426 7.1484032 8.02440936 1 4 C0.67 2.68 0.34 1.36 0 0 Z " fill="#34193B" transform="translate(81,159)"/>
<path d="M0 0 C0.66 0.33 1.32 0.66 2 1 C2 9.25 2 17.5 2 26 C1.34 26 0.68 26 0 26 C0.01160156 25.40832031 0.02320313 24.81664063 0.03515625 24.20703125 C0.04417969 23.41683594 0.05320313 22.62664062 0.0625 21.8125 C0.07990234 20.64654297 0.07990234 20.64654297 0.09765625 19.45703125 C0.07204328 16.98981577 0.07204328 16.98981577 -0.53125 14.59375 C-1.09151308 11.49362764 -0.87210766 8.81797741 -0.5625 5.6875 C-0.46066406 4.61886719 -0.35882813 3.55023438 -0.25390625 2.44921875 C-0.17011719 1.64097656 -0.08632812 0.83273438 0 0 Z " fill="#123168" transform="translate(153,83)"/>
<path d="M0 0 C0.66 0 1.32 0 2 0 C2.33 2.31 2.66 4.62 3 7 C1.68 7 0.36 7 -1 7 C-3.73219193 8.91859167 -3.73219193 8.91859167 -6 11 C-6 8.69 -6 6.38 -6 4 C-5.38125 3.896875 -4.7625 3.79375 -4.125 3.6875 C-1.63473516 3.12474627 -1.63473516 3.12474627 0 0 Z " fill="#4D6EAA" transform="translate(40,97)"/>
<path d="M0 0 C3.68428193 3.28953744 5.8406504 6.60132489 8 11 C7.67 11.99 7.34 12.98 7 14 C5.68 13.67 4.36 13.34 3 13 C3 12.34 3 11.68 3 11 C2.34 11 1.68 11 1 11 C0.67 7.37 0.34 3.74 0 0 Z " fill="#2D5581" transform="translate(185,30)"/>
<path d="M0 0 C0.66 0.33 1.32 0.66 2 1 C2 2.98 2 4.96 2 7 C1.37351562 7.04898438 0.74703125 7.09796875 0.1015625 7.1484375 C-0.71570313 7.22320312 -1.53296875 7.29796875 -2.375 7.375 C-3.18710938 7.44460937 -3.99921875 7.51421875 -4.8359375 7.5859375 C-7.20334191 7.82892588 -7.20334191 7.82892588 -9 10 C-12.125 10.125 -12.125 10.125 -15 10 C-14 7 -14 7 -12 5.9375 C-8.04952658 4.70297706 -4.05244642 3.82991277 0 3 C0 2.01 0 1.02 0 0 Z " fill="#1F1A5C" transform="translate(94,147)"/>
<path d="M0 0 C0.33 0 0.66 0 1 0 C1.03738281 0.65226563 1.07476562 1.30453125 1.11328125 1.9765625 C1.52228825 7.41394969 2.40111189 11.14120918 5 16 C5.1875 18.875 5.1875 18.875 5 21 C1.27844005 17.79175867 -0.37911471 14.61952308 -2 10 C-2.1875 7.0625 -2.1875 7.0625 -2 5 C-1.67 5 -1.34 5 -1 5 C-0.67 3.35 -0.34 1.7 0 0 Z " fill="#1A164C" transform="translate(31,152)"/>
<path d="M0 0 C2 2 2 2 2.13525391 4.06298828 C2.08288574 4.89040527 2.03051758 5.71782227 1.9765625 6.5703125 C1.925 7.46621094 1.8734375 8.36210938 1.8203125 9.28515625 C1.75585938 10.22230469 1.69140625 11.15945312 1.625 12.125 C1.56828125 13.06988281 1.5115625 14.01476562 1.453125 14.98828125 C1.31142903 17.32626481 1.16000217 19.66320944 1 22 C-1.73825423 18.90239482 -2.35494989 17.04932506 -2.1875 12.9375 C-2.16042969 12.08027344 -2.13335937 11.22304687 -2.10546875 10.33984375 C-2.07066406 9.56769531 -2.03585938 8.79554687 -2 8 C-2 7.01 -2 6.02 -2 5 C-1.37400383 3.31763529 -0.71247732 1.6476038 0 0 Z " fill="#122E66" transform="translate(44,91)"/>
<path d="M0 0 C1.23556641 0.01740234 1.23556641 0.01740234 2.49609375 0.03515625 C3.32238281 0.04417969 4.14867188 0.05320312 5 0.0625 C5.63808594 0.07410156 6.27617188 0.08570312 6.93359375 0.09765625 C3.28477699 2.16936295 -0.59874318 3.17333703 -4.62890625 4.22265625 C-5.30115234 4.40441406 -5.97339844 4.58617188 -6.66601562 4.7734375 C-9.5537148 5.53622596 -12.06614835 6.09765625 -15.06640625 6.09765625 C-14.73640625 5.10765625 -14.40640625 4.11765625 -14.06640625 3.09765625 C-10.26759647 1.45726112 -7.16737258 0.98048578 -3.06640625 1.09765625 C-2.06640625 0.09765625 -2.06640625 0.09765625 0 0 Z " fill="#6AB1D5" transform="translate(121.06640625,77.90234375)"/>
<path d="M0 0 C0 0.99 0 1.98 0 3 C-3.3 4.32 -6.6 5.64 -10 7 C-10 7.33 -10 7.66 -10 8 C-14.62 8.33 -19.24 8.66 -24 9 C-20.82623915 5.82623915 -16.3934312 5.53947233 -12.1171875 4.58789062 C-7.71945069 3.56202451 -3.99005421 2.20205822 0 0 Z " fill="#D4A271" transform="translate(139,152)"/>
<path d="M0 0 C1.98 0.66 3.96 1.32 6 2 C6 2.66 6 3.32 6 4 C7.03060547 4.09087891 7.03060547 4.09087891 8.08203125 4.18359375 C9.43361328 4.30927734 9.43361328 4.30927734 10.8125 4.4375 C11.70582031 4.51871094 12.59914063 4.59992188 13.51953125 4.68359375 C16 5 16 5 19 6 C15.28669655 8.47553563 13.63793175 8.24719237 9.36328125 7.6875 C5.42302771 6.54124442 2.6844869 4.03839032 0 1 C0 0.67 0 0.34 0 0 Z " fill="#5676BE" transform="translate(66,144)"/>
<path d="M0 0 C4.62 0 9.24 0 14 0 C13.67 1.65 13.34 3.3 13 5 C11.02 5 9.04 5 7 5 C6.67 4.01 6.34 3.02 6 2 C4.35 1.67 2.7 1.34 1 1 C0.67 2.32 0.34 3.64 0 5 C0 3.35 0 1.7 0 0 Z " fill="#F6C85D" transform="translate(143,145)"/>
<path d="M0 0 C0.33 0 0.66 0 1 0 C1.71245634 6.887078 1.71245634 6.887078 -0.1953125 9.8671875 C-1.74572693 11.49551221 -3.07418143 12.83390802 -5 14 C-6.32 14 -7.64 14 -9 14 C-9.33 13.01 -9.66 12.02 -10 11 C-6.535 10.505 -6.535 10.505 -3 10 C-3.33 9.01 -3.66 8.02 -4 7 C-3.34 6.67 -2.68 6.34 -2 6 C-1.27306096 4.02111039 -0.60183749 2.02045442 0 0 Z " fill="#608ACB" transform="translate(93,136)"/>
<path d="M0 0 C3.60800902 0 6.75271264 0.37635632 10 2 C10 2.66 10 3.32 10 4 C8.71073008 4.36279456 7.41846728 4.71496698 6.125 5.0625 C5.04605469 5.35833984 5.04605469 5.35833984 3.9453125 5.66015625 C2 6 2 6 0 5 C-0.6875 3 -0.6875 3 -1 1 C-0.67 0.67 -0.34 0.34 0 0 Z " fill="#73BEDD" transform="translate(131,45)"/>
<path d="M0 0 C2.0625 0.1875 2.0625 0.1875 4 1 C4.33 1.99 4.66 2.98 5 4 C3.68 5.32 2.36 6.64 1 8 C0.01 7.67 -0.98 7.34 -2 7 C-2.125 4.625 -2.125 4.625 -2 2 C-1.34 1.34 -0.68 0.68 0 0 Z " fill="#1D286E" transform="translate(65,124)"/>
<path d="M0 0 C0 0.66 0 1.32 0 2 C-2.90600261 3.25664978 -4.79604584 4 -8 4 C-8 6.64 -8 9.28 -8 12 C-8.66 12 -9.32 12 -10 12 C-10 8.7 -10 5.4 -10 2 C-3.375 0 -3.375 0 0 0 Z " fill="#73B4DE" transform="translate(104,83)"/>
<path d="M0 0 C0.99 0.33 1.98 0.66 3 1 C3 4.63 3 8.26 3 12 C2.34 12 1.68 12 1 12 C0.67 13.32 0.34 14.64 0 16 C0 10.72 0 5.44 0 0 Z " fill="#1E3E75" transform="translate(178,92)"/>
<path d="M0 0 C0.66 0 1.32 0 2 0 C3.31626692 3.61973402 4 6.09567131 4 10 C2.35 10 0.7 10 -1 10 C-1.125 2.25 -1.125 2.25 0 0 Z " fill="#435C95" transform="translate(150,94)"/>
<path d="M0 0 C0.33 0 0.66 0 1 0 C1 4.29 1 8.58 1 13 C0.01 13.495 0.01 13.495 -1 14 C-3.20954743 6.75759454 -3.20954743 6.75759454 -2.1875 3.0625 C-1 1 -1 1 0 0 Z " fill="#15346C" transform="translate(131,91)"/>
<path d="M0 0 C-4.30635874 3.12211008 -8.73783128 5.86021852 -14 7 C-16.2421875 6.57421875 -16.2421875 6.57421875 -18 6 C-15.56781941 4.80036357 -13.13029422 3.61515562 -10.6875 2.4375 C-9.99720703 2.09525391 -9.30691406 1.75300781 -8.59570312 1.40039062 C-3.33984375 -1.11328125 -3.33984375 -1.11328125 0 0 Z " fill="#D5A06C" transform="translate(147,158)"/>
<path d="M0 0 C0.33 0.66 0.66 1.32 1 2 C1.99 2 2.98 2 4 2 C3.67 5.96 3.34 9.92 3 14 C-1 10 -1 10 -1.171875 7.421875 C-1.03265625 6.54015625 -0.8934375 5.6584375 -0.75 4.75 C-0.62109375 3.85796875 -0.4921875 2.9659375 -0.359375 2.046875 C-0.18148437 1.03367188 -0.18148437 1.03367188 0 0 Z " fill="#0D1D62" transform="translate(62,129)"/>
<path d="M0 0 C0 2.31 0 4.62 0 7 C-0.99 6.34 -1.98 5.68 -3 5 C-5.62531524 4.83286431 -5.62531524 4.83286431 -8 5 C-7.67 3.68 -7.34 2.36 -7 1 C-4.50935112 0.31292445 -2.62113708 0 0 0 Z " fill="#78C8E4" transform="translate(145,54)"/>
<path d="M0 0 C-0.66 2.97 -1.32 5.94 -2 9 C-2.33 9 -2.66 9 -3 9 C-3 6.69 -3 4.38 -3 2 C-6.3 2 -9.6 2 -13 2 C-8.0811341 -0.45943295 -5.41699411 -0.15932336 0 0 Z " fill="#EBD9B3" transform="translate(161,141)"/>
<path d="M0 0 C0.66 0.33 1.32 0.66 2 1 C2 4.96 2 8.92 2 13 C1.34 13 0.68 13 0 13 C-0.94738023 10.15785932 -1.13460559 8.32391609 -1.125 5.375 C-1.12757812 4.57835938 -1.13015625 3.78171875 -1.1328125 2.9609375 C-1 1 -1 1 0 0 Z " fill="#8CBAE9" transform="translate(53,81)"/>
<path d="M0 0 C0 0.99 0 1.98 0 3 C-2.24495708 4.12247854 -3.88443155 4.26831921 -6.375 4.5 C-9.3462775 4.77824672 -12.11987066 5.21092347 -15 6 C-15.33 5.34 -15.66 4.68 -16 4 C-10.72 2.68 -5.44 1.36 0 0 Z " fill="#154272" transform="translate(136,76)"/>
<path d="M0 0 C2.5 1.8125 2.5 1.8125 5 4 C5 4.99 5 5.98 5 7 C2.36 7 -0.28 7 -3 7 C-3 6.34 -3 5.68 -3 5 C-2.01 5 -1.02 5 0 5 C0 3.35 0 1.7 0 0 Z " fill="#72B6DC" transform="translate(81,56)"/>
<path d="M0 0 C0 0.99 0 1.98 0 3 C-10.37357631 8.74031891 -10.37357631 8.74031891 -16 8 C-12.20458337 5.78600697 -8.24370579 4.99019802 -4 4 C-4 3.01 -4 2.02 -4 1 C-2.68 0.67 -1.36 0.34 0 0 Z " fill="#150F3C" transform="translate(182,177)"/>
<path d="M0 0 C0.33 0 0.66 0 1 0 C1.05399736 1.45792884 1.09279177 2.91642712 1.125 4.375 C1.14820313 5.18710938 1.17140625 5.99921875 1.1953125 6.8359375 C1 9 1 9 -1 11 C-2.65 8.69 -4.3 6.38 -6 4 C-3.525 4.495 -3.525 4.495 -1 5 C-0.67 3.35 -0.34 1.7 0 0 Z " fill="#D3A87A" transform="translate(155,153)"/>
<path d="M0 0 C3.51005335 1.6380249 6.45543849 3.03134491 9 6 C3.57857143 6.36964286 3.57857143 6.36964286 0.75 4.5625 C0.1725 4.046875 -0.405 3.53125 -1 3 C-1.66 2.67 -2.32 2.34 -3 2 C-2.01 1.34 -1.02 0.68 0 0 Z " fill="#2F4D6D" transform="translate(175,23)"/>
<path d="M0 0 C0.66 0 1.32 0 2 0 C3.1577506 3.47325181 3.06866652 6.36067448 3 10 C2.01 10 1.02 10 0 10 C0 6.7 0 3.4 0 0 Z " fill="#7BA0DB" transform="translate(168,112)"/>
<path d="M0 0 C2 2 2 2 2.125 5.125 C2.08375 6.07375 2.0425 7.0225 2 8 C-0.97 7.505 -0.97 7.505 -4 7 C-3.67 6.01 -3.34 5.02 -3 4 C-2.34 4 -1.68 4 -1 4 C-0.67 2.68 -0.34 1.36 0 0 Z " fill="#1B3F75" transform="translate(160,76)"/>
<path d="M0 0 C-0.33 0.66 -0.66 1.32 -1 2 C-3.14453125 2.703125 -3.14453125 2.703125 -5.8125 3.25 C-6.68519531 3.44078125 -7.55789062 3.6315625 -8.45703125 3.828125 C-11.31326419 4.021173 -12.6043839 3.49656204 -15 2 C-13.06524329 1.46906676 -11.12706845 0.95057683 -9.1875 0.4375 C-8.10855469 0.14746094 -7.02960938 -0.14257812 -5.91796875 -0.44140625 C-3 -1 -3 -1 0 0 Z " fill="#111E66" transform="translate(91,150)"/>
<path d="M0 0 C0.99 0 1.98 0 3 0 C3 2.97 3 5.94 3 9 C2.01 9 1.02 9 0 9 C0 6.03 0 3.06 0 0 Z " fill="#89B7E9" transform="translate(77,98)"/>
<path d="M0 0 C0.66 0.33 1.32 0.66 2 1 C1.67 1.99 1.34 2.98 1 4 C-3.36228979 6.028972 -6.35656242 6.10558038 -11 5 C-10.01 4.67 -9.02 4.34 -8 4 C-7.67 3.34 -7.34 2.68 -7 2 C-7 2.66 -7 3.32 -7 4 C-6.401875 3.67 -5.80375 3.34 -5.1875 3 C-3 2 -3 2 0 2 C0 1.34 0 0.68 0 0 Z " fill="#1D5381" transform="translate(94,37)"/>
<path d="M0 0 C1.32 0.33 2.64 0.66 4 1 C0.375 5.875 0.375 5.875 -3 7 C-3 4 -3 4 -2 2 C-1.34 2 -0.68 2 0 2 C0 1.34 0 0.68 0 0 Z " fill="#5E8EC9" transform="translate(141,128)"/>
<path d="M0 0 C1.98 0 3.96 0 6 0 C5.67 0.66 5.34 1.32 5 2 C4.01 2 3.02 2 2 2 C1.67 5.63 1.34 9.26 1 13 C0.67 13 0.34 13 0 13 C0 8.71 0 4.42 0 0 Z " fill="#77BFE5" transform="translate(91,69)"/>
<path d="M0 0 C0.96661363 3.12180401 0.98988909 5.52083795 0.5625 8.75 C0.40974609 9.94882812 0.40974609 9.94882812 0.25390625 11.171875 C0.12822266 12.07679687 0.12822266 12.07679687 0 13 C-0.99 13 -1.98 13 -3 13 C-2.68991116 11.39536551 -2.37683713 9.79130769 -2.0625 8.1875 C-1.88847656 7.29417969 -1.71445313 6.40085937 -1.53515625 5.48046875 C-1 3 -1 3 0 0 Z " fill="#6EB4D9" transform="translate(67,52)"/>
<path d="M0 0 C-1 3 -1 3 -2.875 4.1875 C-5 5 -5 5 -8 5 C-7.67 3.35 -7.34 1.7 -7 0 C-3.98968256 -0.93423645 -3.13349732 -1.04449911 0 0 Z " fill="#1F4478" transform="translate(56,79)"/>
<path d="M0 0 C2.0625 0.4375 2.0625 0.4375 4 1 C4 1.66 4 2.32 4 3 C-3.38461538 5.21538462 -3.38461538 5.21538462 -6.5 4.125 C-6.995 3.75375 -7.49 3.3825 -8 3 C-6.865625 2.690625 -5.73125 2.38125 -4.5625 2.0625 C-1.21224901 1.37075469 -1.21224901 1.37075469 0 0 Z M-10 4 C-8 5 -8 5 -8 5 Z " fill="#1C5080" transform="translate(106,61)"/>
<path d="M0 0 C0.66 0 1.32 0 2 0 C1.71788123 1.6266848 1.42397625 3.25132896 1.125 4.875 C0.96257812 5.77992187 0.80015625 6.68484375 0.6328125 7.6171875 C0 10 0 10 -2 12 C-2.33 9.69 -2.66 7.38 -3 5 C-2.34 5 -1.68 5 -1 5 C-0.67 3.35 -0.34 1.7 0 0 Z " fill="#164C7A" transform="translate(65,52)"/>
<path d="M0 0 C-0.33 0.99 -0.66 1.98 -1 3 C-3.64 2.67 -6.28 2.34 -9 2 C-5.945634 -1.054366 -3.9532319 -1.22686507 0 0 Z " fill="#1C1757" transform="translate(150,162)"/>
<path d="M0 0 C0.66 0 1.32 0 2 0 C2 0.66 2 1.32 2 2 C2.66 2 3.32 2 4 2 C3.67 3.32 3.34 4.64 3 6 C1.0625 5.6875 1.0625 5.6875 -1 5 C-1.33 4.01 -1.66 3.02 -2 2 C-1.34 1.34 -0.68 0.68 0 0 Z " fill="#19346B" transform="translate(104,86)"/>
<path d="M0 0 C2.97 0 5.94 0 9 0 C9.33 0.66 9.66 1.32 10 2 C7.03 1.505 7.03 1.505 4 1 C4.33 1.99 4.66 2.98 5 4 C4.01 4 3.02 4 2 4 C2 3.34 2 2.68 2 2 C1.34 2 0.68 2 0 2 C0 1.34 0 0.68 0 0 Z " fill="#241354" transform="translate(94,167)"/>
<path d="M0 0 C2 1 2 1 3.125 4.0625 C3.41375 5.031875 3.7025 6.00125 4 7 C3.01 7 2.02 7 1 7 C-1 4 -1 4 -0.625 1.8125 C-0.41875 1.214375 -0.2125 0.61625 0 0 Z " fill="#172D70" transform="translate(115,125)"/>
<path d="M0 0 C3.97497544 3.40712181 5.86793788 7.32760855 8 12 C7.34 12 6.68 12 6 12 C4.4921875 9.8828125 4.4921875 9.8828125 2.875 7.125 C2.33617187 6.22007813 1.79734375 5.31515625 1.2421875 4.3828125 C0 2 0 2 0 0 Z " fill="#2C435B" transform="translate(185,30)"/>
<path d="M0 0 C0.33 0.99 0.66 1.98 1 3 C-1.64 4.65 -4.28 6.3 -7 8 C-7.66 7.34 -8.32 6.68 -9 6 C-8.2575 5.7525 -7.515 5.505 -6.75 5.25 C-3.79875938 3.90852699 -2.15185026 2.39094474 0 0 Z " fill="#E7B161" transform="translate(143,150)"/>
<path d="M0 0 C0.99 0.33 1.98 0.66 3 1 C3 2.98 3 4.96 3 7 C2.01 7 1.02 7 0 7 C0 4.69 0 2.38 0 0 Z " fill="#92B7E8" transform="translate(121,99)"/>
<path d="M0 0 C-0.33 0.99 -0.66 1.98 -1 3 C-5 3 -5 3 -7 2 C-7 1.34 -7 0.68 -7 0 C-4.3333581 -1.33332095 -2.83319697 -0.67102033 0 0 Z " fill="#1C5480" transform="translate(136,40)"/>
<path d="M0 0 C-0.33 0.66 -0.66 1.32 -1 2 C-2.258125 2.04125 -3.51625 2.0825 -4.8125 2.125 C-5.52019531 2.14820313 -6.22789063 2.17140625 -6.95703125 2.1953125 C-9 2 -9 2 -12 0 C-7.66726186 -0.92844389 -4.33273814 -0.92844389 0 0 Z " fill="#3F2440" transform="translate(96,154)"/>
<path d="M0 0 C0 0.66 0 1.32 0 2 C-4.455 2.495 -4.455 2.495 -9 3 C-4.61538462 -1.38461538 -4.61538462 -1.38461538 0 0 Z " fill="#16507B" transform="translate(106,37)"/>
<path d="M0 0 C1.98 0.66 3.96 1.32 6 2 C6 2.66 6 3.32 6 4 C6.66 4.33 7.32 4.66 8 5 C7.01 5.33 6.02 5.66 5 6 C3.35 4.02 1.7 2.04 0 0 Z " fill="#5D83C4" transform="translate(66,144)"/>
<path d="M0 0 C-0.66 0.66 -1.32 1.32 -2 2 C-4.1640625 1.9765625 -4.1640625 1.9765625 -6.625 1.625 C-7.44226563 1.51414063 -8.25953125 1.40328125 -9.1015625 1.2890625 C-9.72804687 1.19367188 -10.35453125 1.09828125 -11 1 C-11 0.67 -11 0.34 -11 0 C-3.375 -1.125 -3.375 -1.125 0 0 Z " fill="#201D4C" transform="translate(160,139)"/>
<path d="M0 0 C3.68754757 0.49831724 5.60490662 1.10067643 8 4 C7.34 4 6.68 4 6 4 C5.67 4.66 5.34 5.32 5 6 C3.31237149 4.3545622 1.6459651 2.68711423 0 1 C0 0.67 0 0.34 0 0 Z " fill="#5F8DC9" transform="translate(117,128)"/>
<path d="M0 0 C0.99 0 1.98 0 3 0 C3.1875 2.375 3.1875 2.375 3 5 C2.01 5.66 1.02 6.32 0 7 C0 4.69 0 2.38 0 0 Z " fill="#5371B2" transform="translate(34,101)"/>
<path d="M0 0 C0.99 0.33 1.98 0.66 3 1 C3 2.32 3 3.64 3 5 C1.68 5 0.36 5 -1 5 C-0.67 3.35 -0.34 1.7 0 0 Z " fill="#6E91CA" transform="translate(71,100)"/>
<path d="M0 0 C1.32 0.66 2.64 1.32 4 2 C1.03 3.32 -1.94 4.64 -5 6 C-3.86695008 2.60085025 -2.87481525 1.94745549 0 0 Z " fill="#235F8B" transform="translate(83,42)"/>
<path d="M0 0 C0.99 0.33 1.98 0.66 3 1 C2.34 2.32 1.68 3.64 1 5 C-0.98 5 -2.96 5 -5 5 C-4.34 4.01 -3.68 3.02 -3 2 C-2.01 2 -1.02 2 0 2 C0 1.34 0 0.68 0 0 Z " fill="#22185A" transform="translate(183,173)"/>
<path d="M0 0 C2.31 0.33 4.62 0.66 7 1 C5 3 5 3 1.875 3.125 C0.451875 3.063125 0.451875 3.063125 -1 3 C-0.67 2.01 -0.34 1.02 0 0 Z " fill="#231137" transform="translate(80,154)"/>
<path d="M0 0 C1.65 0 3.3 0 5 0 C5 1.32 5 2.64 5 4 C3.0625 3.6875 3.0625 3.6875 1 3 C0.67 2.01 0.34 1.02 0 0 Z " fill="#6DAADC" transform="translate(84,125)"/>
<path d="M0 0 C0.8971875 0.5259375 0.8971875 0.5259375 1.8125 1.0625 C0.8125 2.0625 0.8125 2.0625 -1.03515625 2.16015625 C-3.0859375 2.12760417 -5.13671875 2.09505208 -7.1875 2.0625 C-4.72093412 -0.40406588 -3.34389711 -1.43309876 0 0 Z " fill="#7BC4E4" transform="translate(129.1875,58.9375)"/>
<path d="M0 0 C0 0.33 0 0.66 0 1 C-3.63 0.67 -7.26 0.34 -11 0 C-11 -0.33 -11 -0.66 -11 -1 C-6.70700357 -2.26264601 -4.12168689 -1.62950412 0 0 Z " fill="#1B547E" transform="translate(126,39)"/>
</svg>
